<?xml version="1.0" encoding="UTF-8" standalone="no"?>
<!-- Created with Inkscape (http://www.inkscape.org/) -->

<svg
   width="120mm"
   height="90mm"
   viewBox="0 0 120 90"
   version="1.1"
   id="svg1"
   xml:space="preserve"
   sodipodi:docname="3wilgen.svg"
   inkscape:version="1.4 (e7c3feb1, 2024-10-09)"
   inkscape:export-filename="3wilgen.png"
   inkscape:export-xdpi="317.5"
   inkscape:export-ydpi="317.5"
   xmlns:inkscape="http://www.inkscape.org/namespaces/inkscape"
   xmlns:sodipodi="http://sodipodi.sourceforge.net/DTD/sodipodi-0.dtd"
   xmlns="http://www.w3.org/2000/svg"
   xmlns:svg="http://www.w3.org/2000/svg"><sodipodi:namedview
     id="namedview1"
     pagecolor="#ffffff"
     bordercolor="#000000"
     borderopacity="0.25"
     inkscape:showpageshadow="2"
     inkscape:pageopacity="0.0"
     inkscape:pagecheckerboard="0"
     inkscape:deskcolor="#d1d1d1"
     inkscape:document-units="mm"
     inkscape:zoom="0.21146972"
     inkscape:cx="160.77952"
     inkscape:cy="219.88964"
     inkscape:window-width="1512"
     inkscape:window-height="842"
     inkscape:window-x="0"
     inkscape:window-y="38"
     inkscape:window-maximized="0"
     inkscape:current-layer="svg1" /><defs
     id="defs1" /><path
     style="fill:#1a1a1a;stroke-width:0.22097"
     d="m 77.323161,71.855686 c -0.02618,-0.0682 0.0055,-0.13738 0.09606,-0.20967 0.3565,-0.28459 0.477846,-0.42216 0.593984,-0.6734 0.121216,-0.26224 0.126433,-0.35897 0.143454,-2.65954 0.01306,-1.76488 -2.21e-4,-2.40899 -0.051,-2.47016 -0.03777,-0.0455 -0.141563,-0.0827 -0.230654,-0.0827 -0.166618,0 -0.289814,-0.15911 -0.158889,-0.20521 0.155882,-0.0549 1.041095,-0.14025 1.124086,-0.1084 0.07616,0.0293 0.08802,0.31178 0.08764,2.08844 -4.42e-4,2.41435 -0.04236,2.90135 -0.293009,3.41049 -0.192815,0.39166 -0.427151,0.61079 -0.917755,0.85818 -0.36176,0.18243 -0.344719,0.18018 -0.393904,0.052 z m -68.9038362,-1.703 -0.496951,-0.0369 -0.01536,-2.09965 c -0.01048,-1.43084 -0.03603,-2.12456 -0.08024,-2.17783 -0.03569,-0.043 -0.140582,-0.0782 -0.233114,-0.0782 -0.125884,0 -0.168236,-0.0278 -0.168236,-0.1103 0,-0.14989 0.167549,-0.17536 1.432396,-0.21781 0.849886,-0.0285 1.127867,-0.0175 1.4447362,0.0573 0.822762,0.19428 1.323218,0.5569 1.599512,1.15898 0.152186,0.33162 0.169353,0.43069 0.17029,0.98269 0.0013,0.72798 -0.09985,1.07798 -0.443432,1.53523 -0.6043,0.80425 -1.588231,1.10664 -3.2095962,0.98639 z m 1.8366302,-0.49956 c 0.710752,-0.34774 1.06543,-1.04999 1.01597,-2.01159 -0.03396,-0.66032 -0.191478,-1.02873 -0.598669,-1.40019 -0.169047,-0.15423 -0.430705,-0.32177 -0.591562,-0.37881 -0.3521882,-0.12488 -0.9329142,-0.19003 -1.2176412,-0.13662 l -0.210866,0.0395 v 2.01011 c 0,1.86384 0.0074,2.01232 0.102314,2.0405 0.05627,0.0167 0.344349,0.0224 0.640174,0.0126 0.442637,-0.0147 0.594938,-0.0457 0.8602802,-0.17555 z m 13.463431,0.50655 c -0.01359,-0.0241 -0.0013,-0.9764 0.02748,-2.11618 l 0.05219,-2.07233 -0.18328,-0.25522 c -0.100805,-0.14036 -0.173042,-0.26545 -0.16053,-0.27796 0.0125,-0.0125 0.192884,-0.0395 0.400827,-0.0601 l 0.378078,-0.0374 1.403163,1.86738 1.403163,1.86738 0.01545,-0.23978 c 0.0085,-0.13188 -0.0047,-0.93358 -0.02923,-1.78155 l -0.04469,-1.54177 0.142331,-0.0541 c 0.07828,-0.0297 0.196673,-0.0463 0.263092,-0.0368 0.118496,0.017 0.120334,0.0403 0.09793,1.24504 -0.01255,0.67527 -0.03887,1.7408 -0.05847,2.36783 l -0.03564,1.14008 -0.182677,0.0177 c -0.100688,0.01 -0.218772,-0.0187 -0.263094,-0.0635 -0.04423,-0.0447 -0.685528,-0.88681 -1.425112,-1.87137 -1.237683,-1.64765 -1.345932,-1.7752 -1.360211,-1.60277 -0.0085,0.10303 0.0046,0.92005 0.02923,1.81558 0.04106,1.49433 0.03665,1.63256 -0.05373,1.68087 -0.119439,0.0639 -0.382144,0.0694 -0.416288,0.009 z m 5.981248,-0.003 c 0,-0.0257 0.407594,-1.02773 0.905764,-2.2266 0.627715,-1.51063 0.901414,-2.23648 0.891594,-2.36449 -0.01379,-0.17983 -0.0067,-0.1856 0.268,-0.21751 0.162449,-0.0189 0.313841,-0.007 0.356813,0.0289 0.04106,0.0339 0.306425,0.66676 0.589715,1.40634 0.28329,0.73959 0.617539,1.6078 0.742776,1.92936 0.421703,1.08275 0.528549,1.37816 0.506254,1.39969 -0.01221,0.0118 -0.171084,0.0398 -0.353061,0.0624 -0.391707,0.0484 -0.33527,0.11925 -0.722968,-0.90664 -0.151902,-0.40195 -0.308264,-0.75713 -0.347472,-0.78929 -0.04399,-0.0361 -0.391586,-0.0473 -0.907735,-0.0293 l -0.836448,0.0293 -0.298139,0.7917 c -0.163977,0.43544 -0.319424,0.8235 -0.345439,0.86237 -0.05206,0.0778 -0.449654,0.0988 -0.449654,0.0239 z m 2.383603,-2.97874 c -0.191105,-0.50646 -0.36712,-0.94145 -0.391144,-0.96665 -0.02402,-0.0252 -0.143438,0.22473 -0.265366,0.55541 -0.121927,0.33069 -0.282976,0.76568 -0.357886,0.96665 l -0.136199,0.36541 h 0.74903 0.749031 z m 4.960026,2.93309 c -0.01952,-0.0509 -0.03549,-1.05062 -0.03549,-2.22167 v -2.1292 l -0.336175,0.002 c -0.479026,0.004 -0.825596,0.0824 -0.921743,0.20936 -0.04565,0.0603 -0.125432,0.23462 -0.177289,0.38737 -0.05883,0.17328 -0.128787,0.2777 -0.186038,0.2777 -0.0794,0 -0.08667,-0.0716 -0.05404,-0.53132 0.02074,-0.29224 0.05254,-0.55533 0.07067,-0.58466 0.0188,-0.0305 0.885773,-0.0533 2.019155,-0.0533 1.537971,0 1.991281,0.0165 2.008719,0.0731 0.01238,0.0402 0.03659,0.30329 0.05378,0.58465 0.02789,0.45633 0.02044,0.51157 -0.06896,0.51157 -0.07043,0 -0.12607,-0.0895 -0.187166,-0.30113 -0.128534,-0.44519 -0.279654,-0.53437 -0.917029,-0.54114 l -0.514609,-0.005 -0.02923,2.16266 -0.02924,2.16266 -0.175396,0.0375 c -0.317228,0.0678 -0.483164,0.0546 -0.519931,-0.0412 z m 5.461974,-10e-5 c -0.252467,-0.1095 -0.39532,-0.23679 -0.519295,-0.4627 -0.08155,-0.14861 -0.100812,-0.45162 -0.12556,-1.97554 -0.03178,-1.95681 -0.02278,-1.90973 -0.365408,-1.91163 -0.11927,-6.1e-4 -0.160779,-0.0299 -0.160779,-0.11318 0,-0.0954 0.05925,-0.11869 0.394639,-0.15497 0.217053,-0.0235 0.486723,-0.0453 0.599269,-0.0485 l 0.204627,-0.006 0.02936,1.81241 c 0.03118,1.92485 0.04544,2.02337 0.324698,2.24303 0.352214,0.27705 0.887937,0.2969 1.516919,0.0562 l 0.321468,-0.12302 v -1.91918 c 0,-2.17628 -0.03288,-2.04022 0.493109,-2.04022 h 0.266937 v 2.30593 c 0,1.26825 -0.01974,2.31806 -0.04385,2.3329 -0.02412,0.0148 -0.168515,0.0457 -0.320885,0.0685 -0.295216,0.0442 -0.290843,0.0475 -0.362404,-0.27893 l -0.03532,-0.16115 -0.276503,0.14001 c -0.636165,0.32215 -1.50008,0.42713 -1.941018,0.23588 z m 6.548096,0 c -0.267209,-0.1159 -0.399766,-0.24107 -0.534147,-0.50436 -0.100452,-0.19682 -0.111251,-0.37016 -0.116538,-1.87089 -0.0032,-0.90968 -0.02397,-1.71974 -0.04615,-1.80013 -0.03254,-0.11792 -0.08292,-0.14971 -0.260832,-0.16452 -0.167825,-0.014 -0.216074,-0.0414 -0.201967,-0.11461 0.02161,-0.11226 0.264274,-0.17209 0.807108,-0.19899 l 0.380025,-0.0188 0.02923,1.81242 c 0.02723,1.68802 0.0374,1.82632 0.148231,2.01497 0.268476,0.457 0.922255,0.57645 1.64957,0.3014 l 0.365408,-0.13818 v -1.92017 c 0,-2.1774 -0.0329,-2.04121 0.493109,-2.04121 h 0.266937 v 2.31121 c 0,1.8754 -0.01474,2.31686 -0.07818,2.34121 -0.043,0.0165 -0.194277,0.0354 -0.336176,0.042 -0.235364,0.011 -0.25953,-6e-4 -0.275479,-0.13415 -0.03549,-0.29673 -0.05141,-0.30381 -0.346703,-0.15428 -0.638598,0.32337 -1.501756,0.42868 -1.943445,0.2371 z m 5.947087,0.059 c -0.02412,-0.0244 -0.04385,-1.01058 -0.04385,-2.19155 0,-2.33885 0.01774,-2.21818 -0.326341,-2.21818 -0.0996,0 -0.141381,-0.0326 -0.141381,-0.11035 0,-0.0961 0.07614,-0.11968 0.588628,-0.18246 0.323746,-0.0397 0.89842,-0.0611 1.277055,-0.0475 0.618466,0.022 0.72352,0.0421 1.033778,0.19707 0.278659,0.13922 0.37076,0.22291 0.476901,0.4334 0.306254,0.60732 0.03638,1.27766 -0.654223,1.62502 l -0.230351,0.11586 0.26497,0.11721 c 0.347481,0.15371 0.465806,0.33275 0.692168,1.04734 0.221738,0.69998 0.362355,0.95549 0.525844,0.95549 0.07679,0 0.117791,0.0387 0.117791,0.11119 0,0.0919 -0.05845,0.11798 -0.336309,0.15023 -0.618757,0.0718 -0.734625,-0.0426 -1.01515,-1.00274 -0.291214,-0.9967 -0.382705,-1.11129 -0.941887,-1.17971 -0.227129,-0.0278 -0.311906,-0.0641 -0.326477,-0.13986 -0.01509,-0.0784 0.01987,-0.10232 0.149584,-0.10232 0.317855,0 0.711476,-0.17689 0.877257,-0.39424 0.12718,-0.16674 0.161395,-0.28151 0.176865,-0.59321 0.02099,-0.42295 -0.08323,-0.6736 -0.353791,-0.85087 -0.183353,-0.12014 -0.756257,-0.23225 -0.944886,-0.18491 l -0.149999,0.0377 v 2.15864 c 0,1.18726 -0.02123,2.17178 -0.04721,2.18782 -0.09087,0.0561 -0.625557,0.10494 -0.668991,0.061 z m 9.529816,0 c -0.02412,-0.0244 -0.04385,-0.99497 -0.04385,-2.15687 0,-1.56513 -0.01818,-2.13072 -0.07016,-2.1827 -0.03859,-0.0386 -0.143824,-0.0702 -0.23386,-0.0702 -0.12269,0 -0.163704,-0.0282 -0.163704,-0.11272 0,-0.11884 0.219534,-0.16636 0.906211,-0.19615 l 0.292324,-0.0127 0.01531,2.30576 c 0.0084,1.26817 -0.0047,2.3255 -0.02923,2.34962 -0.06577,0.0648 -0.622001,0.12749 -0.673036,0.0759 z m 3.552656,-2.0859 0.04325,-2.13668 -0.153621,-0.20141 c -0.08449,-0.11077 -0.153619,-0.22823 -0.153619,-0.26102 0,-0.0542 0.386469,-0.13398 0.648975,-0.13398 0.06401,0 0.233053,0.16906 0.423859,0.42388 0.765364,1.02214 1.514466,2.01382 1.62302,2.14859 0.06475,0.0804 0.279364,0.36322 0.476919,0.6285 0.368229,0.49448 0.474629,0.5818 0.427396,0.35079 -0.01478,-0.0724 -0.04316,-0.87118 -0.06304,-1.77518 l -0.03615,-1.64364 0.18617,-0.0372 c 0.387001,-0.0774 0.362743,-0.19268 0.321249,1.52671 -0.06194,2.56638 -0.08713,3.13256 -0.141852,3.18727 -0.02863,0.0286 -0.127343,0.0434 -0.219351,0.0329 -0.143986,-0.0165 -0.362023,-0.27784 -1.565419,-1.87623 -0.768974,-1.02137 -1.404779,-1.85011 -1.412902,-1.84165 -0.0081,0.008 0.0093,0.82851 0.03882,1.82232 0.02947,0.99381 0.04233,1.81819 0.02857,1.83195 -0.01376,0.0137 -0.135382,0.0398 -0.270267,0.0579 l -0.245244,0.0329 z m 24.251709,2.03387 c -1.035393,-0.29139 -1.636845,-0.94216 -1.775477,-1.92108 -0.188108,-1.32829 0.533865,-2.394 1.828626,-2.69927 0.579206,-0.13655 2.008234,-0.0893 2.152524,0.0712 0.02237,0.0249 0.05637,0.26229 0.07556,0.52757 0.03119,0.43109 0.02422,0.48212 -0.06559,0.48022 -0.05951,-0.001 -0.148164,-0.10253 -0.217416,-0.24839 -0.144075,-0.30344 -0.40372,-0.48189 -0.82991,-0.57036 -0.5602,-0.1163 -1.28075,0.0617 -1.637752,0.40453 -0.747533,0.71789 -0.688432,2.41588 0.109166,3.13646 0.391118,0.35335 0.801146,0.50828 1.432576,0.54131 l 0.545897,0.0286 v -0.71338 c 0,-0.80986 -0.04123,-0.93957 -0.29867,-0.93957 -0.137645,0 -0.173221,-0.023 -0.158054,-0.10232 0.01617,-0.0846 0.109946,-0.1092 0.542512,-0.14217 0.287617,-0.0219 0.543835,-0.0269 0.569368,-0.0111 0.02553,0.0158 0.04643,0.48632 0.04643,1.04564 v 1.01694 l -0.219245,0.0666 c -0.359751,0.10932 -1.746641,0.12821 -2.100548,0.0286 z m 9.978719,0.0242 c 0,-0.0338 0.40798,-1.04453 0.90661,-2.24607 0.78545,-1.89269 0.89882,-2.20507 0.8484,-2.3377 -0.067,-0.17629 -0.0533,-0.18469 0.3685,-0.22529 0.33855,-0.0326 0.22458,-0.24093 1.06522,1.94726 0.33971,0.88428 0.71996,1.87089 0.845,2.19244 0.12504,0.32156 0.20915,0.60214 0.18693,0.62351 -0.0222,0.0214 -0.18661,0.0567 -0.36531,0.0784 l -0.32492,0.0395 -0.34743,-0.89393 c -0.19109,-0.49166 -0.36717,-0.8887 -0.39128,-0.88231 -0.0241,0.006 -0.41876,0.0116 -0.87698,0.0116 l -0.83313,1e-5 -0.28652,0.7939 c -0.15758,0.43664 -0.32389,0.83127 -0.36958,0.87696 -0.0961,0.0961 -0.42551,0.11281 -0.42551,0.0216 z m 2.6894,-2.0814 c 0,-0.0209 -0.13061,-0.38271 -0.29024,-0.8039 -0.15963,-0.42118 -0.31933,-0.84471 -0.3549,-0.94118 -0.0507,-0.13741 -0.0753,-0.1564 -0.11374,-0.0877 -0.0482,0.0861 -0.70275,1.80928 -0.70275,1.85005 0,0.0114 0.32887,0.0208 0.73082,0.0208 0.40195,0 0.73081,-0.0171 0.73081,-0.0381 z m 4.05822,2.08773 c -0.30655,-0.0733 -0.31645,-0.0936 -0.31645,-0.64991 0,-0.40757 0.0179,-0.52273 0.0814,-0.52273 0.0448,0 0.0994,0.0724 0.12148,0.16078 0.14629,0.5862 0.81932,0.89372 1.51401,0.69177 0.42686,-0.12409 0.62176,-0.36341 0.62176,-0.76347 0,-0.24201 -0.0266,-0.30502 -0.19672,-0.46543 -0.10819,-0.10204 -0.41733,-0.27259 -0.68696,-0.37901 -0.93258,-0.36804 -1.30478,-0.6329 -1.45885,-1.03813 -0.0808,-0.21248 -0.0661,-0.75572 0.0262,-0.97087 0.10647,-0.24811 0.41828,-0.53869 0.70752,-0.65935 0.38619,-0.16109 1.70361,-0.18626 1.9399,-0.0371 0.0353,0.0224 0.0739,0.26342 0.0858,0.53614 0.019,0.43543 0.009,0.49803 -0.0807,0.51585 -0.0674,0.0134 -0.10239,-0.0161 -0.10253,-0.0863 -1.2e-4,-0.0586 -0.0525,-0.19235 -0.1164,-0.29715 -0.24083,-0.395 -0.79748,-0.57283 -1.25096,-0.39964 -0.33311,0.12722 -0.50583,0.32139 -0.54488,0.61257 -0.0668,0.49803 0.11843,0.67749 1.12318,1.08816 0.68308,0.2792 0.88067,0.40455 1.08719,0.68964 0.14684,0.2027 0.16981,0.28691 0.16981,0.6225 0,0.70174 -0.40585,1.19166 -1.11277,1.34327 -0.32836,0.0704 -1.32968,0.0756 -1.61096,0.008 z m -94.34831,-0.0879 c -0.01783,-0.0465 -0.03338,-0.98384 -0.03453,-2.08298 -0.0016,-1.40585 -0.02183,-2.02225 -0.06867,-2.07868 -0.03662,-0.0441 -0.144211,-0.0802 -0.239098,-0.0802 -0.132735,0 -0.168042,-0.0236 -0.153089,-0.10232 0.01558,-0.082 0.123916,-0.11594 0.545089,-0.17091 0.585602,-0.0764 2.637549,-0.10225 2.679699,-0.0337 0.01483,0.0241 0.03611,0.26748 0.0473,0.5408 0.01622,0.39657 0.0038,0.49696 -0.06148,0.49696 -0.045,0 -0.118186,-0.10524 -0.162643,-0.23386 -0.150347,-0.43499 -0.217018,-0.46527 -1.072466,-0.48699 l -0.758589,-0.0192 v 0.88573 0.88573 l 0.81025,-0.0411 c 0.459884,-0.0234 0.824136,-0.0186 0.842366,0.0108 0.01766,0.0286 0.01763,0.12771 -5.7e-5,0.22029 l -0.03218,0.16832 -0.8116,-0.0292 -0.811601,-0.0292 0.01602,0.94214 0.01602,0.94213 h 0.762795 c 0.892869,0 0.994023,-0.0411 1.225552,-0.498 0.144908,-0.28596 0.322009,-0.39054 0.320009,-0.18896 -0.002,0.20167 -0.172366,0.90641 -0.238334,0.9859 -0.101611,0.12243 -2.773714,0.11916 -2.820767,-0.004 z m 67.059946,0.0455 c -0.02144,-0.0214 -0.03898,-0.96331 -0.03898,-2.09305 0,-1.51966 -0.01825,-2.07233 -0.07016,-2.12424 -0.03859,-0.0386 -0.142272,-0.0702 -0.230411,-0.0702 -0.177989,0 -0.280205,-0.10552 -0.16887,-0.17433 0.222321,-0.1374 3.161572,-0.25546 3.239049,-0.1301 0.01576,0.0255 0.03455,0.26886 0.04177,0.5408 0.01025,0.38671 -0.0048,0.49797 -0.06939,0.5106 -0.05253,0.0103 -0.12104,-0.0923 -0.188545,-0.28238 -0.142325,-0.40072 -0.300173,-0.46459 -1.148395,-0.46459 h -0.644993 v 0.87956 0.87955 l 0.81851,-0.0405 0.818512,-0.0405 v 0.22083 0.22084 l -0.819909,-0.0262 -0.819909,-0.0262 0.01602,0.93949 0.01602,0.9395 0.643116,0.0168 c 0.868049,0.0228 1.067966,-0.0524 1.295054,-0.48706 0.158499,-0.30334 0.264644,-0.38573 0.339959,-0.26386 0.03782,0.0612 -0.127311,0.8505 -0.211676,1.01177 -0.04864,0.093 -0.177749,0.10232 -1.41565,0.10232 -0.74917,0 -1.37967,-0.0176 -1.401106,-0.039 z m 15.81969,2.2e-4 c -0.05655,-0.0228 -0.07308,-0.50183 -0.07308,-2.11767 0,-1.54618 -0.01821,-2.10639 -0.07016,-2.15833 -0.03859,-0.0386 -0.143823,-0.0702 -0.23386,-0.0702 -0.122464,0 -0.163703,-0.0283 -0.163703,-0.11228 0,-0.0954 0.05925,-0.11869 0.39464,-0.15498 0.217053,-0.0235 0.486723,-0.0453 0.599267,-0.0485 l 0.204628,-0.006 0.02923,2.16321 0.02924,2.16321 0.526186,0.0178 c 0.289401,0.01 0.610916,0.002 0.714475,-0.017 0.254253,-0.0468 0.507231,-0.27101 0.658551,-0.58357 0.0844,-0.17437 0.15248,-0.248 0.20918,-0.22624 0.0462,0.0177 0.084,0.0703 0.084,0.11676 0,0.16246 -0.1896,0.92676 -0.24787,0.9992 -0.044,0.0547 -0.377356,0.0719 -1.323232,0.0685 -0.695452,-0.002 -1.297345,-0.0179 -1.337539,-0.0341 z m -78.058102,-6.55383 c -0.03748,-0.07 -0.151698,-0.13353 -0.283587,-0.15763 -0.121457,-0.0222 -0.281581,-0.0795 -0.355833,-0.12735 -0.145569,-0.0938 -0.409916,-0.088 -0.36195,0.008 0.03865,0.0773 -1.056736,0.1449 -1.153806,0.0712 -0.03971,-0.0302 -0.473815,-0.0511 -0.964675,-0.0466 -2.503855,0.0231 -4.136653,0.0119 -4.202294,-0.0286 -0.04028,-0.0249 -0.357836,-0.043 -0.705692,-0.0403 -0.347856,0.003 -0.632467,-0.0191 -0.632467,-0.0485 0,-0.0747 -0.686151,-0.0672 -0.732625,0.008 -0.02185,0.0354 -0.2278832,0.0583 -0.4857862,0.054 -0.605787,-0.01 -1.00771,-0.0609 -0.969467,-0.12278 0.04376,-0.0708 0.316996,-0.0644 0.316996,0.007 0,0.0742 0.273929,0.0771 0.31947,0.004 0.04987,-0.0807 0.414601,-0.1148 1.4566122,-0.13616 0.806374,-0.0165 0.902388,-0.009 0.730816,0.0561 l -0.197525,0.0752 0.263091,-0.0237 c 0.144703,-0.013 0.473569,-0.0495 0.730816,-0.081 0.257245,-0.0316 1.664795,-0.0585 3.127883,-0.0601 2.859169,-0.003 5.668022,-0.001 5.904979,0.004 0.08039,0.002 0.67235,-0.0174 1.315467,-0.0424 0.643115,-0.0251 1.485013,-0.0366 1.870882,-0.0256 0.385871,0.011 0.846285,0.0173 1.023141,0.0139 6.762701,-0.12993 10.289863,-0.15552 10.289863,-0.0746 0,0.0565 0.07183,0.0617 0.306942,0.0225 0.394328,-0.0659 2.64191,-0.0836 12.087666,-0.0953 15.111462,-0.0188 15.562697,-0.0175 16.282538,0.0451 0.289403,0.0252 0.618268,0.0429 0.730813,0.0393 0.112547,-0.004 0.375639,-0.002 0.584653,0.004 0.681522,0.0193 1.652566,-0.0101 2.338605,-0.0709 1.145814,-0.10144 11.378429,-0.19911 15.906745,-0.15184 2.296815,0.024 5.517801,0.0341 7.157748,0.0224 6.532073,-0.0464 14.352237,0.01 17.685697,0.12702 1.07723,0.0379 2.35323,0.0546 2.83556,0.0371 0.80715,-0.0292 0.86143,-0.0249 0.68172,0.0546 -0.10739,0.0475 -0.60727,0.12597 -1.11084,0.17444 -0.7641,0.0736 -1.59264,0.0819 -5.00813,0.0504 -2.25091,-0.0208 -4.58364,-0.0418 -5.18385,-0.0466 -0.60021,-0.005 -1.10937,-0.0269 -1.13147,-0.0489 -0.02209,-0.0221 -0.109819,-0.0127 -0.194941,0.0209 -0.08884,0.0351 -0.789819,0.0682 -1.645628,0.0779 -0.819972,0.009 -2.398531,0.0389 -3.507907,0.0659 -1.109376,0.027 -2.490615,0.0441 -3.06942,0.038 -2.408302,-0.0254 -10.591175,-0.0808 -10.699119,-0.0725 -0.06431,0.005 -0.932519,0.0191 -1.92935,0.0312 -0.996829,0.0122 -2.187326,0.0398 -2.645546,0.0614 -0.726326,0.0341 -0.833127,0.0277 -0.833127,-0.0503 0,-0.0492 -0.04916,-0.10241 -0.109257,-0.11812 -0.11857,-0.031 -0.904896,0.0367 -1.393663,0.12014 -0.19287,0.0329 -0.325426,0.0309 -0.361815,-0.005 -0.0376,-0.0376 -0.17477,-0.0294 -0.397198,0.0237 -0.199622,0.0477 -0.56886,0.0749 -0.895184,0.066 -0.892233,-0.0243 -1.520209,-0.0196 -1.958582,0.0149 -0.225091,0.0177 -1.593175,0.0446 -3.040188,0.0599 -1.44701,0.0153 -2.685466,0.0403 -2.75212,0.0557 -0.06666,0.0154 -0.461296,0.004 -0.876977,-0.0262 -0.522832,-0.0374 -0.93279,-0.0335 -1.330042,0.0127 -0.462241,0.0538 -0.583347,0.0521 -0.620874,-0.009 -0.03743,-0.0606 -0.112372,-0.0618 -0.380282,-0.006 -0.342327,0.0711 -2.772142,0.0465 -3.404982,-0.0345 -0.166748,-0.0213 -0.350914,-0.0202 -0.409255,0.002 -0.170974,0.0664 -1.025639,0.10158 -0.988001,0.0407 0.05875,-0.0951 -0.133025,-0.12347 -0.440244,-0.0652 -0.163852,0.0311 -0.319639,0.0431 -0.34619,0.0266 -0.02656,-0.0164 -0.06363,-0.005 -0.08238,0.0253 -0.02909,0.0471 -1.396998,0.0492 -3.394187,0.005 -0.225092,-0.005 -0.731546,0.005 -1.125454,0.0222 -0.398202,0.0173 -0.716199,0.008 -0.716199,-0.0204 0,-0.0283 -0.290225,-0.0524 -0.644947,-0.0534 -0.35472,-6e-4 -0.632572,0.0183 -0.617449,0.0428 0.03337,0.054 -0.865677,0.0374 -0.954719,-0.0177 -0.03466,-0.0214 -0.09492,-0.0192 -0.133915,0.005 -0.117452,0.0726 -2.980625,0.0849 -3.067032,0.0132 -0.04536,-0.0377 -0.175023,-0.0471 -0.325036,-0.0237 -0.715167,0.11143 -3.792752,0.18709 -4.031388,0.0991 -0.07444,-0.0274 -0.211031,-0.0683 -0.303527,-0.0907 -0.135525,-0.0328 -0.161618,-0.0237 -0.134407,0.0472 0.02977,0.0776 -0.275536,0.0875 -2.579687,0.0836 -1.4374,-0.002 -3.236492,0.0124 -3.997984,0.0328 -0.914089,0.0245 -1.396999,0.017 -1.421229,-0.0222 -0.04826,-0.0781 -0.261256,-0.0752 -0.571233,0.008 -0.158951,0.0425 -0.357294,0.0499 -0.541642,0.02 l -0.290856,-0.047 0.214459,-0.0639 c 0.284613,-0.0848 0.342003,-0.15141 0.13146,-0.15251 -0.131589,-6.1e-4 -0.150499,-0.0139 -0.08283,-0.0576 0.194761,-0.12586 -0.09117,-0.0571 -0.36193,0.087 -0.187057,0.0996 -0.325492,0.13505 -0.43869,0.11242 -0.09096,-0.0182 -0.283105,0.007 -0.426981,0.057 -0.143876,0.0496 -0.283055,0.0687 -0.309285,0.0425 -0.05811,-0.0581 -0.333998,-0.0122 -0.333998,0.0556 0,0.0267 -0.103864,0.0444 -0.23081,0.0394 -0.194175,-0.008 -0.219694,-0.0226 -0.160778,-0.0938 0.06009,-0.0726 0.03684,-0.0775 -0.163831,-0.035 -0.128623,0.0273 -0.687696,0.0438 -1.242384,0.0368 -0.660266,-0.008 -1.008523,0.008 -1.008523,0.0473 0,0.0786 -0.916177,0.0801 -0.964674,0.002 -0.0551,-0.0891 -0.308444,-0.0698 -0.469779,0.036 -0.132655,0.0869 -0.144106,0.0869 -0.144106,0 0,-0.0763 -0.06658,-0.0944 -0.347339,-0.0944 -0.191038,0 -0.361104,0.0223 -0.377926,0.0495 -0.04278,0.0692 -0.756979,0.0365 -0.889977,-0.0408 -0.06977,-0.0405 -0.08037,-0.0642 -0.02923,-0.0654 0.06468,-10e-4 0.06613,-0.0188 0.0074,-0.0895 -0.08943,-0.10775 -0.409257,-0.11773 -0.409257,-0.0128 0,0.0412 -0.122016,0.11096 -0.271149,0.155 -0.211674,0.0625 -0.31197,0.0653 -0.457254,0.0128 -0.255117,-0.0922 -0.470884,-0.0844 -0.55783,0.0204 -0.08191,0.0987 -0.383145,0.11878 -0.438487,0.0292 -0.02108,-0.0341 0.03837,-0.0585 0.142712,-0.0585 0.09837,0 0.178845,-0.0263 0.178845,-0.0584 0,-0.0325 -0.155906,-0.0585 -0.350791,-0.0585 -0.220867,0 -0.350791,0.0243 -0.350791,0.0658 0,0.0419 -0.06366,0.053 -0.175395,0.0307 -0.184062,-0.0368 -0.250044,0.0509 -0.07308,0.0971 0.05627,0.0147 0.0073,0.0298 -0.108768,0.0335 -0.116098,0.004 -0.330504,0.0231 -0.476459,0.0432 -0.227173,0.0311 -0.27441,0.0195 -0.328135,-0.0809 z m 0.475989,-0.0523 c -0.03958,-0.0161 -0.118511,-0.017 -0.175396,-0.002 -0.05689,0.0148 -0.0245,0.0279 0.07197,0.0291 0.09647,10e-4 0.14301,-0.011 0.103428,-0.0269 z m -1.360428,-0.0219 c 0,-0.0311 0.03946,-0.0566 0.0877,-0.0566 0.04823,0 0.0877,0.0103 0.0877,0.0229 0,0.0127 -0.03946,0.0382 -0.0877,0.0566 -0.04823,0.0185 -0.0877,0.008 -0.0877,-0.023 z m -2.992684,-0.0381 c 0.0422,-0.0169 0.09263,-0.0148 0.112058,0.005 0.01943,0.0194 -0.01509,0.0332 -0.07674,0.0307 -0.06811,-0.003 -0.08196,-0.0166 -0.03532,-0.0353 z m 73.121606,-2.38055 c -0.371445,-0.0914 -0.532802,-0.19273 -0.677946,-0.42566 -0.196339,-0.31509 -0.206515,-0.6962 -0.03034,-1.13656 0.184864,-0.46209 0.19205,-0.57758 0.03594,-0.57758 -0.09095,0 -0.116929,0.039 -0.116929,0.1754 0,0.21615 -0.07118,0.22277 -0.229617,0.0213 -0.265581,-0.33763 -0.05532,-0.83986 0.351604,-0.83986 0.282952,0 0.517299,0.17844 1.236113,0.94124 0.791318,0.83973 0.862104,0.87354 1.915946,0.91515 1.568699,0.0619 2.185423,-0.34763 2.264679,-1.50397 0.0177,-0.25815 0.01076,-0.46936 -0.01542,-0.46936 -0.02618,0 -0.09397,0.042 -0.150647,0.0933 -0.142263,0.12875 -0.507906,0.2519 -0.757052,0.25497 -0.162354,0.002 -0.250901,-0.0419 -0.405041,-0.20096 -0.382942,-0.3951 -0.69967,-0.39543 -1.253743,-10e-4 -0.239751,0.17053 -0.338582,0.20485 -0.589916,0.20485 -0.437376,0 -1.158511,-0.20135 -1.457242,-0.40688 -0.555305,-0.38206 -0.848029,-1.46046 -0.849689,-3.13026 -0.0013,-1.33515 0.207101,-2.40694 0.619642,-3.18635 0.345414,-0.65259 0.713915,-0.97146 1.381735,-1.19563 0.37318,-0.12528 0.550979,-0.14907 1.114158,-0.14907 0.563064,0 0.752885,0.0254 1.188225,0.15891 0.458461,0.14061 0.612345,0.15892 1.336622,0.15905 0.96726,1.8e-4 1.512798,-0.10782 2.060898,-0.40796 0.200973,-0.11006 0.365406,-0.1867 0.365406,-0.17032 0,0.0164 -0.07771,0.18373 -0.172684,0.37188 -0.172435,0.34159 -0.412875,0.6302 -0.721618,0.86618 l -0.163484,0.12496 0.01863,2.73731 0.01863,2.73732 0.187948,0.59489 c 0.378277,1.19731 0.442083,2.0708 0.191429,2.62069 -0.23787,0.52185 -0.638895,0.75968 -1.452554,0.86145 -0.437962,0.0548 -0.629961,0.0461 -1.392512,-0.0628 -1.09426,-0.15627 -1.673731,-0.15829 -2.528156,-0.009 -0.752458,0.13167 -0.911168,0.1358 -1.323013,0.0345 z m 0.589978,-3.22277 c -0.383349,-0.45186 -0.590256,-0.79219 -0.777169,-1.2783 l -0.137399,-0.35735 0.02231,0.43848 c 0.01909,0.37523 0.05228,0.48921 0.230032,0.79 0.114248,0.19333 0.256171,0.39409 0.315383,0.44615 0.115505,0.10154 0.544469,0.33556 0.622891,0.33983 0.02613,10e-4 -0.09809,-0.16904 -0.276045,-0.37881 z m 2.112983,-1.66489 c 0.12759,-0.14906 0.249736,-0.23386 0.336852,-0.23386 0.08354,0 0.222824,0.0909 0.358281,0.23386 0.348016,0.36726 0.630328,0.29263 0.910604,-0.24071 0.128473,-0.24448 0.135527,-0.32393 0.153688,-1.73117 0.02156,-1.67037 -0.01797,-1.98633 -0.289629,-2.31592 -0.301286,-0.36551 -0.580867,-0.47727 -1.191035,-0.47609 -0.471127,6.1e-4 -0.558753,0.019 -0.837428,0.17241 -0.700742,0.38588 -1.062689,1.23239 -1.062689,2.48535 0,0.77617 0.07801,1.21423 0.299189,1.68012 0.202445,0.42642 0.516912,0.6584 0.893738,0.65932 0.194275,4.4e-4 0.258049,-0.0343 0.428429,-0.23331 z m -22.732271,3.09368 c -0.281733,-0.28173 -0.866456,-1.74973 -1.278821,-3.21058 -0.634338,-2.24721 -1.032831,-4.61323 -1.145385,-6.80061 -0.03638,-0.70705 -0.04617,-0.75294 -0.172889,-0.81067 -0.186544,-0.085 -0.46201,0.0132 -0.485603,0.17312 -0.01346,0.0912 0.04443,0.16351 0.219245,0.27387 0.231553,0.14617 0.237526,0.15817 0.237526,0.47702 0,0.38114 0.0022,0.38106 -0.529733,0.0199 -0.193606,-0.13147 -0.42736,-0.34306 -0.519451,-0.47018 -0.329538,-0.45492 -0.422594,-1.32503 -0.183139,-1.71248 0.186396,-0.3016 0.365634,-0.32924 0.667256,-0.10292 0.397343,0.29816 0.930327,0.65097 0.983388,0.65097 0.02717,0 0.0494,-0.0947 0.0494,-0.21041 0,-0.62119 0.65466,-1.13491 1.216958,-0.95497 0.273235,0.0874 0.433792,0.23303 0.72118,0.65395 0.358858,0.52561 0.331454,0.51824 1.452839,0.39056 2.08435,-0.2373 3.626117,-0.55755 5.179657,-1.07591 0.964353,-0.32177 1.548513,-0.59552 3.122394,-1.46323 1.409436,-0.77706 1.970399,-1.04823 2.704247,-1.30725 0.973266,-0.34352 1.245352,-0.37194 4.019242,-0.4198 2.211003,-0.0382 2.612106,-0.059 3.070457,-0.15967 1.387969,-0.30483 2.473244,-1.00572 3.160469,-2.04107 0.213908,-0.32227 0.58226,-1.11785 0.538035,-1.16208 -0.01205,-0.012 -0.204796,0.007 -0.428328,0.0417 -0.237644,0.0372 -0.75847,0.0503 -1.254167,0.0316 -1.017477,-0.0385 -1.599153,-0.16316 -3.361744,-0.72056 -2.168957,-0.6859 -3.166838,-0.89874 -4.213722,-0.89874 -0.303153,0 -0.550934,-0.0197 -0.550625,-0.0438 2.21e-4,-0.0241 0.138434,-0.22747 0.306941,-0.45189 1.093659,-1.45656 2.248666,-2.14576 3.826694,-2.28341 0.258603,-0.0226 0.512444,-0.0174 0.564089,0.0115 0.05165,0.0289 0.357241,0.30953 0.679102,0.62361 0.321859,0.31408 0.678665,0.61012 0.7929,0.65785 0.198776,0.083 0.229567,0.0781 0.716625,-0.11561 0.840128,-0.3341 1.513163,-0.39239 2.03243,-0.17602 0.09834,0.041 0.427209,0.29903 0.730814,0.57346 0.834212,0.75401 1.152428,0.86665 2.079879,0.73616 0.526223,-0.074 2.822347,-0.69338 3.600362,-0.97114 0.622193,-0.22214 1.579146,-0.73409 1.503291,-0.80424 -0.01372,-0.0127 -0.273583,-0.14742 -0.577449,-0.29939 -1.116148,-0.55818 -2.014405,-1.29325 -2.375791,-1.9442 -0.09371,-0.16878 -0.18353,-0.30531 -0.19961,-0.30338 -0.01608,0.002 -0.121315,0.1149 -0.233859,0.25107 -0.516089,0.62443 -1.369954,1.16138 -2.162138,1.35965 -0.297742,0.0745 -0.560852,0.0884 -1.227768,0.0646 -1.193632,-0.0426 -1.836327,-0.22221 -4.188327,-1.17064 -1.409129,-0.56822 -2.094748,-0.79799 -3.091654,-1.03612 -1.650034,-0.39412 -2.909878,-0.54164 -4.647977,-0.54422 -2.765703,-0.004 -5.032762,0.54047 -6.58103,1.58086 -1.285724,0.86396 -1.43744,0.89557 -2.276439,0.47432 -0.2894,-0.14531 -0.644575,-0.3061 -0.789278,-0.35731 -0.591383,-0.20928 -2.04278,-0.62577 -2.411686,-0.69205 -0.217052,-0.039 -0.39464,-0.0898 -0.39464,-0.11283 0,-0.10368 0.54664,-0.7644 0.940579,-1.13687 1.207551,-1.14173 2.782256,-1.80996 5.177692,-2.19716 0.967102,-0.15632 3.485526,-0.21707 4.814708,-0.11613 2.981454,0.22639 6.418134,0.9342 8.372508,1.72437 0.266727,0.10784 1.037455,0.45086 1.712728,0.76225 2.418748,1.11539 3.394004,1.33264 4.51925,1.00672 1.236006,-0.358 2.118339,-1.30122 2.115213,-2.26118 -0.0022,-0.66754 -0.297891,-1.07552 -0.916861,-1.26495 -0.16156,-0.0494 -0.738636,-0.10912 -1.361952,-0.14084 -1.672287,-0.0851 -2.202924,-0.25525 -2.778197,-0.89095 -0.385251,-0.42572 -0.577385,-0.90185 -0.572523,-1.41876 0.0072,-0.76779 0.539807,-1.33277 1.534298,-1.62761 0.431399,-0.1279 0.434649,-0.12114 0.04641,0.0966 -0.45542,0.25537 -0.790668,0.59266 -0.965012,0.97088 -0.372949,0.80907 0.130588,1.86003 1.125963,2.35005 0.56357,0.27745 0.920439,0.28674 2.053654,0.0535 1.222211,-0.2516 1.695487,-0.25294 2.862917,-0.008 0.484666,0.10163 1.017706,0.18479 1.184537,0.18479 0.434658,0 1.223724,-0.18904 2.340938,-0.56085 1.490886,-0.49615 2.006906,-0.60797 2.989156,-0.64769 2.6473,-0.10707 5.66995,0.84141 8.69025,2.72693 2.79144,1.74263 4.60818,3.6149 6.10841,6.29511 1.51597,2.70832 2.13518,5.02183 1.74861,6.53329 -0.18511,0.72379 -0.47831,1.21754 -1.08139,1.8211 -0.44156,0.44191 -0.619,0.5736 -1.08346,0.80405 -0.64206,0.31859 -1.07813,0.44457 -1.70041,0.49125 -1.51318,0.11351 -2.74902,-0.70984 -3.09481,-2.06185 -0.13851,-0.54156 -0.14429,-0.86167 -0.0247,-1.36892 0.17083,-0.72479 0.5187,-1.12134 1.08585,-1.2378 0.62114,-0.12754 0.96657,0.0721 1.47526,0.85247 0.47292,0.72551 0.75365,0.88149 1.51466,0.84154 0.77935,-0.0409 1.28066,-0.3817 1.61435,-1.09744 0.12708,-0.2726 0.15129,-0.40822 0.15207,-0.85165 6e-4,-0.47907 -0.0167,-0.56319 -0.19124,-0.91775 -0.44368,-0.90122 -1.35841,-1.39159 -3.89932,-2.09034 -0.68042,-0.18712 -1.65877,-0.485 -2.17412,-0.66196 -2.407,-0.82653 -3.8595,-1.09162 -5.98898,-1.09302 -2.13333,-10e-4 -4.18112,0.29749 -7.023916,1.02522 -4.040798,1.03442 -5.002676,1.25588 -6.343857,1.46053 l -0.248477,0.0379 v 0.41029 c 0,0.79429 -0.283828,1.53735 -0.800304,2.09521 -0.624662,0.67471 -1.462203,1.11082 -2.577346,1.34204 -0.56306,0.11675 -1.233522,0.16249 -4.281283,0.29205 -3.103923,0.13195 -4.69056,0.59732 -6.986583,2.04922 -1.160379,0.73377 -1.396936,0.86708 -2.029831,1.14387 -1.529853,0.66909 -3.255083,1.07412 -5.078223,1.19223 -0.495917,0.0321 -1.072679,0.0971 -1.281691,0.14445 -0.209014,0.0473 -0.518973,0.087 -0.6888,0.0881 -0.219161,0.002 -0.318547,0.0275 -0.342438,0.0898 -0.06845,0.17837 0.168682,2.48235 0.391126,3.80022 0.241709,1.43199 0.424447,2.15023 0.704728,2.76989 0.14278,0.31566 0.181952,0.36176 0.255513,0.3007 0.140299,-0.11643 0.768675,-1.44161 0.989071,-2.08583 0.263313,-0.76968 0.445881,-1.63285 0.461528,-2.1821 l 0.01246,-0.43729 -0.380023,-0.0453 c -0.838818,-0.10002 -1.636596,-0.2261 -1.807356,-0.28563 -0.172281,-0.0601 -0.18046,-0.0776 -0.18046,-0.38606 v -0.32314 l 0.190013,0.0399 c 1.128786,0.23722 2.387881,0.35244 3.376002,0.30894 0.789921,-0.0348 1.54111,-0.1633 2.854932,-0.48845 0.460643,-0.114 0.850874,-0.19394 0.867184,-0.17763 0.01631,0.0163 0.01206,0.17038 -0.0094,0.34237 l -0.03907,0.31271 -1.091204,0.30989 c -0.600162,0.17044 -1.222751,0.32868 -1.383532,0.35163 l -0.292324,0.0417 0.01726,0.49526 c 0.03377,0.96869 0.269169,2.04104 0.641332,2.92157 0.213928,0.50615 0.649534,1.28624 0.718243,1.28624 0.07154,0 0.602472,-1.19869 0.823741,-1.85974 0.266937,-0.7975 0.538699,-2.01136 0.662803,-2.96048 0.129144,-0.98768 0.174111,-2.01397 0.09684,-2.21022 -0.0628,-0.15949 -0.06787,-0.16082 -0.634791,-0.16661 -0.943573,-0.01 -0.951082,-0.0484 -0.06566,-0.33944 0.931188,-0.30605 1.205998,-0.4387 2.118193,-1.02254 0.382065,-0.24454 0.728089,-0.44461 0.768943,-0.44461 0.142751,0 0.202647,0.37216 0.202647,1.25912 v 0.89088 l -0.19001,0.28151 c -0.179433,0.26584 -0.839715,0.78408 -0.998986,0.78408 -0.121344,0 -0.02946,-0.76481 0.101242,-0.84272 0.251104,-0.14968 0.386172,-0.28365 0.386172,-0.38304 0,-0.1251 -0.11145,-0.1774 -0.377985,-0.1774 -0.23765,0 -0.263229,0.0736 -0.264332,0.7604 -0.0027,1.70984 -0.669547,4.64313 -1.62135,7.13239 -0.515648,1.34857 -0.993397,2.22167 -1.215671,2.22167 -0.04288,0 -0.108355,-0.0921 -0.145498,-0.20463 -0.03714,-0.11254 -0.0892,-0.20463 -0.115691,-0.20463 -0.02649,0 -0.102486,0.0921 -0.168889,0.20463 -0.206664,0.35027 -0.32972,0.26083 -0.724999,-0.52698 -0.323315,-0.64439 -1.504423,-3.90812 -1.504423,-4.15715 0,-0.2872 -0.155276,0.10903 -0.581221,1.48317 -0.943817,3.04483 -1.273683,3.92486 -1.568967,4.18572 -0.120572,0.10651 -0.123502,0.10483 -0.250156,-0.14343 l -0.128156,-0.25121 -0.109133,0.21272 c -0.144873,0.28239 -0.19915,0.30677 -0.349092,0.15683 z m 9.657754,-12.46545 c -0.0404,-0.0404 -0.125958,-0.0143 -0.26623,0.0812 -0.253591,0.17272 -0.260643,0.21603 -0.02966,0.18212 0.156765,-0.023 0.186204,-0.004 0.248477,0.16328 l 0.07064,0.18937 0.01814,-0.27823 c 0.01,-0.15303 -0.0086,-0.30503 -0.04138,-0.33777 z m 13.234201,-8.9424 c -0.105133,-0.35226 -0.411661,-0.61672 -0.89821,-0.77492 -0.24351,-0.0792 -0.430692,-0.0954 -0.818512,-0.0708 -0.483342,0.0306 -1.058224,0.17918 -1.058224,0.27346 0,0.0784 1.068116,0.45792 1.552734,0.55172 0.635184,0.12295 0.719469,0.13499 1.009055,0.14412 0.235831,0.007 0.249836,-6e-4 0.213157,-0.12358 z m 24.127508,-0.0877 c 0.026,-0.66964 -0.0687,-1.07445 -0.42033,-1.7978 -0.3655,-0.75186 -0.70096,-1.18719 -1.55559,-2.01869 -1.21762,-1.18467 -2.74764,-2.23864 -4.48414,-3.08895 -3.09763,-1.51679 -5.73276,-1.91482 -8.54474,-1.29065 -0.67651,0.15017 -0.74937,0.19339 -0.55542,0.3295 0.63563,0.44607 0.84533,1.26941 0.50202,1.9711 -0.18425,0.37661 -0.44297,0.5807 -0.850939,0.67126 -0.455956,0.10121 -0.748123,-0.005 -1.438287,-0.52299 -0.369198,-0.27707 -0.693666,-0.47512 -0.816013,-0.49807 -0.305364,-0.0573 -0.58249,0.017 -0.791446,0.21221 -0.181116,0.16919 -0.186455,0.18766 -0.157724,0.5456 0.08327,1.0374 1.226,2.24421 2.89577,3.05817 0.930729,0.4537 1.992359,0.52157 4.398389,0.28119 2.44485,-0.24426 4.00637,-0.0331 6.48963,0.87761 3.32956,1.22108 4.13202,1.45566 5.07185,1.48262 0.248,0.007 0.24849,0.007 0.25697,-0.21211 z M 13.125768,58.923316 c -0.128622,-0.0222 -0.579791,-0.15538 -1.002596,-0.29599 l -0.768737,-0.25567 -0.69731,0.0979 c -0.383521,0.0538 -0.9450402,0.1795 -1.2478212,0.27928 -0.416903,0.13739 -0.607388,0.17244 -0.784861,0.14443 -0.309929,-0.0489 -0.673666,-0.15863 -0.669547,-0.20193 0.0018,-0.019 0.181761,-0.11965 0.399892,-0.22362 0.566578,-0.27002 0.899,-0.58527 1.145596,-1.08642 0.357349,-0.72623 0.378421,-0.93727 0.379555,-3.80134 l 0.0011,-2.56278 0.8623602,0.44876 c 0.474298,0.24682 0.895247,0.47589 0.935444,0.50905 0.05029,0.0415 0.07308,0.2586 0.07308,0.69623 0,0.73009 0.04358,0.77946 0.385869,0.43718 0.384754,-0.38476 0.219334,-0.92744 -0.429624,-1.40944 -0.15279,-0.11349 -0.930642,-0.53612 -1.7285552,-0.9392 -1.61134,-0.81399 -1.958476,-1.02036 -2.269958,-1.3495 -0.309392,-0.32694 -0.420196,-0.57718 -0.381917,-0.86256 0.0542,-0.40413 0.409401,-0.58836 1.274417,-0.66099 0.550723,-0.0463 0.741763,0.006 1.259437,0.34486 0.5777472,0.37812 0.9385112,0.54222 1.0314462,0.46917 0.03828,-0.0301 0.464246,-0.36495 0.946583,-0.74413 0.527448,-0.41465 1.051741,-0.7732 1.315465,-0.89963 0.429739,-0.206 0.45249,-0.21014 1.140071,-0.20747 1.316368,0.005 2.136224,0.41647 2.770076,1.38986 0.472093,0.72498 0.658358,1.49265 0.774213,3.19082 0.08303,1.21709 0.03275,3.60976 -0.08815,4.19523 -0.210784,1.02066 -0.546659,1.69284 -1.151772,2.30504 -0.452353,0.45765 -1.133013,0.82519 -1.778179,0.96018 -0.419857,0.0879 -1.279459,0.10443 -1.69549,0.0327 z m -1.264124,-2.22519 c 0.722073,0 1.020456,-0.0247 1.366098,-0.11311 1.419859,-0.36314 2.035809,-1.21223 2.217687,-3.05709 0.157866,-1.60129 -0.229199,-3.03304 -1.060091,-3.92126 -0.654621,-0.69979 -1.479314,-0.98071 -2.338297,-0.79649 l -0.295203,0.0633 v 0.78444 c 0,0.43143 -0.01074,0.78443 -0.02385,0.78443 -0.01313,0 -0.431193,-0.19438 -0.929057,-0.43196 l -0.9052082,-0.43195 -0.0407,-0.29592 c -0.04485,-0.3261 -0.131984,-0.43335 -0.352093,-0.43335 -0.211705,0 -0.321558,0.11804 -0.321558,0.34552 0,0.15903 0.05186,0.24976 0.254876,0.44594 0.274019,0.2648 0.301382,0.27977 2.0404452,1.11642 0.983411,0.47311 1.202256,0.60279 1.471261,0.87179 0.393034,0.39304 0.498,0.68201 0.393781,1.08409 -0.118486,0.45713 -0.369326,0.60107 -1.193259,0.6847 l -0.39464,0.0401 v 0.75708 c 0,0.41639 0.02635,0.8063 0.05854,0.86647 0.0322,0.0602 0.163745,0.16851 0.292326,0.24078 0.142099,0.0799 0.233782,0.17412 0.233782,0.24035 0,0.14488 -0.241969,0.36213 -0.576127,0.51726 -0.798634,0.37075 -1.590306,0.77655 -1.646079,0.84375 -0.04048,0.0487 0.09687,0.0255 0.380058,-0.0645 0.390893,-0.12413 0.552916,-0.14082 1.367302,-0.14082 z m 1.911685,-1.24724 c -0.212865,-0.21287 -0.211207,-0.56749 0.0035,-0.73633 0.328912,-0.25872 0.748445,-0.0772 0.818439,0.35413 0.04482,0.27619 -0.110333,0.45757 -0.427836,0.50015 -0.207748,0.0279 -0.265516,0.0105 -0.394044,-0.11795 z m 1.55827,1.06571 c 0.08508,-0.11395 0.105981,-0.22608 0.09217,-0.49449 l -0.01786,-0.34712 -0.129528,0.24219 c -0.118842,0.22222 -0.562278,0.66402 -0.666468,0.66402 -0.02428,0 -0.118199,0.0317 -0.208722,0.0706 -0.160062,0.0686 -0.155749,0.0715 0.156973,0.10398 0.37883,0.0394 0.621511,-0.0357 0.773435,-0.23914 z m 20.712501,2.4013 c -0.128622,-0.0262 -0.548337,-0.15482 -0.9327,-0.28592 -0.384362,-0.1311 -0.775625,-0.23836 -0.869474,-0.23836 -0.386084,0 -1.408417,0.18984 -1.777845,0.33014 -0.217585,0.0826 -0.527155,0.15396 -0.687935,0.1585 -0.286407,0.008 -0.848874,-0.11769 -0.846586,-0.1893 6.66e-4,-0.0199 0.178611,-0.11957 0.395499,-0.2214 0.516136,-0.24233 0.884158,-0.5733 1.111257,-0.99938 0.374469,-0.70258 0.38113,-0.76385 0.407068,-3.74379 l 0.02356,-2.70665 0.784885,0.41067 c 1.190573,0.62295 1.076808,0.49212 1.076808,1.23835 0,0.71159 0.02291,0.74343 0.342334,0.47561 0.411265,-0.34483 0.277461,-0.91061 -0.328972,-1.39105 -0.191703,-0.15187 -1.022438,-0.6125 -1.942711,-1.07721 -1.700007,-0.85846 -2.20154,-1.20275 -2.418708,-1.6604 -0.335933,-0.70792 0.143973,-1.10721 1.339933,-1.11484 l 0.587482,-0.004 0.531352,0.3364 c 0.292244,0.18501 0.628116,0.37682 0.746382,0.42623 l 0.21503,0.0899 0.390857,-0.30735 c 0.214972,-0.16905 0.640796,-0.50314 0.946277,-0.74244 0.30548,-0.2393 0.751821,-0.52861 0.991869,-0.64292 0.379227,-0.18058 0.505705,-0.2107 0.964674,-0.22971 1.945912,-0.0806 3.231128,1.06262 3.569048,3.17469 0.188519,1.17828 0.260194,3.56338 0.145884,4.85451 -0.233906,2.64198 -1.677165,4.13477 -3.975987,4.11247 -0.30548,-0.003 -0.660655,-0.0268 -0.789279,-0.0529 z m -2.683932,-2.05179 c 0.286417,-0.10313 0.5448,-0.13185 1.51463,-0.1684 1.343611,-0.0506 1.710253,-0.13498 2.300721,-0.52928 0.53302,-0.35593 0.848354,-0.82634 1.06085,-1.58255 0.374197,-1.33165 0.231615,-3.14191 -0.331936,-4.21435 -0.627585,-1.1943 -1.751515,-1.8035 -2.880594,-1.56135 l -0.295204,0.0633 v 0.78444 c 0,0.43143 -0.01973,0.783 -0.04385,0.78125 -0.02412,-0.002 -0.451644,-0.20564 -0.950059,-0.4531 l -0.906209,-0.44993 -0.03189,-0.27744 c -0.03688,-0.32087 -0.104934,-0.40953 -0.314335,-0.40953 -0.21551,0 -0.326123,0.1164 -0.326123,0.34317 0,0.31511 0.315923,0.61114 1.013466,0.94966 0.326879,0.15864 1.011463,0.48948 1.521297,0.73521 0.746419,0.35976 0.986351,0.50616 1.231825,0.75163 0.365886,0.36589 0.48657,0.71435 0.381956,1.10286 -0.116853,0.43396 -0.384957,0.58508 -1.181439,0.66593 l -0.394639,0.0401 v 0.77458 c 0,0.85959 0.04696,0.99108 0.407274,1.14033 0.349389,0.14472 0.137422,0.46488 -0.494972,0.74761 -0.497534,0.22244 -1.568042,0.76951 -1.6341,0.83509 -0.07973,0.0791 -0.03358,0.0701 0.353331,-0.0692 z m 3.399321,-1.3519 c -0.101062,-0.0767 -0.218434,-0.34038 -0.218434,-0.49064 0,-0.1696 0.327556,-0.43018 0.540729,-0.43018 0.338404,0 0.586136,0.38059 0.454534,0.6983 -0.109614,0.26463 -0.553812,0.39187 -0.776829,0.22252 z m 1.437763,1.12292 c 0.165534,-0.13021 0.233709,-0.37273 0.204318,-0.72683 l -0.01886,-0.22725 -0.181902,0.29375 c -0.206445,0.33338 -0.477286,0.55762 -0.797389,0.66016 -0.120584,0.0386 -0.219244,0.0813 -0.219244,0.0949 0,0.0136 0.193772,0.0247 0.430604,0.0247 0.34512,0 0.460754,-0.0237 0.582478,-0.11946 z m 4.521618,2.30216 c -0.02144,-0.0214 -0.03898,-0.12575 -0.03898,-0.2318 0,-0.24046 0.174578,-0.35965 0.385806,-0.26341 0.163982,0.0747 0.241919,0.32414 0.139751,0.44725 -0.07243,0.0873 -0.413637,0.1209 -0.486579,0.048 z m 42.408763,-0.0741 c -0.08749,-0.16347 -0.07492,-0.26502 0.0464,-0.3748 0.13321,-0.12056 0.323395,-0.12458 0.419418,-0.009 0.09727,0.1172 0.09285,0.38052 -0.0074,0.44406 -0.144788,0.0917 -0.394569,0.0588 -0.458357,-0.0604 z m -60.992383,-0.0552 c -0.183017,-0.0601 -0.593549,-0.27045 -0.912297,-0.46746 -0.318748,-0.19699 -0.624514,-0.35817 -0.67948,-0.35817 -0.05497,0 -0.377102,0.11839 -0.71585,0.2631 -0.551613,0.23562 -0.662854,0.26309 -1.065608,0.26309 -1.391174,0 -1.94668,-0.55955 -2.166314,-2.18206 -0.08074,-0.59647 -0.07909,-2.26456 0.0029,-2.93364 0.07809,-0.63722 0.300701,-1.43302 0.493005,-1.76241 0.369147,-0.63229 1.277278,-1.0068 2.455469,-1.01265 0.546851,-0.002 0.961802,-0.11737 1.83932,-0.50826 0.899845,-0.40083 1.273038,-0.45513 1.741882,-0.25344 0.733633,0.3156 1.063834,1.14649 0.803029,2.02067 -0.176325,0.59102 -0.679679,0.97994 -2.457215,1.8986 -0.578803,0.29914 -1.197073,0.64122 -1.37393,0.76018 -0.399064,0.26842 -0.825085,0.71883 -0.995071,1.05203 -0.125144,0.24531 -0.125735,0.25519 -0.02004,0.33567 0.521727,0.39726 1.780088,0.59307 2.666812,0.41499 0.66808,-0.13417 1.166808,-0.5008 1.059969,-0.77922 -0.05206,-0.13569 -0.223164,-0.0864 -0.245584,0.0707 -0.02296,0.16093 -0.103154,0.16873 -0.18389,0.0179 -0.100464,-0.18772 -0.06882,-0.39426 0.08917,-0.58203 0.382461,-0.45452 1.112951,-0.17984 1.439245,0.54121 0.124464,0.27504 0.135789,0.38051 0.135789,1.26474 0,1.09899 -0.08229,1.46523 -0.386806,1.72146 -0.332778,0.28001 -1.027978,0.37806 -1.524507,0.215 z m 1.162918,-0.33503 c 0.173801,-0.12877 0.426837,-0.46643 0.426837,-0.56958 0,-0.0339 -0.09866,0.0342 -0.219245,0.15133 -0.120583,0.11716 -0.293307,0.24089 -0.383828,0.27496 -0.210432,0.0792 -0.627956,0.079 -1.058168,-4.4e-4 -0.185912,-0.0343 -0.352422,-0.0481 -0.370026,-0.0305 -0.01761,0.0176 0.109941,0.0995 0.283432,0.18194 0.265503,0.1262 0.382071,0.14706 0.736344,0.13181 0.314218,-0.0135 0.462413,-0.0489 0.584654,-0.13945 z m -4.27899,-2.94979 c 0.10825,-0.64071 0.689404,-1.41043 1.490246,-1.97378 0.926858,-0.65199 1.286232,-1.05269 1.286232,-1.43414 0,-0.50201 -0.6159,-0.77959 -1.607791,-0.72461 -1.263634,0.07 -1.864419,0.6306 -2.01768,1.88258 -0.07098,0.57983 -0.04611,0.84104 0.12548,1.31817 0.128336,0.35683 0.573362,1.16929 0.640488,1.16929 0.02359,0 0.06096,-0.10688 0.08302,-0.23751 z m 37.372311,3.3338 c -0.267651,-0.0664 -0.511565,-0.18874 -1.151149,-0.5772 -0.26931,-0.16357 -0.534609,-0.29741 -0.589551,-0.29741 -0.05494,0 -0.346577,0.11182 -0.64808,0.24848 -0.543033,0.24614 -0.554502,0.24847 -1.220534,0.24847 -0.617466,0 -0.699464,-0.0133 -1.004525,-0.16312 -0.406385,-0.19956 -0.641416,-0.45772 -0.798175,-0.87669 -0.290921,-0.77756 -0.415873,-2.20286 -0.305573,-3.48561 0.07943,-0.92371 0.17344,-1.40497 0.387021,-1.98118 0.326681,-0.88134 1.030339,-1.25783 2.528637,-1.35297 0.866421,-0.055 1.032622,-0.10163 2.115873,-0.59352 0.493986,-0.22431 0.603917,-0.25241 0.993905,-0.25405 0.479168,-0.002 0.687091,0.0759 0.988515,0.37059 0.31806,0.31092 0.442338,0.62755 0.438071,1.11611 -0.0092,1.0572 -0.283368,1.33198 -2.480065,2.4859 -1.263311,0.66362 -1.874626,1.06719 -2.152808,1.42123 -0.181457,0.23094 -0.360085,0.55229 -0.360085,0.64778 0,0.11156 0.510769,0.3579 0.997068,0.48087 1.195214,0.30224 2.803166,-0.0738 2.803166,-0.65558 0,-0.23212 -0.169389,-0.27382 -0.213634,-0.0526 -0.06088,0.30437 -0.254087,0.15908 -0.254087,-0.19106 0,-0.46298 0.491887,-0.68671 0.978449,-0.44505 0.583234,0.28969 0.811373,0.92147 0.757065,2.09655 -0.06503,1.40701 -0.297931,1.73665 -1.297027,1.83572 -0.160778,0.0159 -0.391394,0.004 -0.512477,-0.0257 z m 0.908995,-0.31166 c 0.223963,-0.0954 0.420461,-0.29767 0.50435,-0.5191 0.0335,-0.0884 0.05269,-0.16078 0.04264,-0.16078 -0.01005,0 -0.127091,0.10352 -0.260098,0.23005 -0.181896,0.17303 -0.30906,0.24012 -0.513111,0.27072 -0.258752,0.0388 -0.78005,0.008 -1.121843,-0.0662 l -0.159296,-0.0346 0.146163,0.12145 c 0.08039,0.0668 0.225092,0.14543 0.321559,0.17474 0.269306,0.0818 0.829963,0.073 1.039633,-0.0164 z m -4.147144,-3.06395 c 0.04934,-0.30858 0.339972,-0.86521 0.623068,-1.19334 0.130079,-0.15077 0.492354,-0.46343 0.805056,-0.69481 0.93296,-0.69035 1.357828,-1.14636 1.357828,-1.45736 0,-0.24046 -0.177629,-0.47517 -0.457256,-0.6042 -0.233323,-0.10767 -0.376746,-0.12591 -0.975139,-0.12399 -0.58616,0.002 -0.755898,0.0238 -1.03174,0.1333 -0.688149,0.27318 -1.033678,0.74602 -1.165971,1.59558 -0.101927,0.65455 -0.03933,1.15421 0.210715,1.68199 0.28931,0.61065 0.493604,0.95062 0.550215,0.91564 0.02612,-0.0162 0.06357,-0.12991 0.08322,-0.25281 z m 47.087,3.37342 c -0.26044,-0.0621 -0.48669,-0.17539 -1.1485,-0.57531 -0.27041,-0.16341 -0.53676,-0.29711 -0.59188,-0.29711 -0.0551,0 -0.3469,0.11182 -0.648403,0.24848 -0.544266,0.2467 -0.552992,0.24846 -1.220536,0.24681 -0.614459,-0.002 -0.701186,-0.0157 -1.007281,-0.16443 -0.582058,-0.28288 -0.842556,-0.73933 -1.019496,-1.78639 -0.115466,-0.68329 -0.130284,-2.43858 -0.0267,-3.16321 0.147514,-1.03199 0.409273,-1.73538 0.776643,-2.08697 0.405713,-0.38829 1.288435,-0.65441 2.185379,-0.65886 0.548304,-0.002 0.963704,-0.11788 1.839314,-0.50995 0.84682,-0.37917 1.17389,-0.43519 1.63895,-0.28073 0.39341,0.13067 0.77564,0.51828 0.91,0.92278 0.0733,0.22074 0.0877,0.39432 0.0586,0.70745 -0.0857,0.92166 -0.37793,1.18338 -2.67161,2.39236 -1.324258,0.69801 -1.743679,0.99441 -2.060142,1.45587 -0.319054,0.46526 -0.309286,0.56023 0.07793,0.75772 0.538831,0.27481 0.987302,0.35794 1.752442,0.32483 1.04413,-0.0452 1.697,-0.32807 1.697,-0.73532 0,-0.24555 -0.16775,-0.29573 -0.21409,-0.064 -0.0409,0.20475 -0.14304,0.1979 -0.21818,-0.0147 -0.11023,-0.3118 0.10958,-0.65747 0.45987,-0.72318 0.41722,-0.0783 0.88841,0.27172 1.10064,0.81756 0.14621,0.37604 0.19638,1.2953 0.10695,1.9598 -0.0852,0.63278 -0.24468,0.92755 -0.59207,1.09408 -0.30375,0.1456 -0.86589,0.20843 -1.18483,0.13242 z m 1.05031,-0.38182 c 0.18515,-0.13719 0.42684,-0.46866 0.42684,-0.5854 0,-0.0426 -0.11544,0.0379 -0.25653,0.17901 -0.22228,0.22229 -0.30033,0.262 -0.58465,0.29753 -0.35097,0.0438 -0.93476,-0.008 -1.10279,-0.0974 -0.16475,-0.0879 -0.12024,0.0412 0.0534,0.15502 0.24722,0.16198 0.429,0.20045 0.87907,0.18602 0.31961,-0.0102 0.46031,-0.0427 0.58465,-0.1348 z m -4.308838,-2.88893 c 0,-0.22157 0.240374,-0.73775 0.519023,-1.11453 0.192436,-0.26022 0.471849,-0.52476 0.862135,-0.81627 0.8626,-0.64429 1.12572,-0.87862 1.28285,-1.1425 0.26841,-0.45074 0.13802,-0.80282 -0.36988,-0.99878 -0.41859,-0.16152 -1.505663,-0.14666 -1.943337,0.0266 -0.665526,0.26338 -0.982904,0.67156 -1.143631,1.47082 -0.171648,0.85357 -0.05916,1.42671 0.463459,2.36123 0.209997,0.37552 0.329381,0.45289 0.329381,0.21348 z m -50.315481,3.22153 c -0.139497,-0.0384 -0.548173,-0.30771 -0.54878,-0.36162 -2.21e-4,-0.0194 0.119041,-0.11087 0.265025,-0.20314 0.149062,-0.0942 0.347706,-0.29597 0.453104,-0.46019 l 0.18768,-0.2924 0.01615,-2.99378 0.01615,-2.99377 -0.355641,-0.1596 c -0.453178,-0.20337 -0.524396,-0.30761 -0.524396,-0.76755 0,-0.70693 0.317559,-0.7761 1.356792,-0.29558 0.656084,0.30336 0.664724,0.30548 1.367499,0.3362 0.738556,0.0323 0.900548,0.0869 0.900548,0.3039 0,0.16086 -0.265402,0.38493 -0.594288,0.50174 l -0.282689,0.10041 v 2.8575 2.8575 l 0.185491,0.34802 c 0.10202,0.19141 0.31375,0.46333 0.47051,0.60428 l 0.285022,0.25625 -0.136942,0.0897 c -0.408202,0.26746 -0.564784,0.24673 -1.239131,-0.1641 -0.191042,-0.11638 -0.379726,-0.2116 -0.419296,-0.2116 -0.03957,0 -0.251592,0.12126 -0.47116,0.26947 -0.453643,0.30621 -0.752626,0.42762 -0.931641,0.37833 z m 30.809944,-0.0661 c -0.230903,-0.1097 -0.431071,-0.24992 -0.431071,-0.30197 0,-0.0159 0.119441,-0.10443 0.265425,-0.1967 0.149063,-0.0942 0.347707,-0.29597 0.453105,-0.46019 l 0.187679,-0.2924 0.01615,-2.99378 0.01615,-2.99377 -0.35564,-0.1596 c -0.450765,-0.20229 -0.524397,-0.30864 -0.524397,-0.75735 0,-0.3034 0.02152,-0.37704 0.143704,-0.49183 0.204078,-0.19172 0.505837,-0.14215 1.259459,0.20688 0.603453,0.2795 0.625902,0.28485 1.321126,0.3153 0.733965,0.0322 0.90055,0.0874 0.90055,0.29852 0,0.16652 -0.256892,0.38359 -0.581595,0.49144 l -0.295382,0.0981 v 2.85075 2.85076 l 0.178765,0.35774 c 0.105525,0.21117 0.29715,0.46418 0.467722,0.61754 0.158924,0.14288 0.288954,0.27227 0.288954,0.28751 0,0.0153 -0.13294,0.0849 -0.295422,0.15481 -0.342979,0.14754 -0.408471,0.13552 -0.932345,-0.17116 -0.572643,-0.33522 -0.568666,-0.33522 -1.064849,-10e-6 -0.56756,0.38343 -0.725594,0.42835 -1.01808,0.2894 z m 11.880015,0.028 c -0.18305,-0.18306 -0.06312,-0.49278 0.190815,-0.49278 0.206174,0 0.301963,0.0969 0.301963,0.30547 0,0.12348 -0.03784,0.17953 -0.149969,0.22216 -0.200462,0.0762 -0.235278,0.0727 -0.342809,-0.0349 z m -49.709786,-0.11929 c -0.102105,-0.0503 -0.233651,-0.14568 -0.292325,-0.21183 -0.09096,-0.10257 -0.09376,-0.12458 -0.01898,-0.14938 0.153784,-0.051 0.50098,-0.45379 0.632675,-0.73395 0.125235,-0.26643 0.127371,-0.31733 0.127371,-3.03569 0,-3.02874 0.01577,-2.88535 -0.34869,-3.16938 -0.457571,-0.35658 -0.638276,-0.706 -0.522538,-1.01042 0.06926,-0.18216 0.307115,-0.41184 0.504045,-0.48671 0.183308,-0.0697 0.531778,0.0789 1.04643,0.44611 0.657898,0.46947 0.97087,0.53873 1.308569,0.28958 0.254133,-0.18749 0.428585,-0.18512 0.580407,0.008 0.182096,0.23149 0.154901,0.40014 -0.09496,0.58889 -0.529056,0.39965 -0.598486,0.49977 -0.594218,0.85689 0.0027,0.22674 0.02728,0.32952 0.07878,0.32952 0.107505,0 0.439681,-0.3846 0.763593,-0.8841 0.422038,-0.65083 0.78281,-1.09191 1.005823,-1.22974 0.174524,-0.10786 0.260084,-0.11974 0.663318,-0.0921 0.548285,0.0376 0.850409,0.17348 1.017465,0.45769 0.102149,0.17377 0.116306,0.2987 0.111993,0.9882 -0.0042,0.67356 -0.02394,0.83572 -0.134571,1.10606 -0.194361,0.47495 -0.313389,0.61067 -0.962051,1.09697 -0.739685,0.55453 -0.703449,0.52069 -0.650069,0.60706 0.03364,0.0544 0.06317,0.0472 0.118889,-0.029 0.06949,-0.095 0.07808,-0.094 0.137238,0.0165 0.08111,0.15156 0.08037,0.15844 -0.02877,0.26759 -0.05053,0.0505 -0.18061,0.0919 -0.289065,0.0919 -0.504065,0 -0.703869,-0.57973 -0.418763,-1.21503 0.283686,-0.63214 0.251755,-1.00502 -0.100525,-1.17393 -0.14988,-0.0719 -0.205149,-0.0638 -0.569439,0.0828 -0.427215,0.17199 -0.486082,0.18226 -0.651593,0.11367 -0.09913,-0.0411 -0.103407,0.0733 -0.0877,2.34626 l 0.01651,2.38944 0.151902,0.29233 c 0.08957,0.17237 0.262663,0.37563 0.421843,0.49534 l 0.269943,0.20302 -0.123501,0.13146 c -0.164097,0.17467 -0.471692,0.27055 -0.705773,0.21998 -0.104395,-0.0225 -0.373975,-0.11367 -0.599067,-0.20248 -0.49831,-0.19661 -0.785292,-0.17169 -1.234233,0.10716 -0.347468,0.21582 -0.295713,0.2069 -0.52997,0.0914 z m 4.276221,-6.56178 c 0.04855,-0.22103 -0.08582,-0.30791 -0.28347,-0.18328 -0.06809,0.0429 -0.182601,0.10887 -0.254465,0.14653 -0.143419,0.0752 -0.116662,0.14466 0.05569,0.14466 0.07184,0 0.141711,0.0755 0.200825,0.21696 l 0.09065,0.21697 0.07512,-0.17866 c 0.04132,-0.0983 0.09336,-0.26169 0.115647,-0.36318 z m 37.87277,6.53194 c -0.168818,-0.0649 -0.305943,-0.13586 -0.304724,-0.15773 0.0013,-0.0219 0.09988,-0.10774 0.219246,-0.19083 0.120002,-0.0835 0.315039,-0.31817 0.436269,-0.52485 l 0.219244,-0.3738 v -4.33971 -4.33971 l -0.136445,-0.1342 c -0.07504,-0.0738 -0.298672,-0.25915 -0.496951,-0.41186 -0.262843,-0.20242 -0.36051,-0.31532 -0.36051,-0.4167 0,-0.30928 0.305943,-0.34043 0.633825,-0.0645 0.26132,0.21989 0.707359,0.39744 0.987766,0.3932 0.171353,-0.002 0.364769,-0.0688 0.623738,-0.21366 0.711147,-0.3977 0.644045,-0.86716 0.677926,4.74284 l 0.02923,4.84014 0.242979,0.35411 c 0.133641,0.19476 0.337358,0.41839 0.452708,0.49695 0.115348,0.0786 0.209903,0.16067 0.210124,0.18246 9.09e-4,0.0918 -0.320815,0.28195 -0.477084,0.28195 -0.218447,0 -0.519038,-0.12685 -0.789558,-0.33318 -0.188449,-0.14374 -0.265344,-0.16377 -0.628525,-0.16377 -0.393628,0 -0.430663,0.0121 -0.759498,0.24847 -0.190132,0.13666 -0.374295,0.24711 -0.409257,0.24543 -0.03496,-0.002 -0.201687,-0.0561 -0.370506,-0.12101 z m 21.065425,-6.1e-4 -0.15856,-0.12473 0.23985,-0.24439 c 0.47201,-0.48095 0.47077,-0.47116 0.47077,-3.69577 v -2.84368 l -0.37212,-0.34331 c -0.34822,-0.32125 -0.37451,-0.3636 -0.40922,-0.65893 -0.0457,-0.38925 -0.0175,-0.46683 0.224,-0.61612 0.29415,-0.18179 0.44174,-0.14913 0.92673,0.20505 0.72685,0.53081 0.96439,0.58649 1.625,0.38088 0.45685,-0.14218 0.66577,-0.0789 0.66577,0.2015 0,0.1424 -0.0649,0.22483 -0.36541,0.46404 -0.35607,0.28347 -0.3654,0.29799 -0.3654,0.56846 v 0.27755 l 0.19001,-0.0646 c 0.28858,-0.0981 0.3533,-0.15272 1.35931,-1.14767 0.7622,-0.75382 1.0084,-0.9609 1.32939,-1.1181 0.32588,-0.15962 0.44014,-0.18774 0.66137,-0.1628 0.46241,0.0521 0.65917,0.31555 0.82098,1.09921 0.0865,0.41902 0.10711,0.96744 0.13597,3.62168 l 0.034,3.12789 0.15884,0.30117 c 0.14754,0.27974 0.27854,0.41833 0.55103,0.58299 0.10566,0.0639 0.10559,0.0691 -0.003,0.19001 -0.15395,0.17189 -0.35523,0.15567 -0.7656,-0.0617 -0.28983,-0.15351 -0.43427,-0.19031 -0.83104,-0.21172 -0.43718,-0.0236 -0.50771,-0.0116 -0.78646,0.1342 -0.35629,0.1863 -0.65001,0.20092 -0.9495,0.0473 l -0.20825,-0.10684 0.27157,-0.20383 c 0.15725,-0.11802 0.34761,-0.33921 0.45218,-0.52539 l 0.18061,-0.32156 0.0185,-2.16321 c 0.0102,-1.18977 0.001,-2.28002 -0.0199,-2.42278 -0.0471,-0.31868 -0.32354,-0.62064 -0.6167,-0.6737 -0.21502,-0.0389 -0.76014,0.0879 -1.38233,0.32166 -0.35373,0.13287 -0.36651,0.13364 -0.48234,0.0288 l -0.11899,-0.10768 v 2.49616 c 0,2.36041 0.006,2.50833 0.11414,2.71989 0.15886,0.31139 0.39351,0.57753 0.60613,0.68748 l 0.18014,0.0932 -0.16989,0.14613 c -0.15631,0.13446 -0.20282,0.14358 -0.58175,0.1141 -0.22652,-0.0176 -0.53025,-0.0862 -0.67495,-0.1524 -0.37147,-0.16997 -0.62204,-0.15259 -1.17752,0.0817 -0.26685,0.11254 -0.51533,0.20462 -0.55216,0.20462 -0.0368,0 -0.13833,-0.0561 -0.22554,-0.12472 z m 6.49908,-7.73484 c -0.0416,-0.4031 -0.1817,-0.69975 -0.37126,-0.78611 -0.19378,-0.0883 -0.51734,-0.002 -0.75239,0.20144 -0.11087,0.0958 -0.13587,0.13904 -0.068,0.11752 0.26401,-0.0837 0.55835,-0.0999 0.67546,-0.0372 0.0694,0.0371 0.20633,0.23724 0.30435,0.44471 0.098,0.20747 0.19316,0.37722 0.21141,0.37722 0.0182,0 0.0184,-0.14291 4.4e-4,-0.31757 z m -4.81132,-0.40984 c -0.0502,-0.20017 4.4e-4,-0.3124 0.17789,-0.39321 0.20514,-0.0935 0.39492,0.0749 0.37012,0.32835 -0.0161,0.16456 -0.0366,0.17977 -0.264,0.19627 -0.22221,0.0161 -0.25024,0.003 -0.28401,-0.13141 z m -84.846075,-0.0443 c -0.03859,-0.0386 -0.07016,-0.13856 -0.07016,-0.22217 0,-0.18642 0.09803,-0.29232 0.270609,-0.29232 0.170342,0 0.314041,0.1481 0.314041,0.32367 0,0.22006 -0.353975,0.35134 -0.514492,0.19082 z m 34.106887,-0.0217 c -0.05053,-0.0505 -0.09188,-0.1236 -0.09188,-0.16239 0,-0.14063 0.18468,-0.33039 0.321558,-0.33039 0.136878,0 0.321559,0.18976 0.321559,0.33039 0,0.11633 -0.174445,0.25426 -0.321559,0.25426 -0.07579,0 -0.179154,-0.0414 -0.229683,-0.0919 z m 43.898007,0.0471 c -0.206956,-0.13978 -0.07317,-0.53991 0.180525,-0.53991 0.136876,0 0.321556,0.18976 0.321556,0.33039 0,0.18637 -0.331536,0.32472 -0.502081,0.20952 z m -18.352923,-0.34837 c -0.230388,-0.0567 -0.819299,-0.32359 -0.96369,-0.43678 -0.582284,-0.45651 -0.210207,-1.3123 0.513666,-1.18145 0.34589,0.0625 0.94046,0.35498 1.12645,0.55408 0.297303,0.31826 0.186274,0.85751 -0.210711,1.02338 -0.204161,0.0853 -0.263518,0.0905 -0.465715,0.0408 z m -30.752658,-1.56976 c -0.234145,-0.0578 -0.904854,-0.10386 -2.017046,-0.13844 -2.304833,-0.0717 -3.419944,-0.22382 -4.573596,-0.62409 -0.892663,-0.30971 -1.255833,-0.52383 -2.598208,-1.53183 -1.324074,-0.99426 -1.853598,-1.32126 -2.673825,-1.6512 -1.101135,-0.44293 -1.873719,-0.54695 -4.747208,-0.63919 -1.927944,-0.0619 -2.519397,-0.11479 -3.27918,-0.29331 -0.977357,-0.22965 -1.700663,-0.62675 -2.290917,-1.25774 -0.550292,-0.58826 -0.826049,-1.29284 -0.826049,-2.11064 v -0.42106 l -0.248476,-0.0379 c -1.044314,-0.15935 -2.159243,-0.39947 -3.844084,-0.8279 -1.077218,-0.27392 -2.365003,-0.60092 -2.861743,-0.72667 -2.777857,-0.7032 -4.913754,-0.97406 -7.194259,-0.91234 -1.947836,0.0527 -3.037037,0.26112 -5.2326302,1.0012 -0.707428,0.23846 -1.73349,0.55485 -2.28014,0.70308 -2.634839,0.71449 -3.566573,1.20659 -4.01705,2.12165 -0.174498,0.35445 -0.192439,0.44006 -0.192439,0.91831 0,0.45826 0.02217,0.57541 0.169074,0.89351 0.31233,0.67629 0.832729,1.01547 1.614112,1.05202 0.454967,0.0213 0.524122,0.009 0.818512,-0.14201 0.271753,-0.13967 0.371757,-0.24107 0.645646,-0.65466 0.380889,-0.57517 0.610341,-0.79596 0.915181,-0.88061 0.336997,-0.0936 0.543607,-0.075 0.873253,0.0785 0.679153,0.31623 1.048881,1.40272 0.815463,2.39633 -0.466212,1.98457 -2.59094,2.76378 -4.740402,1.73848 -1.015375,-0.48434 -1.773985,-1.30569 -2.167094,-2.34634 -0.155205,-0.41086 -0.165827,-0.49558 -0.168579,-1.3447 -0.0026,-0.81247 0.0143,-0.97272 0.163674,-1.54932 0.528502,-2.04008 1.953265,-4.80057 3.36456,-6.51886 2.20921,-2.68979 6.2823592,-5.23634 9.7684102,-6.10726 1.151348,-0.28764 1.65901,-0.34813 2.924498,-0.34845 1.388568,-4.5e-4 1.550451,0.0296 3.322113,0.61371 1.210543,0.39916 1.945025,0.57702 2.390427,0.57887 0.167485,6.1e-4 0.693671,-0.0795 1.169303,-0.17811 1.159186,-0.24045 1.739841,-0.2404 2.881832,2.1e-4 0.466261,0.0983 0.975243,0.17876 1.131073,0.17889 0.408088,4.4e-4 0.862611,-0.14893 1.25858,-0.41335 0.404081,-0.26983 0.62054,-0.53438 0.805887,-0.98492 0.342013,-0.83137 0.0019,-1.59809 -0.953359,-2.14958 -0.252242,-0.14561 -0.296007,-0.1872 -0.166668,-0.15836 0.5884,0.13118 1.219622,0.49158 1.451648,0.82883 0.220476,0.32047 0.273073,0.50233 0.273073,0.94422 0,0.54242 -0.274179,1.10207 -0.745882,1.5225 -0.557098,0.49653 -1.015937,0.6196 -2.615863,0.70166 -1.489436,0.0764 -1.890648,0.22714 -2.147051,0.80679 -0.395586,0.89428 0.206835,2.02879 1.387006,2.61206 1.408532,0.69614 2.351749,0.52852 5.713359,-1.0153 0.634194,-0.29126 1.449783,-0.63182 1.812419,-0.75681 1.631513,-0.56233 4.261667,-1.11071 6.681247,-1.39302 1.270262,-0.14821 4.617977,-0.14832 5.612654,-1.9e-4 2.462129,0.36669 4.151478,1.05979 5.370915,2.20357 0.363028,0.34051 0.972551,1.07055 0.972551,1.16485 0,0.0201 -0.230207,0.0839 -0.511569,0.14185 -0.855041,0.17597 -2.34555,0.66379 -3.019647,0.98828 -0.935408,0.45027 -1.039059,0.43253 -2.256832,-0.38631 -2.517741,-1.69294 -6.862627,-2.12389 -11.219479,-1.11283 -1.060388,0.24607 -1.844636,0.50472 -3.162944,1.04315 -2.256302,0.92152 -3.02591,1.14032 -4.167665,1.18487 -0.957568,0.0374 -1.33542,-0.0253 -2.000405,-0.3319 -0.599164,-0.27624 -1.122543,-0.68814 -1.563304,-1.23033 -0.07,-0.0861 -0.128838,-0.11835 -0.143201,-0.0785 -0.05496,0.15262 -0.404557,0.63411 -0.676329,0.93147 -0.341072,0.37319 -1.139382,0.92158 -1.882362,1.29308 -0.290921,0.14546 -0.54018,0.27486 -0.553909,0.28756 -0.06747,0.0624 0.853576,0.57268 1.398894,0.77501 0.386184,0.1433 2.59933,0.77626 3.215582,0.91966 0.241169,0.0561 0.675272,0.10315 0.964675,0.10448 0.461184,0.002 0.562298,-0.0168 0.818512,-0.15385 0.160779,-0.086 0.47649,-0.3298 0.701581,-0.54186 0.225091,-0.21206 0.509177,-0.45121 0.631304,-0.53144 0.502868,-0.33036 1.284629,-0.30541 2.213432,0.0706 l 0.510094,0.20653 0.222702,-0.10322 c 0.122486,-0.0567 0.457714,-0.33753 0.74495,-0.62392 0.717144,-0.71501 0.705266,-0.70873 1.248119,-0.66051 1.253592,0.11136 2.22754,0.55764 3.098974,1.42 0.350306,0.34665 1.06487,1.22922 1.06487,1.31522 0,0.0168 -0.361753,0.0455 -0.803896,0.064 -1.150354,0.048 -1.909714,0.22349 -4.34405,1.00396 -0.435762,0.13971 -1.106649,0.32744 -1.490861,0.41717 -0.623411,0.1456 -0.811789,0.16349 -1.75094,0.16632 -0.578804,0.002 -1.139547,-0.0162 -1.246095,-0.04 -0.180401,-0.0402 -0.19125,-0.0342 -0.157766,0.0877 0.08841,0.32166 0.533296,1.11597 0.819158,1.46253 0.678098,0.82209 1.612069,1.35471 2.864844,1.63373 0.460705,0.10261 0.846314,0.12282 3.098651,0.16246 2.252337,0.0396 2.637947,0.0598 3.098653,0.16245 1.214291,0.27045 1.884889,0.62995 3.710973,1.98935 1.151173,0.85697 1.575414,1.1305 2.246287,1.4483 1.077932,0.51062 2.041218,0.66451 4.211209,0.67275 0.709883,0.002 1.593253,0.0242 1.963045,0.0477 0.470144,0.0299 0.714022,0.0224 0.810914,-0.0248 0.07621,-0.0372 0.273528,-0.24937 0.438487,-0.47154 0.360074,-0.48495 0.715514,-0.69856 1.056063,-0.63468 0.509063,0.0955 0.888248,0.58944 0.825696,1.07558 -0.04745,0.36872 -0.240867,0.62207 -0.61716,0.80837 -0.29245,0.1448 -0.387713,0.16029 -1.052372,0.17114 -0.486445,0.008 -0.84811,-0.017 -1.081605,-0.0747 z M 5.1160468,37.902306 c 0.739587,-0.12163 1.444438,-0.3207 2.489127,-0.70302 2.4980112,-0.91418 3.0666062,-1.10888 3.7726032,-1.29186 0.421304,-0.10919 1.026419,-0.23778 1.344698,-0.28575 0.738639,-0.11133 2.190705,-0.11098 3.326551,6.1e-4 2.798471,0.27538 3.699251,0.16243 5.013074,-0.62862 1.314489,-0.79145 2.17218,-1.81451 2.251126,-2.68515 0.03676,-0.40542 -0.05856,-0.58939 -0.373603,-0.72103 -0.45141,-0.18861 -0.686453,-0.10868 -1.490646,0.50686 -0.38052,0.29125 -0.580171,0.40267 -0.809831,0.45192 -0.727348,0.15599 -1.406499,-0.33754 -1.546239,-1.12364 -0.08769,-0.49332 0.228658,-1.25639 0.615644,-1.48498 0.09347,-0.0552 0.169942,-0.1203 0.169942,-0.14462 0,-0.12645 -1.296832,-0.37225 -2.479124,-0.4699 -2.228679,-0.18408 -4.849145,0.48159 -7.4273942,1.88674 -2.77739,1.51369 -4.860252,3.43539 -5.526253,5.09864 -0.196092,0.48972 -0.308933,1.13619 -0.255641,1.46459 0.03172,0.19546 0.05242,0.216 0.217417,0.21579 0.100299,-1.3e-4 0.419146,-0.0392 0.708549,-0.0868 z m 24.5673692,-0.0912 c 0.466227,-0.10871 1.420381,-0.46163 1.420381,-0.52537 0,-0.0877 -0.616093,-0.24679 -1.063396,-0.27458 -0.768933,-0.0478 -1.346026,0.18179 -1.630759,0.64874 -0.197218,0.32343 -0.167024,0.3505 0.339717,0.30458 0.248538,-0.0225 0.668864,-0.0915 0.934057,-0.15337 z m 15.296587,5.76282 c -0.586912,-0.10651 -0.962166,-0.23755 -1.568211,-0.54763 -1.728128,-0.8842 -3.012039,-2.55773 -3.012039,-3.92608 0,-0.2561 -0.0184,-0.28529 -0.425329,-0.67468 -0.233931,-0.22385 -0.782017,-0.80164 -1.21797,-1.28398 -1.540673,-1.7046 -2.484407,-2.30962 -3.925505,-2.51662 -0.15274,-0.0219 -0.277709,-0.061 -0.277709,-0.0869 0,-0.0731 0.55996,-0.17837 1.142125,-0.21475 0.967514,-0.0604 1.881625,0.22103 2.721246,0.83795 0.206443,0.15169 0.651599,0.56663 0.989235,0.9221 2.000326,2.10597 2.164155,2.23269 3.449442,2.66821 0.98495,0.33376 1.315737,0.50139 1.651959,0.83716 0.156392,0.15619 0.27367,0.29466 0.260615,0.30771 -0.01306,0.0131 -0.126435,-0.0194 -0.251958,-0.0722 -0.160683,-0.0675 -0.530998,-0.1109 -1.25136,-0.14654 -1.138395,-0.0563 -1.571224,-0.1244 -1.863636,-0.29308 -0.108559,-0.0626 -0.206206,-0.10504 -0.216994,-0.0943 -0.03968,0.0397 0.786994,0.96357 1.092734,1.22123 0.731024,0.6161 1.515043,1.04333 2.367963,1.29037 0.401108,0.11619 0.587979,0.13323 1.426259,0.13009 0.880345,-0.003 1.010567,-0.0177 1.489629,-0.1644 1.067244,-0.3269 1.877775,-0.75526 3.469572,-1.83365 0.492729,-0.33381 0.91935,-0.5988 0.948045,-0.58887 0.02869,0.01 -0.03243,0.26906 -0.135826,0.57582 -0.767437,2.27684 -3.049666,3.75524 -5.764462,3.73415 -0.373619,-0.003 -0.867641,-0.0394 -1.097825,-0.0812 z m 27.687926,-4.5e-4 c -2.339826,-0.44321 -4.044886,-1.86868 -4.613494,-3.85701 -0.09612,-0.33612 -0.09948,-0.38793 -0.02327,-0.35869 0.049,0.0188 0.588754,0.36557 1.199459,0.77061 1.656091,1.09834 2.705937,1.58812 3.820091,1.78214 0.582456,0.10143 1.761277,0.0389 2.311184,-0.12268 1.202506,-0.35324 2.297579,-1.08809 3.120615,-2.09408 0.355261,-0.43424 0.413239,-0.55149 0.183227,-0.37057 -0.248398,0.19539 -0.82175,0.3006 -1.929911,0.35411 -0.748963,0.0361 -1.118171,0.0785 -1.280593,0.1469 -0.125523,0.0528 -0.242033,0.0823 -0.258914,0.0654 -0.06455,-0.0646 0.57206,-0.60415 0.890501,-0.7548 0.183553,-0.0868 0.675423,-0.27228 1.093046,-0.41209 0.417621,-0.13983 0.906601,-0.34229 1.086618,-0.44991 0.417825,-0.24981 1.073418,-0.86361 1.838666,-1.72146 1.508355,-1.69088 2.65518,-2.30992 4.131011,-2.22984 0.585654,0.0318 1.181735,0.13826 1.181735,0.21111 0,0.0228 -0.230207,0.0853 -0.511568,0.13898 -1.275233,0.2432 -2.190323,0.82242 -3.403221,2.15411 -0.827827,0.90889 -1.334767,1.43963 -1.649276,1.72668 -0.258759,0.23617 -0.265211,0.25081 -0.297276,0.67477 -0.108311,1.43212 -1.370108,2.99431 -3.113055,3.85417 -0.846528,0.41762 -1.330654,0.52825 -2.426304,0.55444 -0.62618,0.015 -1.04312,-0.004 -1.349273,-0.0623 z m -13.249597,-0.61922 c -0.475667,-0.42543 -0.795991,-0.59565 -1.800598,-0.95687 -2.298242,-0.82636 -2.674376,-1.03866 -3.669977,-2.07144 -0.537049,-0.5571 -0.893777,-1.06115 -1.241852,-1.75472 l -0.210592,-0.41962 0.190075,-0.24651 c 0.104541,-0.13559 0.324371,-0.40438 0.488508,-0.59731 0.93928,-1.10407 1.560187,-2.14435 1.849471,-3.09866 0.171146,-0.56457 0.217347,-2.13719 0.08783,-2.98948 -0.160535,-1.05638 -0.608885,-2.23515 -1.171608,-3.08032 -0.281731,-0.42314 -0.998471,-1.19048 -1.320277,-1.4135 -0.289061,-0.20031 -0.286621,-0.23421 0.06947,-0.9649 0.555469,-1.13982 1.903597,-2.07183 3.352166,-2.31748 0.750489,-0.12726 1.455073,-0.0532 2.117359,0.22248 0.399498,0.16632 0.981295,0.56322 1.168928,0.79745 0.03986,0.0498 0.08648,0.0765 0.103598,0.0593 0.08924,-0.0892 0.202042,-0.91671 0.202933,-1.48859 0.0018,-1.08368 -0.253664,-2.0778 -0.915033,-3.56236 -0.178199,-0.4 -0.310322,-0.76292 -0.293606,-0.80647 0.05651,-0.14728 0.548812,-0.21253 1.60095,-0.2122 1.043277,2.2e-4 1.459961,0.0559 1.516094,0.20217 0.01653,0.0431 -0.113546,0.40318 -0.289042,0.80026 -0.385837,0.87298 -0.70006,1.7864 -0.831617,2.41745 -0.133141,0.63864 -0.135373,1.63421 -0.0049,2.20706 0.05674,0.2492 0.111199,0.4531 0.121021,0.4531 0.0098,0 0.127856,-0.10055 0.262299,-0.22344 0.529512,-0.48402 1.151392,-0.77001 1.940656,-0.89247 1.331942,-0.20666 3.062498,0.47024 4.015798,1.57076 0.306349,0.35366 0.653505,0.94676 0.770173,1.31582 0.06673,0.21109 0.06229,0.22722 -0.09603,0.34845 -0.453533,0.34729 -1.065498,1.01025 -1.416885,1.53495 -0.830672,1.24039 -1.241821,2.67444 -1.247602,4.35153 -0.006,1.74506 0.41323,2.74962 1.946914,4.66503 l 0.759368,0.94837 -0.213365,0.42369 c -0.336321,0.66784 -0.707072,1.1916 -1.239705,1.7513 -0.814468,0.85587 -1.458947,1.27109 -2.613428,1.68375 -2.080079,0.74352 -2.314938,0.85403 -2.854745,1.34322 -0.518196,0.46961 -0.607792,0.46962 -1.132704,1.5e-4 z m 1.983225,-2.12469 c 2.100878,-0.42583 4.0466,-1.38387 5.132682,-2.52722 0.224776,-0.23664 0.408683,-0.4523 0.408683,-0.47927 0,-0.0269 -0.111814,-0.0825 -0.248477,-0.12334 -0.61588,-0.18417 -1.327799,-0.64652 -1.918469,-1.24593 -0.776519,-0.78801 -1.359791,-1.83449 -1.676282,-3.00751 -0.139113,-0.5156 -0.15485,-0.67738 -0.158063,-1.62498 -0.0039,-1.13793 0.07442,-1.59812 0.41485,-2.43892 0.360262,-0.88976 1.235984,-1.87192 2.542954,-2.85202 0.39706,-0.29776 0.733662,-0.55192 0.748001,-0.5648 0.01434,-0.0129 -0.169827,-0.22218 -0.409258,-0.46511 -1.469246,-1.49069 -3.076288,-1.89377 -4.386979,-1.10034 -0.587411,0.3556 -1.215975,1.15935 -1.634367,2.0899 -0.111115,0.24713 -0.215181,0.44933 -0.231259,0.44933 -0.01609,0 -0.118272,-0.19804 -0.227096,-0.44008 -0.410729,-0.91352 -1.040427,-1.71841 -1.643789,-2.10112 -0.990134,-0.62804 -2.260867,-0.50569 -3.507908,0.33774 -0.268625,0.18168 -1.286232,1.14039 -1.286232,1.21178 0,0.0217 0.164433,0.15325 0.365406,0.29238 0.833014,0.57666 1.741102,1.38674 2.217316,1.97801 0.434876,0.53995 0.751434,1.18383 0.966673,1.96623 0.148835,0.541 0.160568,0.66321 0.157174,1.63702 -0.0033,0.95763 -0.01803,1.10501 -0.163193,1.63702 -0.332941,1.22022 -0.908209,2.23486 -1.724963,3.04245 -0.515378,0.50959 -1.290987,1.01769 -1.79697,1.17719 -0.172574,0.0544 -0.31377,0.12343 -0.31377,0.15341 0,0.03 0.203897,0.26455 0.453105,0.52126 0.437504,0.45069 1.205001,1.00894 1.8855,1.37144 1.085609,0.57829 2.58171,1.03906 4.121793,1.26942 0.358631,0.0537 1.191657,-0.0177 1.912938,-0.16394 z m -14.716802,-1.64632 c -0.833519,-0.11538 -1.210824,-0.20202 -2.299512,-0.52805 -0.685926,-0.20542 -1.291041,-0.37389 -1.344697,-0.37438 -0.05366,-4.4e-4 -0.135977,-0.0252 -0.182933,-0.0549 -0.218743,-0.13836 0.399959,-0.49043 1.034995,-0.58896 0.307969,-0.0478 0.62338,-0.0482 1.173969,-0.002 1.007718,0.0855 1.910542,0.088 2.304022,0.006 0.412744,-0.0857 0.814502,-0.34102 1.016228,-0.64585 0.158032,-0.2388 0.158184,-0.24006 0.04675,-0.38876 -0.06271,-0.0837 -0.240162,-0.19165 -0.404122,-0.24589 -0.173522,-0.0574 -0.292326,-0.13147 -0.292326,-0.18224 0,-0.16515 1.359503,-0.52073 3.683303,-0.96337 0.610959,-0.11638 1.258237,-0.24592 1.438394,-0.28787 l 0.327558,-0.0763 -0.506179,0.50189 c -0.278399,0.27604 -0.741513,0.8166 -1.02914,1.20125 -1.147334,1.53433 -1.901423,2.12882 -3.155088,2.48733 -0.394267,0.11275 -1.43209,0.19363 -1.811221,0.14115 z m 25.314029,-0.0197 c -0.943765,-0.15189 -1.816261,-0.58344 -2.513047,-1.24301 -0.267823,-0.25351 -0.640387,-0.66384 -0.827917,-0.91185 -0.773294,-1.02264 -1.19864,-1.53286 -1.4913,-1.78887 -0.170108,-0.1488 -0.329472,-0.27056 -0.354141,-0.27056 -0.02467,0 -0.04485,-0.0223 -0.04485,-0.0495 0,-0.0273 0.217053,-0.002 0.482337,0.0569 0.265286,0.0586 1.153226,0.2373 1.973199,0.39721 1.409191,0.27482 2.891654,0.65122 3.002849,0.76241 0.08959,0.0896 -0.01964,0.17396 -0.349284,0.26979 -0.419899,0.12206 -0.503731,0.27478 -0.316843,0.57716 0.415064,0.67159 1.121638,0.83999 2.92514,0.69715 1.121675,-0.0888 1.599257,-0.0704 2.04417,0.0791 0.26046,0.0875 0.645225,0.34104 0.645225,0.42517 0,0.0244 -0.177588,0.0889 -0.39464,0.14328 -0.21705,0.0544 -0.815587,0.22689 -1.330082,0.38338 -0.514492,0.15648 -1.144148,0.32689 -1.399234,0.37868 -0.546473,0.11095 -1.634972,0.16058 -2.051579,0.0935 z m -45.267889,-6.13756 c -0.415987,-0.14368 -0.708722,-0.39253 -0.908773,-0.77252 -0.193644,-0.36782 -0.195537,-0.74742 -0.0056,-1.13466 0.146934,-0.29966 0.529331,-0.56728 0.823938,-0.57665 l 0.224005,-0.007 0.03507,0.323 c 0.07895,0.72701 0.202291,0.75632 1.098287,0.26095 1.528942,-0.84532 2.944576,-1.20435 4.363027,-1.10657 0.772406,0.0532 0.890344,0.0995 0.487805,0.19113 -0.536925,0.12226 -1.322927,0.56598 -2.504852,1.41405 -1.914797,1.37393 -2.759391,1.70318 -3.612855,1.40839 z m 65.360683,0.0189 c -0.526641,-0.14168 -1.27163,-0.57242 -2.464186,-1.42476 -1.304681,-0.93249 -1.857479,-1.24685 -2.464951,-1.40174 l -0.429072,-0.10941 0.292324,-0.0483 c 0.493569,-0.0815 1.826549,-0.0471 2.338607,0.0603 0.956341,0.20062 1.832975,0.5447 2.779489,1.09097 0.283826,0.1638 0.563831,0.28891 0.622231,0.27801 0.148773,-0.0278 0.310617,-0.38146 0.310725,-0.67905 1.13e-4,-0.31079 0.08824,-0.35431 0.443092,-0.21879 0.395604,0.15108 0.592347,0.34636 0.703173,0.69793 0.126532,0.40141 0.07458,0.75505 -0.163786,1.11492 -0.406579,0.61382 -1.157181,0.85792 -1.967646,0.63989 z m -53.241151,-3.29725 c -0.268434,-0.0612 -0.409362,-0.15387 -0.634785,-0.41722 -0.270997,-0.31661 -0.388355,-0.67851 -0.388355,-1.19764 0,-2.21217 3.045765,-3.04246 7.491742,-2.04229 2.551401,0.57397 4.850777,1.59276 6.244725,2.76688 0.237044,0.19966 -1.345191,-0.085 -3.196604,-0.57519 -2.388217,-0.63226 -3.517184,-0.83233 -4.693349,-0.8317 -1.471187,6e-4 -2.56283,0.39195 -3.142409,1.126 -0.853918,1.08152 -1.154847,1.29119 -1.680965,1.17116 z m 41.977963,0.0229 c -0.03215,-0.008 -0.13148,-0.0306 -0.220718,-0.0503 -0.219846,-0.0486 -0.573897,-0.37923 -0.986851,-0.92171 -0.188916,-0.24817 -0.428601,-0.51509 -0.532633,-0.59316 -0.766161,-0.57494 -2.076342,-0.86013 -3.415276,-0.74341 -1.049552,0.0915 -1.622301,0.20511 -3.848151,0.76338 -1.976114,0.49564 -2.95378,0.70199 -3.325989,0.70199 H 68.32127 l 0.20242,-0.17568 c 1.825895,-1.58467 6.448838,-3.09682 9.469142,-3.09733 1.993422,-2.2e-4 3.497014,0.60785 3.972288,1.60675 0.18712,0.39328 0.232775,1.1226 0.09605,1.53425 -0.09655,0.2907 -0.419716,0.72699 -0.616475,0.83229 -0.127245,0.0681 -0.535908,0.1629 -0.6163,0.14296 z m -46.275858,-0.25543 c -0.324332,-0.17155 -0.805286,-0.72332 -1.007915,-1.15633 -0.607732,-1.2987 0.0792,-3.49847 1.601522,-5.12856 0.80718,-0.86431 1.712879,-1.37131 2.973474,-1.66449 2.044779,-0.47556 4.796814,-0.19902 7.337374,0.73729 2.616694,0.96437 4.32043,2.19423 5.434637,3.92305 0.286676,0.4448 0.848067,1.56462 0.849523,1.69455 4.42e-4,0.0413 -0.136891,-0.0267 -0.306101,-0.15152 -1.775751,-1.31008 -4.140719,-2.53542 -6.047118,-3.13314 -1.398771,-0.43857 -2.253445,-0.58177 -3.468081,-0.58108 -1.346905,6.1e-4 -2.448193,0.27998 -3.451151,0.87498 -0.822613,0.48801 -1.117517,0.92602 -1.660466,2.46621 -0.483728,1.37219 -0.745356,1.8389 -1.170532,2.08807 -0.306897,0.17985 -0.778249,0.1933 -1.085166,0.0309 z m 49.739775,-0.0642 c -0.431535,-0.28584 -0.613132,-0.61672 -1.153734,-2.10219 -0.59293,-1.62926 -0.892285,-2.03709 -1.861219,-2.53569 -1.786475,-0.91929 -3.687701,-1.017 -6.248456,-0.32114 -1.863436,0.50637 -4.433777,1.78912 -6.349563,3.16881 -0.218661,0.15747 -0.412408,0.27147 -0.43055,0.25333 -0.01814,-0.0182 0.114072,-0.33881 0.293805,-0.71258 0.886198,-1.84296 2.230163,-3.15293 4.276077,-4.1679 3.767676,-1.86913 7.984374,-2.23314 10.556338,-0.91128 1.456508,0.74858 2.741816,2.46259 3.160447,4.21459 0.177305,0.74204 0.138135,1.49422 -0.104789,2.01232 -0.204194,0.4355 -0.700814,1.00361 -1.019387,1.16613 -0.35137,0.17926 -0.789148,0.15406 -1.118969,-0.0644 z"
     id="path1" /></svg>
