<?xml version="1.0" encoding="UTF-8" standalone="no"?>
<!-- Created with Inkscape (http://www.inkscape.org/) -->

<svg
   width="120mm"
   height="90mm"
   viewBox="0 0 120 90"
   version="1.1"
   id="svg1"
   xml:space="preserve"
   sodipodi:docname="masjien.svg"
   inkscape:version="1.4 (e7c3feb1, 2024-10-09)"
   inkscape:export-filename="masjien.png"
   inkscape:export-xdpi="317.5"
   inkscape:export-ydpi="317.5"
   xmlns:inkscape="http://www.inkscape.org/namespaces/inkscape"
   xmlns:sodipodi="http://sodipodi.sourceforge.net/DTD/sodipodi-0.dtd"
   xmlns="http://www.w3.org/2000/svg"
   xmlns:svg="http://www.w3.org/2000/svg"><sodipodi:namedview
     id="namedview1"
     pagecolor="#ffffff"
     bordercolor="#000000"
     borderopacity="0.25"
     inkscape:showpageshadow="2"
     inkscape:pageopacity="0.0"
     inkscape:pagecheckerboard="0"
     inkscape:deskcolor="#d1d1d1"
     inkscape:document-units="mm"
     inkscape:zoom="1.6108575"
     inkscape:cx="212.30928"
     inkscape:cy="225.65621"
     inkscape:window-width="1512"
     inkscape:window-height="842"
     inkscape:window-x="0"
     inkscape:window-y="38"
     inkscape:window-maximized="0"
     inkscape:current-layer="layer-MC0"><inkscape:page
       x="0"
       y="0"
       width="120"
       height="90"
       id="page1"
       margin="0"
       bleed="0" /></sodipodi:namedview><defs
     id="defs1"><clipPath
       clipPathUnits="userSpaceOnUse"
       id="clipPath13"><path
         d="M 0,212.737 H 800.002 V 0 H 0 Z"
         transform="translate(-725.46152,-80.577605)"
         id="path13" /></clipPath></defs><g
     id="layer-MC0"
     inkscape:groupmode="layer"
     inkscape:label="Layer 1"
     transform="matrix(0.26458334,0,0,0.26458334,130,0)"><path
       id="path12"
       clip-path="url(#clipPath13)"
       style="fill:#231f20;fill-opacity:1;fill-rule:nonzero;stroke:none"
       d="M 0,0 H -0.303 L -49.279,79.029 H -69.11 V -28.242 h 17.878 v 78.88 h 0.452 l 48.827,-78.88 H 17.878 V 79.029 H 0 Z m -151.7415,19.380188 h 54.087003 v 15.326 H -151.7415 v 28.094 h 58.443003 v 16.229 H -170.5165 v -107.271 h 78.269003 v 16.228 H -151.7415 Z m -68.05302,-47.622796 h 18.775 v 107.271 h -18.775 z M -268.9251,5.2651803 c 0,-3.312 -0.198,-6.266 -0.599,-8.862 -0.402,-2.608 -1.181,-4.783 -2.33,-6.5380003 -1.15,-1.755 -2.701,-3.078 -4.654,-3.98 -1.953,-0.902 -4.437,-1.36 -7.44,-1.36 -5.711,0 -9.592,1.681 -11.643,5.043 -2.052,3.3500003 -3.078,8.0830003 -3.078,14.1890003 v 5.562 h -18.781 v -5.71 c 0,-4.907 0.6,-9.468 1.805,-13.6700003 1.199,-4.203 3.102,-7.836 5.71,-10.889 2.602,-3.065 5.908,-5.463 9.913,-7.218 4.004,-1.743 8.862,-2.621 14.572,-2.621 7.712,0 13.899,1.051 18.552,3.152 4.66,2.101 8.213,4.907 10.673,8.417 2.447,3.498 4.078,7.453 4.882,11.8660003 0.797,4.4 1.199,8.96 1.199,13.67 V 79.02818 h -18.781 z m -68.89521,14.6596107 c -1.755,2.46 -3.93,4.635 -6.532,6.538 -2.608,1.904 -5.661,3.399 -9.165,4.512 -1.403,0.395 -3.733,1.026 -6.989,1.878 -3.257,0.841 -6.588,1.718 -9.987,2.621 -3.405,0.902 -6.489,1.73 -9.239,2.484 -2.756,0.754 -4.338,1.174 -4.734,1.273 -3.807,1.1 -6.891,2.732 -9.239,4.882 -2.354,2.151 -3.535,5.13 -3.535,8.936 0,2.707 0.624,4.969 1.879,6.761 1.254,1.805 2.83,3.238 4.734,4.289 1.903,1.051 4.004,1.805 6.309,2.25 2.305,0.457 4.555,0.679 6.761,0.679 6.508,0 11.872,-1.433 16.074,-4.289 4.209,-2.842 6.563,-7.737 7.064,-14.646 h 18.781 c 0,5.611 -1.107,10.543 -3.307,14.807 -2.206,4.252 -5.185,7.836 -8.942,10.741 -3.751,2.904 -8.108,5.08 -13.071,6.526 -4.956,1.458 -10.24,2.187 -15.845,2.187 -4.808,0 -9.566,-0.63 -14.275,-1.878 -4.71,-1.261 -8.918,-3.189 -12.62,-5.785 -3.708,-2.608 -6.687,-5.883 -8.936,-9.838 -2.256,-3.968 -3.38,-8.64 -3.38,-14.053 0,-2.806 0.37,-5.562 1.124,-8.257 0.754,-2.706 2.027,-5.265 3.832,-7.663 1.804,-2.41 4.227,-4.585 7.286,-6.538 3.053,-1.953 6.884,-3.535 11.495,-4.734 7.409,-2.002 13.645,-3.634 18.7,-4.882 5.061,-1.248 9.492,-2.583 13.299,-3.98 2.2,-0.803 4.227,-2.175 6.081,-4.128 1.854,-1.9530004 2.781,-4.9930004 2.781,-9.0970004 0,-2.00200004 -0.401,-3.98 -1.199,-5.933 -0.803,-1.952 -2.107,-3.683 -3.905,-5.178 -1.805,-1.5079996 -4.159,-2.7319996 -7.064,-3.6829996 -2.905,-0.952 -6.409,-1.434 -10.518,-1.434 -3.807,0 -7.336,0.432 -10.593,1.285 -3.256,0.853 -6.136,2.2 -8.639,4.0539996 -2.503,1.854 -4.456,4.227 -5.859,7.132 -1.403,2.90399996 -2.101,6.415 -2.101,10.518 h -18.781 c 0.099,-6.612 1.354,-12.347 3.758,-17.205 2.404,-4.8569996 5.605,-8.8369996 9.616,-11.9389996 4.004,-3.103 8.713,-5.414 14.121,-6.91 5.407,-1.507 11.167,-2.249 17.279,-2.249 5.308,0 10.512,0.618 15.623,1.879 5.11,1.248 9.665,3.226 13.67,5.932 4.004,2.695 7.236,6.18 9.69,10.432 2.453,4.2639996 3.683,9.3939996 3.683,15.3999996 0,2.806 -0.426,5.612 -1.279,8.4170004 -0.853,2.806 -2.151,5.439 -3.906,7.886 m -165.0207,-5.341789 16.228,46.126983 h 0.452 l 16.074,-46.126983 z m 6.61299,64.604998 -41.165,-107.271007 h 19.38001 l 10.06699,28.40299495 h 42.81499 l 10.06701,-28.40299495 h 20.13401 L -476.24901,79.188 Z M -612.45721,-4.9563092 h -0.29699 l -29.59501,83.9850082 h -26.44401 V -28.242307 h 17.87801 v 82.786005 h 0.303 l 29.74399,-82.786005 h 15.475 l 29.74401,82.786005 h 0.30199 v -82.786005 h 17.879 V 79.028699 h -26.141 z M -725.46152,-80.577608 H 74.540462 V 132.1604 H -725.46152 Z m 17.143,195.062008 H 57.409479 V -62.903601 H -708.31852 Z"
       transform="matrix(0.56220867,0,0,-0.56220867,-81.590195,184.57888)" /></g></svg>
