<?xml version="1.0" encoding="UTF-8" standalone="no"?>
<!-- Created with Inkscape (http://www.inkscape.org/) -->

<svg
   width="120mm"
   height="90mm"
   viewBox="0 0 120 90"
   version="1.1"
   id="svg1"
   xml:space="preserve"
   sodipodi:docname="mortselarij.svg"
   inkscape:version="1.4 (e7c3feb1, 2024-10-09)"
   inkscape:export-filename="mortselarij.png"
   inkscape:export-xdpi="317.5"
   inkscape:export-ydpi="317.5"
   xmlns:inkscape="http://www.inkscape.org/namespaces/inkscape"
   xmlns:sodipodi="http://sodipodi.sourceforge.net/DTD/sodipodi-0.dtd"
   xmlns="http://www.w3.org/2000/svg"
   xmlns:svg="http://www.w3.org/2000/svg"><sodipodi:namedview
     id="namedview1"
     pagecolor="#ffffff"
     bordercolor="#000000"
     borderopacity="0.25"
     inkscape:showpageshadow="2"
     inkscape:pageopacity="0.0"
     inkscape:pagecheckerboard="0"
     inkscape:deskcolor="#d1d1d1"
     inkscape:document-units="mm"
     inkscape:zoom="1.9226389"
     inkscape:cx="226.77165"
     inkscape:cy="221.83053"
     inkscape:window-width="1512"
     inkscape:window-height="842"
     inkscape:window-x="0"
     inkscape:window-y="38"
     inkscape:window-maximized="0"
     inkscape:current-layer="svg1" /><defs
     id="defs1" /><path
     style="fill:#000000;stroke-width:0.294904"
     d="m 30.41715,74.15285 c -1.304231,-0.23463 -2.280953,-0.7111 -3.122788,-1.52338 -1.231702,-1.188462 -1.85007,-3.109607 -1.5499,-4.815247 0.172769,-0.98172 0.365709,-1.486591 0.857035,-2.242596 0.704027,-1.083289 1.904053,-1.906834 3.279476,-2.250614 0.615282,-0.153786 2.220025,-0.16521 2.80896,-0.02001 1.125726,0.277573 1.907092,0.697166 2.671161,1.434412 0.705027,0.680284 1.237076,1.605751 1.452633,2.526783 0.151217,0.64613 0.161114,2.127701 0.01858,2.782951 -0.275809,1.268 -1.220663,2.587871 -2.352963,3.286861 -0.935037,0.57721 -1.791114,0.82088 -2.985831,0.84986 -0.443451,0.0108 -0.927819,-0.003 -1.076374,-0.029 z m 1.781382,-2.60013 c 0.420268,-0.144593 0.682081,-0.308622 0.999949,-0.62649 0.692205,-0.692206 0.976593,-1.756971 0.791062,-2.961783 -0.12414,-0.806137 -0.768735,-1.688442 -1.482373,-2.029027 -0.937008,-0.447192 -2.154188,-0.28792 -2.912295,0.381078 -0.654174,0.577284 -0.956881,1.323814 -0.960475,2.368691 -0.0034,0.997889 0.274265,1.708317 0.903636,2.31175 0.304829,0.292271 0.87626,0.584915 1.282764,0.656949 0.38938,0.069 1.017126,0.0229 1.377732,-0.101168 z m 28.659032,2.61805 c -0.635108,-0.0823 -1.795732,-0.36855 -2.260988,-0.55761 -0.445611,-0.18106 -0.99055,-0.49155 -1.026315,-0.58476 -0.0254,-0.0661 0.1589,-0.552325 0.509652,-1.344682 0.05066,-0.114442 0.129912,-0.301706 0.17612,-0.416143 0.130658,-0.323602 0.231983,-0.456982 0.303224,-0.399154 0.153232,0.124391 1.04191,0.534463 1.466023,0.676485 0.681555,0.228228 1.062061,0.288078 1.820625,0.286378 0.512888,-0.0013 0.739057,-0.02389 0.93632,-0.09402 0.474483,-0.168741 0.645362,-0.369508 0.648375,-0.76178 0.0039,-0.513911 -0.41195,-0.739259 -2.104873,-1.140513 -1.826379,-0.432875 -2.535068,-0.781472 -3.131589,-1.540377 -0.337995,-0.43 -0.48365,-0.929943 -0.48365,-1.660062 0,-1.07781 0.383198,-1.881958 1.215558,-2.550864 0.326884,-0.262684 1.038211,-0.58754 1.60781,-0.734266 0.488543,-0.12584 0.620591,-0.13729 1.624149,-0.140782 1.148415,-0.0039 1.593434,0.05099 2.366815,0.292304 0.505737,0.157823 1.288441,0.507902 1.320121,0.590454 0.01529,0.0399 -0.03898,0.23126 -0.120617,0.42527 -0.132933,0.31586 -0.32945,0.810789 -0.609863,1.535948 -0.05249,0.135787 -0.118878,0.246876 -0.147495,0.246864 -0.02861,-7e-6 -0.169054,-0.06063 -0.312106,-0.134639 -1.092082,-0.565264 -2.466514,-0.790331 -3.303739,-0.540999 -0.566123,0.168602 -0.779654,0.404791 -0.779654,0.862396 0,0.210591 0.02447,0.266575 0.180755,0.413997 0.212711,0.20061 0.787482,0.402054 1.847937,0.647659 1.654444,0.383169 2.296972,0.655578 2.890791,1.225586 0.586964,0.563433 0.804608,1.112554 0.800619,2.020049 -0.0053,1.252122 -0.654332,2.254461 -1.848481,2.855581 -0.348787,0.17557 -0.483058,0.22391 -1.036649,0.3732 -0.482488,0.13012 -1.004824,0.18433 -1.700547,0.1765 -0.380749,-0.005 -0.762502,-0.0169 -0.848328,-0.028 z m 53.968456,-3.2e-4 c -0.36869,-0.0624 -1.12906,-0.29104 -1.41934,-0.42676 -0.40092,-0.18744 -0.88637,-0.54593 -1.1731,-0.8663 l -0.21335,-0.23837 0.19348,-0.244713 c 0.44581,-0.563867 1.31837,-1.61873 1.36053,-1.644787 0.0251,-0.01549 0.2013,0.133209 0.39169,0.330414 0.47309,0.490033 0.86273,0.681937 1.3957,0.687416 0.21433,0.002 0.44484,-0.02447 0.51224,-0.05932 0.25466,-0.131588 0.46492,-0.322894 0.55879,-0.508439 0.19335,-0.382146 0.2212,-0.816379 0.20422,-3.183076 l -0.0163,-2.262773 -1.72878,-0.01371 -1.72877,-0.01372 -0.0285,-0.116345 c -0.0157,-0.06398 -0.0219,-0.584495 -0.0138,-1.156688 l 0.0148,-1.040356 h 3.17308 3.17309 l 0.0149,3.303129 c 0.0151,3.339927 -0.0152,4.184036 -0.17467,4.871596 -0.20675,0.891472 -0.77889,1.680832 -1.53396,2.116342 -0.28432,0.164 -0.94432,0.38034 -1.37531,0.45081 -0.30398,0.0497 -1.32584,0.0598 -1.58654,0.0156 z M 12.376921,73.88241 c -0.01569,-0.0648 -0.02209,-2.447022 -0.01421,-5.293695 l 0.0143,-5.175769 1.196407,-0.01365 1.196412,-0.01365 0.306944,0.533793 c 0.168818,0.29359 0.382485,0.662541 0.474817,0.81989 0.09233,0.157357 0.337912,0.578702 0.545737,0.936321 0.61028,1.050166 0.696779,1.198428 0.98633,1.69058 0.151489,0.257488 0.362744,0.620309 0.469458,0.806275 0.39577,0.689692 0.742046,1.24842 0.773515,1.248079 0.01784,-2.13e-4 0.124485,-0.169895 0.237006,-0.377133 0.112521,-0.207225 0.319929,-0.575742 0.460914,-0.818926 0.140982,-0.243182 0.315222,-0.547487 0.387203,-0.676234 0.07198,-0.12874 0.206748,-0.362823 0.299487,-0.520178 0.09274,-0.157349 0.313462,-0.543583 0.490497,-0.858289 0.177033,-0.314712 0.368989,-0.654129 0.426569,-0.75426 0.05758,-0.100138 0.341407,-0.597553 0.630726,-1.105376 l 0.526034,-0.923322 h 1.179485 1.179485 l 0.03848,5.259229 c 0.02312,3.160905 0.01952,5.278185 -0.009,5.306745 -0.0269,0.0269 -0.610227,0.0415 -1.344432,0.0336 l -1.296914,-0.0139 -0.01348,-2.71793 c -0.0074,-1.494858 -0.03081,-2.717472 -0.05201,-2.716914 -0.03087,6.38e-4 -1.372112,2.316611 -2.0592,3.555433 -0.08141,0.146771 -0.2294,0.401461 -0.328877,0.565971 l -0.180867,0.2991 h -0.618019 c -0.581603,0 -0.622914,-0.007 -0.701125,-0.11704 -0.08739,-0.12307 -0.365156,-0.587395 -0.576932,-0.964416 -0.116868,-0.208059 -0.321155,-0.555835 -1.136974,-1.935582 -0.177623,-0.3004 -0.426401,-0.721155 -0.552838,-0.935008 l -0.229887,-0.388819 -0.02601,2.677603 -0.02601,2.677602 -1.312234,0.0139 -1.312234,0.0139 z m 26.122483,0.0823 c -0.01952,-0.0195 -0.03549,-2.407502 -0.03549,-5.306628 v -5.271137 l 2.665912,6e-6 c 2.161752,1.3e-5 2.744606,0.01489 3.082053,0.07872 1.235194,0.233596 2.005291,0.654699 2.641824,1.444582 0.509972,0.632842 0.772781,1.436 0.774716,2.367577 0.003,1.41283 -0.563061,2.505706 -1.651625,3.189133 -0.154597,0.09705 -0.281382,0.19378 -0.281748,0.214927 -3.19e-4,0.02113 0.476806,0.758506 1.060377,1.63856 0.583572,0.88007 1.044344,1.61803 1.023936,1.63993 -0.02041,0.0219 -0.713944,0.0336 -1.541197,0.026 l -1.504097,-0.0138 -0.889464,-1.36529 c -0.489208,-0.750905 -0.902561,-1.378373 -0.918564,-1.394383 -0.01602,-0.01601 -0.365252,-0.02933 -0.776106,-0.02959 l -0.747013,-6.38e-4 -0.02601,1.394911 -0.02601,1.39491 -1.407996,0.0138 c -0.774399,0.008 -1.423969,-0.002 -1.443495,-0.0217 z m 5.257103,-5.244403 c 0.334987,-0.116903 0.657458,-0.385138 0.800793,-0.666097 0.225525,-0.442061 0.169738,-1.354044 -0.102538,-1.676243 -0.433889,-0.513445 -0.725346,-0.598203 -2.056976,-0.598203 h -1.01781 l -0.01454,1.512916 c -0.008,0.832095 -0.003,1.524616 0.01147,1.538927 0.01431,0.0143 0.494172,0.01654 1.066368,0.0053 0.834552,-0.01686 1.094335,-0.03989 1.313237,-0.11628 z m 7.486439,5.243583 c -0.01908,-0.0191 -0.03468,-1.867953 -0.03468,-4.108626 v -4.073952 l -1.547529,-0.01378 -1.54753,-0.01378 v -1.170379 -1.170396 l 4.539531,-0.01332 4.539528,-0.01332 -0.01398,1.183689 -0.01398,1.18369 -1.521522,0.01378 -1.521518,0.01378 v 4.026339 c 0,2.214486 -0.01421,4.063365 -0.03158,4.108625 -0.02769,0.0722 -0.202083,0.0823 -1.421818,0.0823 -0.764636,0 -1.405852,-0.0156 -1.424923,-0.0347 z m 16.385601,0 c -0.01909,-0.0191 -0.03465,-2.406682 -0.03465,-5.305808 v -5.271137 h 4.006366 4.006365 l -0.01398,1.157397 -0.01398,1.157397 -2.563127,0.01352 -2.563134,0.01352 0.01424,0.870801 0.01424,0.870809 2.250804,0.01358 2.250805,0.01358 -0.01404,1.104824 -0.01404,1.104825 -2.236761,0.02598 -2.23677,0.02598 -0.01417,0.949326 -0.01417,0.949326 h 2.65408 2.654079 v 1.17039 1.1704 h -4.048721 c -2.226789,0 -4.064318,-0.0156 -4.083393,-0.0346 z m 9.727648,3.2e-4 c -0.01929,-0.0192 -0.03497,-2.407005 -0.03497,-5.30613 v -5.271138 h 1.456183 1.456178 l 0.01332,4.096405 0.01332,4.096398 2.404815,0.01352 2.404807,0.01352 0.01404,1.130875 0.01398,1.13087 0.146011,-0.31211 c 0.08031,-0.17166 0.167578,-0.35892 0.19393,-0.41614 0.116136,-0.25214 0.986512,-2.325399 0.986512,-2.349893 0,-0.01496 0.03333,-0.100972 0.07415,-0.191124 0.240092,-0.530781 0.364614,-0.817245 0.455658,-1.048216 0.05636,-0.143051 0.135039,-0.330316 0.174783,-0.416143 0.03976,-0.08583 0.145145,-0.331614 0.234226,-0.546189 0.416635,-1.003577 0.558538,-1.339989 0.636326,-1.508512 0.09479,-0.205335 1.201473,-2.826245 1.328868,-3.147079 0.04547,-0.114436 0.120735,-0.278295 0.167317,-0.364122 l 0.08469,-0.156056 h 1.419037 1.419038 l 0.20394,0.468163 c 0.11217,0.257487 0.30681,0.713939 0.43255,1.014346 0.12573,0.3004 0.31408,0.745152 0.41855,0.988335 0.54197,1.261622 0.67432,1.575324 0.85587,2.028698 0.10884,0.271791 0.27363,0.658025 0.3662,0.858289 0.0926,0.200269 0.22215,0.504574 0.28795,0.676235 0.0658,0.171659 0.22928,0.557887 0.36331,0.858288 0.13402,0.300408 0.31052,0.714221 0.39221,0.919595 0.0817,0.205368 0.19563,0.474561 0.25319,0.598203 0.16779,0.360395 0.88771,2.092662 0.88771,2.135992 0,0.0508 -2.86734,0.0505 -2.9468,-3.2e-4 -0.0329,-0.021 -0.14552,-0.26059 -0.25025,-0.53239 -0.10475,-0.27179 -0.28001,-0.71654 -0.38949,-0.988337 l -0.19904,-0.494168 -2.132044,-0.01358 -2.132038,-0.01358 -0.05518,0.143622 c -0.03038,0.07899 -0.136614,0.354292 -0.236109,0.611783 -0.09949,0.25748 -0.25124,0.65542 -0.337219,0.8843 l -0.156319,0.41614 -5.327089,0.0133 c -2.929894,0.007 -5.342831,-0.003 -5.362076,-0.0217 z m 14.857989,-4.270111 c 0.0219,-0.03865 -0.734841,-2.063219 -0.976928,-2.61389 -0.06917,-0.157355 -0.152966,-0.376036 -0.186195,-0.485951 -0.06463,-0.213787 -0.106955,-0.204201 -0.193452,0.04377 -0.09587,0.274882 -0.895979,2.336913 -0.948636,2.444841 -0.10382,0.212762 -0.2059,0.558779 -0.178111,0.60374 0.03458,0.05597 2.451822,0.06319 2.483322,0.0075 z m 5.49086,4.240281 c -0.0104,-0.0362 -0.0129,-2.424208 -0.005,-5.306641 l 0.0135,-5.240797 h 2.642856 c 1.56025,0 2.7693,0.02172 2.95152,0.05308 2.01754,0.346858 3.20211,1.426013 3.50663,3.194599 0.13792,0.801038 -0.0129,1.85732 -0.3534,2.474295 -0.3251,0.589182 -0.80546,1.104819 -1.28404,1.378369 -0.14305,0.08177 -0.26779,0.154141 -0.27719,0.160834 -0.009,0.0067 0.16616,0.290131 0.39014,0.62985 0.22397,0.339725 0.43063,0.655978 0.45924,0.702797 0.0286,0.04678 0.20636,0.315157 0.39499,0.596314 0.61342,0.91433 0.87946,1.33102 0.87946,1.37749 0,0.0254 -0.67423,0.0395 -1.52153,0.0318 l -1.52152,-0.0138 -0.3509,-0.52018 c -0.19299,-0.28609 -0.57595,-0.87129 -0.85101,-1.300444 -0.27507,-0.429147 -0.54288,-0.827081 -0.59513,-0.884299 -0.0881,-0.09643 -0.15032,-0.102894 -0.85173,-0.08837 l -0.75671,0.01568 -0.0139,1.388813 -0.0138,1.38881 -1.411596,0.0139 c -1.10357,0.0108 -1.41573,-6.4e-4 -1.43049,-0.052 z m 5.052846,-5.159817 c 0.15735,-0.03878 0.33291,-0.08868 0.39013,-0.110827 0.21578,-0.08354 0.47855,-0.336785 0.62096,-0.598433 0.13146,-0.241549 0.14745,-0.322481 0.14717,-0.745079 -3.2e-4,-0.573525 -0.11571,-0.865908 -0.46157,-1.170351 -0.35505,-0.312533 -0.64403,-0.370111 -1.8575,-0.370111 h -1.02394 v 1.499844 c 0,0.824917 0.0156,1.515456 0.0347,1.53453 0.0666,0.06664 1.85262,0.03379 2.15007,-0.03957 z m 5.66994,-1.772378 v -3.615243 h 1.43049 1.43048 v 3.615243 3.615236 h -1.43048 -1.43049 z M 0.51474419,68.315621 c -0.013713,-0.03576 -0.018815,-1.130087 -0.011383,-2.431834 l 0.013566,-2.366809 1.35246291,0.002 c 1.506045,0.002 1.764649,0.03648 2.3408,0.31069 0.611466,0.290992 1.04171,0.813939 1.224586,1.488448 0.07829,0.28876 0.0774,0.944922 -0.0018,1.245297 -0.241512,0.917253 -0.978754,1.556985 -2.005014,1.739826 -0.554791,0.09884 -2.87639681,0.108741 -2.91333061,0.0124 z M 3.2218571,67.177936 c 0.308003,-0.08547 0.576221,-0.299607 0.732573,-0.584857 0.116443,-0.212441 0.137984,-0.314147 0.134258,-0.633977 -0.0072,-0.618059 -0.212171,-0.964051 -0.710777,-1.199766 -0.227188,-0.107401 -0.337405,-0.123025 -0.871297,-0.123465 l -0.611209,-6.38e-4 v 1.300442 1.300448 l 0.559191,-3.19e-4 c 0.307555,-2.12e-4 0.652823,-0.02625 0.767261,-0.058 z m 3.056045,1.168591 c -0.05068,-0.02067 -0.06502,-0.552009 -0.06502,-2.409492 0,-2.124925 0.0089,-2.386336 0.08228,-2.414486 0.125134,-0.04803 3.575277,-0.03616 3.652062,0.0126 0.04886,0.03097 0.06299,0.175584 0.05201,0.532382 l -0.01507,0.489824 -1.196408,0.02598 -1.196411,0.02598 -0.01525,0.376045 -0.01525,0.376044 1.055618,0.01411 1.055617,0.01411 0.01489,0.507173 c 0.01129,0.38439 -0.0012,0.508413 -0.05202,0.51229 -0.0368,0.0026 -0.511658,0.0087 -1.055243,0.01299 l -0.988339,0.0079 v 0.416143 0.416142 l 1.237232,0.01398 1.2372309,0.01398 -0.0148,0.532232 -0.0148,0.532239 -1.8466329,0.0093 c -1.015646,0.0053 -1.87589,-0.0026 -1.911653,-0.01732 z M 57.970578,56.236021 c -1.021276,-0.103117 -2.236272,-0.295978 -2.83497,-0.450015 -0.114439,-0.0294 -0.348518,-0.08997 -0.520179,-0.134494 -0.74153,-0.19237 -2.227588,-0.696714 -2.704924,-0.918013 -0.143049,-0.06632 -0.342015,-0.153662 -0.44215,-0.194102 -0.880125,-0.355382 -3.109998,-1.665622 -3.83331,-2.252389 -0.05172,-0.04196 -0.354777,-0.287387 -0.673462,-0.545401 -0.659778,-0.534172 -1.334755,-1.158041 -1.865407,-1.724172 -0.200269,-0.213654 -0.376941,-0.400334 -0.392603,-0.414843 -0.01566,-0.01451 -0.179516,-0.204375 -0.364124,-0.421926 -1.685485,-1.986284 -2.969795,-4.258581 -3.765189,-6.661669 -0.342865,-1.035884 -0.395245,-1.224966 -0.596995,-2.155028 -0.663631,-3.059331 -0.609039,-6.273334 0.158027,-9.303268 0.152091,-0.600773 0.649786,-2.106061 0.858633,-2.59697 0.09895,-0.232584 0.207988,-0.493104 0.242303,-0.578934 0.03432,-0.08583 0.255563,-0.537368 0.491657,-1.003418 0.7974,-1.574076 1.720019,-2.919989 2.997829,-4.373216 0.641735,-0.729835 1.975863,-1.963633 2.711263,-2.507374 0.171658,-0.126922 0.342321,-0.25931 0.379252,-0.294197 0.104988,-0.09918 1.177534,-0.797515 1.76106,-1.146629 0.713146,-0.426664 2.225909,-1.16438 2.694777,-1.31414 0.113027,-0.0361 0.325833,-0.118854 0.472896,-0.183893 0.592056,-0.261835 2.429225,-0.766693 3.378984,-0.928552 2.499313,-0.425938 4.257304,-0.44074 6.918365,-0.05826 1.050528,0.150998 3.012984,0.674689 3.828078,1.021541 0.19002,0.08086 0.459804,0.184916 0.599509,0.231232 0.637914,0.211479 2.367426,1.130774 3.45311,1.835446 0.420033,0.272631 1.332823,0.942777 1.612549,1.183897 0.689213,0.594092 1.076747,0.946281 1.454037,1.32143 2.852144,2.835912 4.723414,6.258464 5.60278,10.247503 0.404534,1.83507 0.517887,4.836878 0.252401,6.684285 -0.04521,0.314707 -0.104646,0.744783 -0.132041,0.955726 -0.05846,0.45043 -0.457107,2.056094 -0.686044,2.763547 -0.377127,1.165323 -1.084701,2.753431 -1.69957,3.814578 -0.572573,0.988143 -1.485508,2.295583 -2.076461,2.973744 -1.184831,1.359684 -2.518862,2.582391 -3.84477,3.523923 -0.926196,0.657689 -2.469309,1.530787 -3.473904,1.965539 -0.143051,0.06194 -0.330315,0.142927 -0.416142,0.180039 -0.515408,0.222875 -1.649977,0.602678 -2.730937,0.914202 -0.448275,0.129193 -1.496164,0.324757 -2.340798,0.43687 -0.300401,0.0399 -0.651523,0.08651 -0.78027,0.103629 -0.535874,0.07127 -2.999773,0.07378 -3.69326,0.0039 z m 3.277124,-7.002248 c 2.262058,-0.220818 4.636445,-1.178752 6.597433,-2.6617 0.598046,-0.452259 1.778074,-1.611699 2.261126,-2.221669 0.191726,-0.242095 0.348583,-0.459607 0.348583,-0.483356 0,-0.02374 -0.09948,0.01339 -0.221069,0.08256 -1.658731,0.943454 -3.503019,1.670938 -5.422858,2.139056 -1.180888,0.287937 -1.077016,0.265839 -1.719202,0.365726 -1.507667,0.234508 -3.836904,0.301537 -5.433246,0.156359 -2.324954,-0.211441 -4.633345,-0.820055 -6.76231,-1.782905 -0.615356,-0.2783 -0.825234,-0.382839 -1.4241,-0.709336 -0.269188,-0.146756 -0.353484,-0.144042 -0.235504,0.0076 2.633873,3.385146 6.70608,5.332256 10.840743,5.183459 0.343316,-0.01236 0.869996,-0.04646 1.170404,-0.07578 z m 0.785382,-5.061319 c 1.09886,-0.145778 1.765292,-0.270864 2.543751,-0.477447 0.535408,-0.142082 2.178108,-0.687165 2.262774,-0.750838 0.02861,-0.0215 0.309508,-0.147334 0.624212,-0.279598 0.878184,-0.369078 2.212878,-1.133103 3.30313,-1.890824 1.516833,-1.05419 3.234546,-2.764527 4.363019,-4.344287 l 0.3246,-0.454415 -0.168503,-0.247825 c -0.689661,-1.014296 -2.177111,-2.610487 -3.287565,-3.527916 -0.656275,-0.542194 -1.613579,-1.236142 -2.134604,-1.547371 -0.200971,-0.120046 -0.472081,-0.282505 -0.602468,-0.361022 -0.343996,-0.207144 -1.621131,-0.830225 -2.135726,-1.041964 -0.697409,-0.286962 -0.998243,-0.401821 -1.052429,-0.401821 -0.02763,0 -0.12399,-0.0335 -0.214141,-0.07445 -0.09015,-0.04095 -0.397993,-0.136285 -0.684096,-0.211861 -0.286096,-0.07557 -0.615926,-0.169269 -0.732948,-0.20821 -0.350518,-0.116638 -1.916939,-0.380542 -2.765719,-0.465957 -1.418887,-0.142786 -3.55389,-0.08285 -4.798167,0.1347 -1.621289,0.283465 -3.277926,0.744243 -4.291467,1.193627 -0.114441,0.05074 -0.374605,0.163745 -0.578144,0.25112 -0.814242,0.349541 -2.277685,1.18532 -3.141129,1.793913 -1.648168,1.161702 -3.417279,2.920696 -4.54077,4.514804 -0.134676,0.191093 -0.244866,0.364567 -0.244866,0.385505 0,0.06238 0.556291,0.785761 1.096462,1.4258 0.504123,0.597327 1.610797,1.720395 2.102632,2.133774 0.143049,0.120229 0.323905,0.274201 0.401901,0.342156 0.078,0.06795 0.335483,0.265727 0.572196,0.43949 0.236711,0.173763 0.469145,0.347524 0.516519,0.386132 0.354412,0.288844 2.155149,1.336039 2.775456,1.61403 0.546971,0.245128 1.348384,0.582301 1.455885,0.612525 0.05722,0.0161 0.338116,0.114248 0.624214,0.21814 0.621594,0.225722 1.88904,0.556396 2.574881,0.671777 0.431949,0.07267 1.758598,0.2472 2.366808,0.311375 0.609917,0.06436 2.484273,-0.01306 3.464302,-0.143061 z m -3.230222,-1.197586 c -0.185963,-0.03805 -0.466859,-0.09588 -0.624215,-0.128506 -1.315454,-0.272766 -2.718427,-1.105569 -3.643635,-2.162855 -0.823933,-0.941553 -1.4153,-2.161626 -1.644854,-3.393555 -0.104316,-0.559843 -0.119536,-1.884602 -0.02678,-2.330735 0.273898,-1.317301 0.61406,-2.120791 1.28434,-3.033727 0.985918,-1.342847 2.347924,-2.238929 4.056934,-2.669116 0.406283,-0.102268 0.605659,-0.118194 1.508517,-0.120497 1.407825,-0.0036 1.979965,0.119735 3.121069,0.67275 1.581131,0.766269 2.812906,2.121225 3.452834,3.798127 0.293656,0.769523 0.376314,1.219231 0.406333,2.210757 0.02395,0.791449 0.01266,0.991814 -0.08667,1.534524 -0.344863,1.884454 -1.419581,3.475015 -3.091192,4.57489 -0.435165,0.286328 -0.602245,0.373472 -1.2535,0.653803 -0.114435,0.04926 -0.38363,0.130303 -0.598203,0.180097 -0.214574,0.04979 -0.518879,0.125605 -0.676235,0.168469 -0.39586,0.107835 -1.74312,0.135942 -2.184745,0.04558 z m 1.964328,-4.946476 c 0.691162,-0.352927 1.142829,-1.030737 1.194889,-1.79317 0.029,-0.424786 -0.06102,-0.888172 -0.240328,-1.236916 -0.24985,-0.485963 -0.908007,-0.981703 -1.460718,-1.100236 -1.046211,-0.224372 -2.017875,0.252392 -2.504938,1.229094 -0.167529,0.335946 -0.175652,0.378683 -0.175652,0.924424 0,0.535278 0.01068,0.594763 0.165678,0.921929 0.227196,0.479605 0.567227,0.828801 1.023845,1.051453 0.479741,0.233924 0.487216,0.235381 1.09926,0.21427 0.479799,-0.01654 0.549504,-0.03292 0.897964,-0.210848 z M 50.323962,27.620488 c 2.143853,-1.075721 4.346523,-1.720757 7.204463,-2.109774 0.815422,-0.110994 3.919808,-0.09664 4.759634,0.02201 2.867465,0.40511 4.944234,1.03582 7.24055,2.198947 0.420388,0.212933 0.777357,0.387152 0.793269,0.387152 0.06175,0 0.02146,-0.08473 -0.114948,-0.241604 -0.07822,-0.08997 -0.325565,-0.375101 -0.54966,-0.63363 -1.271301,-1.466649 -3.044243,-2.714496 -4.950389,-3.484229 -2.095607,-0.846241 -4.377822,-1.135123 -6.656357,-0.842562 -0.86281,0.110783 -0.870141,0.112234 -1.822542,0.360822 -0.629759,0.164374 -1.900846,0.6571 -2.497781,0.968245 -1.3931,0.726133 -2.700085,1.717783 -3.669927,2.784484 -0.498683,0.548488 -0.984737,1.14372 -0.984737,1.205928 0,0.02251 0.228226,-0.0804 0.507172,-0.228703 0.278947,-0.148298 0.61251,-0.322488 0.741253,-0.387088 z"
     id="path1" /></svg>
