<?xml version="1.0" encoding="UTF-8" standalone="no"?>
<!-- Created with Inkscape (http://www.inkscape.org/) -->

<svg
   width="120mm"
   height="90mm"
   viewBox="0 0 120 90"
   version="1.1"
   id="svg1"
   xml:space="preserve"
   sodipodi:docname="norsu.svg"
   inkscape:version="1.4 (e7c3feb1, 2024-10-09)"
   xmlns:inkscape="http://www.inkscape.org/namespaces/inkscape"
   xmlns:sodipodi="http://sodipodi.sourceforge.net/DTD/sodipodi-0.dtd"
   xmlns="http://www.w3.org/2000/svg"
   xmlns:svg="http://www.w3.org/2000/svg"><sodipodi:namedview
     id="namedview1"
     pagecolor="#ffffff"
     bordercolor="#000000"
     borderopacity="0.25"
     inkscape:showpageshadow="2"
     inkscape:pageopacity="0.0"
     inkscape:pagecheckerboard="0"
     inkscape:deskcolor="#d1d1d1"
     inkscape:document-units="mm"
     inkscape:zoom="1.222963"
     inkscape:cx="222.41066"
     inkscape:cy="168.03452"
     inkscape:window-width="1512"
     inkscape:window-height="842"
     inkscape:window-x="0"
     inkscape:window-y="38"
     inkscape:window-maximized="0"
     inkscape:current-layer="svg1" /><defs
     id="defs1" /><path
     fill="#000"
     stroke="none"
     d="m 15.620783,89.094655 m 0,0 H 10.654274 V 70.084348 h 4.966509 v 2.808762 c 1.06045,-2.034921 3.459767,-3.218196 5.658463,-3.218196 4.438327,0 7.083311,2.812848 7.083311,8.184702 V 89.094655 H 23.396051 V 78.752194 c 0,-2.763721 -1.465798,-4.233608 -3.623545,-4.233608 -2.23964,0 -4.151724,1.142334 -4.151724,4.438326 z m 31.797121,-9.56862 c 0,-3.00938 -2.239638,-4.962411 -4.966506,-4.962411 -2.726869,0 -4.966509,1.953031 -4.966509,4.962411 0,3.095372 2.239639,5.08934 4.966509,5.08934 2.726868,0 4.966506,-1.993968 4.966506,-5.08934 m -14.858582,0 c 0,-5.981921 4.479277,-9.851121 9.892076,-9.851121 5.371854,0 9.892073,3.8692 9.892073,9.851121 0,5.986016 -4.520219,9.933025 -9.892073,9.933025 -5.412798,0 -9.892076,-3.947009 -9.892076,-9.933025 m 29.193079,9.56862 m 0,0 H 56.785892 V 70.084348 h 4.966509 v 4.475178 c 0.974473,-3.459767 3.214113,-4.884612 5.371854,-4.884612 1.342969,0 2.36248,0.286596 3.136319,0.691948 l -0.85574,4.479276 c -1.18327,-0.528182 -2.403409,-0.528182 -2.890639,-0.528182 -3.37789,0 -4.761794,3.009393 -4.761794,8.057783 z M 72.582095,75.333368 c 0,-3.050321 3.21819,-5.658454 7.00143,-5.658454 3.582599,0 7.247089,1.629564 7.410859,5.986006 h -4.72493 c -0.0819,-1.424845 -1.4658,-1.953028 -2.563099,-1.953028 -1.220141,0 -2.403411,0.446289 -2.403411,1.871144 0,0.773841 0.89667,1.302024 1.998071,1.588623 l 3.173149,0.769753 c 4.397391,1.142334 4.96651,4.196756 4.96651,5.699407 0,3.869203 -3.82826,5.863181 -7.77527,5.863181 -3.746369,0 -7.57054,-2.28058 -7.652439,-6.391364 h 4.63896 c 0.12284,1.342965 1.670519,2.485309 3.50072,2.403415 1.383909,-0.04098 2.4853,-0.814782 2.4853,-1.912084 0.041,-0.97856 -0.691951,-1.465799 -2.075861,-1.793351 l -2.60404,-0.651008 c -4.92966,-1.342964 -5.37595,-3.582601 -5.37595,-5.82224 m 31.756176,-5.24902 m 0,0 h 4.96651 v 19.006209 h -4.96651 V 86.408726 C 103.27782,88.43955 101.00133,89.5 99.085154,89.5 c -4.47518,0 -7.48865,-2.808759 -7.48865,-8.180614 V 70.084348 h 5.00744 v 10.338363 c 0,3.091274 1.87115,4.233608 3.623546,4.233608 2.07176,0 4.11078,-1.142334 4.11078,-4.438327 z M 65.281774,51.196874 m 0,0 L 46.177305,31.813976 26.896758,51.09451 H 10.629706 v -8.954445 h 12.557529 l 23.035099,-23.031008 19.08401,19.362425 37.713526,-37.9714819 6.35042,6.3094734 z"
     id="path4"
     style="fill:#000000;fill-opacity:1;stroke-width:1.04817" /></svg>
