<?xml version="1.0" encoding="UTF-8" standalone="no"?>
<!-- Created with Inkscape (http://www.inkscape.org/) -->

<svg
   width="120mm"
   height="90mm"
   viewBox="0 0 120 90"
   version="1.1"
   id="svg1"
   xml:space="preserve"
   sodipodi:docname="opnieuwenco.svg"
   inkscape:version="1.4 (e7c3feb1, 2024-10-09)"
   inkscape:export-filename="opnieuwenco.png"
   inkscape:export-xdpi="317.5"
   inkscape:export-ydpi="317.5"
   xmlns:inkscape="http://www.inkscape.org/namespaces/inkscape"
   xmlns:sodipodi="http://sodipodi.sourceforge.net/DTD/sodipodi-0.dtd"
   xmlns="http://www.w3.org/2000/svg"
   xmlns:svg="http://www.w3.org/2000/svg"><sodipodi:namedview
     id="namedview1"
     pagecolor="#ffffff"
     bordercolor="#000000"
     borderopacity="0.25"
     inkscape:showpageshadow="2"
     inkscape:pageopacity="0.0"
     inkscape:pagecheckerboard="0"
     inkscape:deskcolor="#d1d1d1"
     inkscape:document-units="mm"
     inkscape:zoom="1.3947189"
     inkscape:cx="160.60584"
     inkscape:cy="245.5692"
     inkscape:window-width="1520"
     inkscape:window-height="842"
     inkscape:window-x="0"
     inkscape:window-y="25"
     inkscape:window-maximized="0"
     inkscape:current-layer="svg1" /><defs
     id="defs1"><clipPath
       id="clipPath13329"
       clipPathUnits="userSpaceOnUse"><path
         id="path13331"
         d="m 0,0 720,0 0,405.354 -720,0 L 0,0 Z" /></clipPath><clipPath
       id="clipPath13357"
       clipPathUnits="userSpaceOnUse"><path
         id="path13359"
         d="m 0,0 720,0 0,405.354 -720,0 L 0,0 Z" /></clipPath></defs><rect
     style="fill:#ffffff;stroke-width:1.80341;stroke-linecap:round"
     id="rect1"
     width="21.771894"
     height="12.537088"
     x="-14.839507"
     y="66.327263"
     transform="matrix(0.85022747,-0.52641548,0.48677139,0.8735294,0,0)" /><path
     style="fill:#000000;stroke-width:1.40434"
     d="m 25.34924,76.282767 c -0.202138,-0.34204 -1.762399,-2.93672 -3.467247,-5.76596 l -3.099723,-5.14407 1.26758,-0.75243 c 0.69717,-0.41385 4.504657,-2.70497 8.461085,-5.09142 9.05389,-5.46112 9.044453,-5.45542 9.35171,-5.65284 0.246769,-0.15855 0.295349,-0.0981 1.377639,1.71432 0.61701,1.03327 2.18075,3.63308 3.47498,5.77738 1.29424,2.14427 2.33297,3.918 2.3083,3.94164 -0.0247,0.0236 -3.30869,2.00912 -7.29781,4.41223 -9.911105,5.97059 -11.940607,7.18811 -11.977399,7.18538 -0.01737,-0.001 -0.196977,-0.28221 -0.399115,-0.62423 z m 1.146125,-0.78098 c 0.285118,-0.23087 0.224061,-0.56286 -0.08193,-0.44545 -0.09406,0.0361 -0.273486,0.001 -0.398718,-0.0765 -0.318512,-0.19891 -0.415988,-0.0447 -0.240088,0.38005 0.172093,0.41547 0.341713,0.44888 0.72073,0.14197 z m 1.967676,-1.17906 c 0.267939,-0.17956 0.464125,-0.39334 0.43597,-0.47508 -0.07401,-0.21487 -0.222196,-0.18619 -0.806197,0.15606 -0.341111,0.19991 -0.49736,0.36347 -0.45433,0.47561 0.09455,0.24639 0.274131,0.21227 0.824557,-0.15659 z m -3.116921,-0.36335 c 0.111125,-0.1798 -0.516978,-1.0868 -0.703137,-1.01536 -0.231764,0.0889 -0.221088,0.18714 0.07487,0.68875 0.237008,0.4017 0.498005,0.53738 0.628269,0.32661 z m 5.26486,-0.91933 c 0.522937,-0.30646 0.618423,-0.45256 0.388598,-0.59461 -0.156941,-0.097 -1.180733,0.43134 -1.180733,0.60933 0,0.13439 0.115801,0.28755 0.217446,0.28755 0.0324,0 0.291012,-0.13608 0.574689,-0.30227 z m -1.7312,-1.03981 c 0.222206,-0.14959 0.511021,-0.43992 0.641813,-0.6452 0.179649,-0.28198 0.339567,-0.38266 0.653954,-0.41173 0.355274,-0.0329 0.421704,-0.0868 0.454097,-0.36876 0.03177,-0.27657 -0.02143,-0.35101 -0.326977,-0.45751 -0.306436,-0.10687 -0.364922,-0.18921 -0.364922,-0.51399 0,-0.21273 -0.05977,-0.55824 -0.132822,-0.76779 -0.110016,-0.31559 -0.186561,-0.37477 -0.445878,-0.34472 -0.332417,0.0385 -0.336566,0.0604 -0.181413,0.95777 0.07211,0.41708 0.05786,0.44587 -0.220747,0.44587 -0.281183,0 -0.294581,-0.0289 -0.239497,-0.51763 0.07085,-0.62856 -0.09078,-0.96448 -0.539269,-1.12083 -0.462192,-0.16111 -1.022149,0.0881 -1.329016,0.59135 -0.294433,0.48294 -0.303124,0.78654 -0.03348,1.16929 0.149562,0.21229 0.196099,0.46695 0.167477,0.91648 -0.03564,0.55978 -0.0035,0.65862 0.318795,0.98092 0.444855,0.44488 1.000264,0.47531 1.577875,0.0865 z m -0.915791,-0.96461 c -0.11979,-0.31218 -0.0048,-0.39239 0.406396,-0.28361 0.459028,0.12147 0.448496,0.37313 -0.01792,0.42832 -0.202992,0.024 -0.343864,-0.0285 -0.388474,-0.14471 z m -0.316801,-1.56922 c -0.10718,-0.10715 0.0404,-0.41301 0.162801,-0.33738 0.05855,0.0362 0.106434,0.14289 0.106434,0.23712 0,0.1751 -0.14166,0.22784 -0.269242,0.10027 z m -3.477932,2.57089 c 0.06863,-0.11108 -0.410228,-1.07214 -0.533258,-1.07027 -0.03269,4.9e-4 -0.131854,0.0468 -0.220335,0.1028 -0.130071,0.0824 -0.107292,0.19576 0.118906,0.59177 0.273744,0.47924 0.491148,0.60792 0.634693,0.37565 z m 8.62466,-0.31596 c 0.477681,-0.3161 0.625209,-0.63814 0.292341,-0.63814 -0.334524,0 -1.125099,0.58051 -1.05156,0.77216 0.09506,0.2477 0.214199,0.22666 0.759219,-0.13398 z m 2.169755,-1.3081 c 0.648093,-0.40363 0.619038,-0.36701 0.451426,-0.56897 -0.125015,-0.15064 -0.225677,-0.12484 -0.734384,0.18816 -0.475487,0.29256 -0.562911,0.39477 -0.452011,0.5284 0.176476,0.21263 0.147124,0.21853 0.734969,-0.14759 z m -11.966794,-0.33648 c 0.05418,-0.14119 -0.09446,-0.43583 -0.502465,-0.99605 -0.01628,-0.0223 -0.112011,0.006 -0.212756,0.0619 -0.158885,0.0889 -0.143409,0.16918 0.116714,0.60539 0.313872,0.52635 0.486329,0.62107 0.5985,0.32877 z m 14.151418,-0.98515 c 0.492176,-0.31093 0.612098,-0.49052 0.441482,-0.66113 -0.103429,-0.1035 -1.23111,0.53836 -1.231262,0.70076 -1.25e-4,0.13313 0.115451,0.28735 0.215306,0.28735 0.03129,0 0.289803,-0.14714 0.574474,-0.32698 z m -12.40152,-0.0972 c 0.972293,-0.54342 1.354267,-1.22798 1.026713,-1.84002 -0.213803,-0.3995 -0.517149,-0.48159 -1.114813,-0.30173 -0.620355,0.1867 -0.62186,0.0343 -0.0022,-0.22466 0.485771,-0.20297 0.628419,-0.48641 0.373223,-0.74161 -0.232995,-0.23299 -0.569978,-0.1521 -1.301031,0.31235 -0.801613,0.50926 -0.926827,1.31483 -0.27115,1.74444 0.292277,0.19151 0.393504,0.18013 1.159431,-0.13032 0.33964,-0.13763 0.236404,0.12456 -0.118905,0.30201 -0.483959,0.24172 -0.862032,0.6053 -0.862032,0.82901 0,0.45312 0.361046,0.46953 1.110777,0.0506 z m 9.306184,-0.12597 c 0.693208,-0.46816 0.794328,-0.70617 0.447406,-1.0531 -0.178622,-0.17861 -0.212729,-0.17585 -0.445879,0.0361 -0.39718,0.36108 -0.759955,0.51891 -0.851656,0.37053 -0.04321,-0.0699 -0.05984,-0.13875 -0.03693,-0.15309 0.0229,-0.0143 0.299847,-0.23164 0.615445,-0.48305 0.496697,-0.39568 0.563364,-0.49898 0.496064,-0.76871 -0.304464,-1.2203 -1.97158,-0.94542 -2.329584,0.3841 -0.164798,0.61202 0.04883,1.42272 0.460153,1.74627 0.423495,0.33313 1.081513,0.3015 1.644992,-0.0791 z m -1.261592,-1.5859 c 0,-0.14789 0.421512,-0.37533 0.517573,-0.27927 0.04028,0.0403 -0.01956,0.1437 -0.132991,0.22983 -0.247226,0.18773 -0.38458,0.2054 -0.38458,0.0494 z m -10.98304,0.8906 c 0.08593,-0.22393 -0.396699,-1.01367 -0.619495,-1.01367 -0.238336,0 -0.209397,0.27405 0.08089,0.76606 0.267442,0.45327 0.430854,0.52841 0.538605,0.24761 z m 17.482417,-0.36472 c 0.47902,-0.28073 0.64571,-0.55461 0.42179,-0.69301 -0.0517,-0.032 -0.34458,0.0979 -0.65087,0.28854 -0.38201,0.23778 -0.5352,0.40318 -0.48781,0.52668 0.0905,0.23574 0.11249,0.23199 0.71689,-0.12218 z m -2.42326,-0.5642 c 0.687107,-0.38458 0.761563,-1.12245 0.101056,-1.00153 -0.172094,0.0315 -0.482501,0.12695 -0.689793,0.21225 -0.31021,0.12752 -0.410139,0.12738 -0.56478,-9.7e-4 -0.354344,-0.29408 -0.22706,-0.6986 0.34717,-1.10335 0.558765,-0.39385 0.691063,-0.76727 0.367093,-1.03615 -0.129888,-0.10785 -0.271027,-0.0963 -0.622606,0.0506 -1.206625,0.50416 -1.691315,1.65776 -1.078552,2.56704 0.508796,0.755 1.17547,0.85222 2.140408,0.31214 z m -9.072743,-0.0595 c 0.165023,-0.12035 0.399687,-0.41941 0.521478,-0.66452 0.193599,-0.38965 0.203164,-0.51094 0.07609,-0.96484 -0.221454,-0.79096 -0.929947,-1.31942 -1.562943,-1.1658 -0.51106,0.12401 -1.039562,0.61633 -1.185857,1.1046 -0.118188,0.3945 -0.107235,0.55536 0.06929,1.0176 0.36569,0.95754 1.284587,1.25457 2.081948,0.67296 z m -0.880296,-0.80633 c -0.375433,-0.37542 -0.378378,-1.00234 -0.0048,-1.00234 0.230363,0 0.560222,0.67211 0.469753,0.95715 -0.08905,0.28059 -0.217205,0.29304 -0.465046,0.0452 z m 15.149259,-0.28893 c -9.4e-4,-0.0327 -0.0451,-0.1278 -0.0981,-0.2113 -0.0743,-0.11712 -0.22361,-0.0807 -0.65214,0.15881 -0.51737,0.28917 -0.6643,0.49883 -0.47924,0.68388 0.0761,0.0761 1.23269,-0.51787 1.22944,-0.63139 z m -21.377741,-0.0428 c -0.02034,-0.11699 0.02823,-0.29115 0.10791,-0.38715 0.260667,-0.3141 -0.05565,-0.45989 -0.468567,-0.21599 -0.348919,0.20611 -0.354337,0.22263 -0.182198,0.55551 0.195421,0.3779 0.606546,0.41398 0.542848,0.0476 z m 18.384581,-0.198 c 0.96532,-0.58853 0.90206,-2.15593 -0.10807,-2.67829 -0.82799,-0.42817 -1.674562,-0.01 -2.018145,0.99674 -0.109946,0.32217 -0.09781,0.49407 0.06494,0.92022 0.367949,0.96345 1.216005,1.27668 2.061285,0.76133 z m -0.98975,-0.99346 c -0.383339,-0.58505 0.006,-1.1816 0.46925,-0.71858 0.25706,0.25705 0.20676,0.92517 -0.0737,0.97826 -0.11218,0.0212 -0.28652,-0.0932 -0.3956,-0.25968 z m -7.396158,0.60566 c 0.436416,-0.24427 0.6641,-0.65408 0.505746,-0.9103 -0.112025,-0.18127 -0.57463,-0.15444 -0.843483,0.0489 -0.357881,0.27069 -0.735787,0.21967 -0.965098,-0.13032 -0.20159,-0.30767 -0.199048,-0.31723 0.166029,-0.62424 0.203915,-0.17148 0.49041,-0.39531 0.636656,-0.49742 0.208742,-0.14575 0.248654,-0.25437 0.185666,-0.50535 -0.107389,-0.42784 -0.467692,-0.41857 -1.175425,0.0302 -0.641287,0.40671 -0.921593,0.87432 -0.921593,1.53746 0,0.50886 0.414469,1.13405 0.882057,1.33052 0.338115,0.14206 0.988626,0.0232 1.529445,-0.27952 z m 12.782278,-0.16766 c 0.17753,-0.11094 0.34044,-0.21337 0.36201,-0.22749 0.0216,-0.0142 -0.0559,-0.17745 -0.17209,-0.36296 -0.11622,-0.18551 -0.21985,-0.35194 -0.23028,-0.36983 -0.0104,-0.0178 -0.10849,0.001 -0.21789,0.0438 -0.13546,0.052 -0.17476,0.15243 -0.12319,0.3149 0.0417,0.13131 0.0147,0.27625 -0.0599,0.32239 -0.0746,0.0461 -0.10137,0.1732 -0.0594,0.28241 0.0941,0.2451 0.10368,0.24505 0.50083,-0.003 z m -20.895772,-0.66023 c 0.460898,-0.26318 0.584031,-0.48049 0.353117,-0.62321 -0.12597,-0.0778 -1.190676,0.4984 -1.190676,0.64442 0,0.11951 0.135758,0.24632 0.263788,0.24632 0.05789,0 0.316086,-0.12035 0.573771,-0.26753 z m 9.514636,-0.0934 c 0.127037,-0.068 0.229985,-0.24794 0.229985,-0.402 0,-0.35151 -0.557987,-1.85857 -0.767613,-2.07322 -0.18513,-0.18957 -0.606394,-0.0888 -0.705204,0.16869 -0.07221,0.18818 0.539663,1.98648 0.770573,2.26473 0.16389,0.19746 0.178925,0.19879 0.472259,0.0418 z m 1.512307,-0.95592 c 0.201631,-0.0702 0.450495,-0.25583 0.553033,-0.41233 0.102531,-0.15648 0.254745,-0.25831 0.338236,-0.22628 0.08349,0.032 0.257277,-0.019 0.386191,-0.11334 0.232075,-0.16989 0.23148,-0.1802 -0.06027,-1.04299 -0.377484,-1.11635 -0.698377,-1.45973 -1.276453,-1.36592 -0.470582,0.0764 -1.316693,0.58757 -1.42058,0.85828 -0.03678,0.0959 1.63e-4,0.25509 0.08211,0.35383 0.171759,0.20696 0.505267,0.13594 0.934031,-0.19891 0.518326,-0.40478 0.545979,-0.22879 0.0446,0.28389 -0.271813,0.27793 -0.543131,0.6388 -0.602929,0.80196 -0.142073,0.38762 0.03363,0.88469 0.370211,1.0473 0.143691,0.0694 0.266646,0.1299 0.273237,0.13426 0.0066,0.004 0.176952,-0.0494 0.378582,-0.11979 z m -0.09332,-1.03675 c 0,-0.0628 0.08644,-0.18597 0.192065,-0.27364 0.166169,-0.13791 0.186208,-0.1292 0.148626,0.0647 -0.04479,0.23109 -0.340691,0.41252 -0.340691,0.20888 z m -8.724553,0.74609 c 0.343643,-0.20138 0.489019,-0.35724 0.443603,-0.47561 -0.03716,-0.0968 -0.115493,-0.17603 -0.174085,-0.17603 -0.236394,0 -1.137699,0.6641 -1.089237,0.80258 0.07575,0.21644 0.246487,0.18499 0.819719,-0.15094 z m 17.954672,0.12429 c 0.0739,-0.19249 -0.38286,-1.01369 -0.56378,-1.01369 -0.23569,0 -0.22716,0.33838 0.019,0.75568 0.27319,0.46301 0.4364,0.54032 0.54473,0.25801 z m -15.767119,-1.44563 c 0.486489,-0.32194 0.563404,-0.44939 0.350598,-0.5809 -0.132878,-0.0822 -1.185453,0.48733 -1.185453,0.64134 0,0.12372 0.13271,0.25261 0.260166,0.25261 0.05589,0 0.314508,-0.14088 0.574689,-0.31305 z m 9.676138,-0.2892 c 0.168662,-0.20044 0.355858,-0.33403 0.415993,-0.29686 0.157226,0.0972 0.457728,-0.0409 0.536624,-0.24643 0.09886,-0.25763 -0.623521,-2.04566 -0.882471,-2.18425 -0.328844,-0.17599 -0.670336,-0.14462 -1.16298,0.1068 -0.562286,0.28698 -0.90583,0.66587 -0.815997,0.89999 0.09828,0.2561 0.512288,0.22746 0.991303,-0.0685 0.525202,-0.32459 0.645612,-0.21042 0.158164,0.14997 -0.519715,0.38424 -0.875038,0.99205 -0.786401,1.34522 0.187269,0.74614 1.030434,0.90658 1.545765,0.29415 z m -0.569844,-0.75592 c 0.0357,-0.0931 0.14699,-0.20066 0.247308,-0.23915 0.130758,-0.0501 0.161815,-0.0163 0.109707,0.11951 -0.03998,0.1042 -0.07269,0.2118 -0.07269,0.23914 0,0.0274 -0.07857,0.0497 -0.174618,0.0497 -0.102151,0 -0.147681,-0.0702 -0.109707,-0.16915 z m -4.70951,0.64477 c 0.08764,-0.16379 0.08937,-0.30861 0.0055,-0.46525 -0.347441,-0.64919 -1.034972,-0.18679 -0.765681,0.51496 0.102755,0.26777 0.607907,0.23472 0.760135,-0.0497 z m 10.217625,0.007 c 0.14172,-0.0897 0.11633,-0.18975 -0.15031,-0.59269 -0.32287,-0.48789 -0.48062,-0.58281 -0.61289,-0.36879 -0.0686,0.11108 0.41022,1.07216 0.53325,1.07028 0.0327,-4.9e-4 0.13618,-0.0494 0.22995,-0.10884 z m -12.438553,-0.90577 c 0.362549,-0.20263 0.52179,-0.36113 0.477859,-0.47561 -0.09149,-0.23843 -0.217199,-0.21749 -0.821853,0.13692 -0.519961,0.30472 -0.602249,0.40838 -0.447235,0.56339 0.124257,0.12429 0.211089,0.0996 0.791229,-0.22463 z m 9.773623,-0.25062 c 0.26427,-0.26427 0.18428,-0.6149 -0.50968,-2.23411 -0.49114,-1.14597 -0.59897,-1.31345 -0.845667,-1.31345 -0.155512,0 -0.352099,0.10701 -0.436858,0.2378 -0.133973,0.20674 -0.07828,0.42958 0.426348,1.70582 0.746307,1.88746 0.900847,2.06894 1.365857,1.60394 z m 1.43026,-1.21123 c -0.0914,-0.17326 -0.23994,-0.41348 -0.33011,-0.53383 -0.14508,-0.19363 -0.18114,-0.19808 -0.31345,-0.0387 -0.1231,0.14833 -0.0945,0.26726 0.16189,0.67343 0.25253,0.40003 0.3432,0.46689 0.47962,0.35369 0.14435,-0.11981 0.14464,-0.18428 0.002,-0.45462 z m -9.033853,0.14929 c 0.289575,-0.1697 0.526501,-0.35865 0.526501,-0.41989 0,-0.25498 -0.375223,-0.22194 -0.887294,0.0782 -0.439457,0.25753 -0.519668,0.35258 -0.409543,0.48527 0.176684,0.21288 0.155351,0.21686 0.770336,-0.14354 z m 2.150941,-1.30163 c 0.532899,-0.3123 0.574457,-0.37256 0.422119,-0.61216 -0.06475,-0.10185 -0.247796,-0.0434 -0.652134,0.20829 -0.548781,0.34157 -0.644232,0.46549 -0.48285,0.62687 0.117024,0.11703 0.150549,0.10655 0.712865,-0.223 z m 5.805072,-0.40823 c 0.0686,-0.11106 -0.41022,-1.07215 -0.53326,-1.07028 -0.0327,5e-4 -0.13186,0.0468 -0.22034,0.10285 -0.13007,0.0824 -0.10729,0.19577 0.11891,0.59178 0.27375,0.47923 0.49115,0.60791 0.6347,0.37565 z m -3.04296,-1.26589 c 0.02567,-0.0216 -0.01852,-0.11773 -0.0982,-0.21375 -0.125015,-0.15064 -0.225677,-0.12484 -0.734384,0.18816 -0.478837,0.29463 -0.563404,0.39417 -0.450466,0.53026 0.117543,0.14164 0.223859,0.1186 0.687715,-0.14899 0.301771,-0.17408 0.569676,-0.33414 0.595345,-0.35568 z m 1.86851,-0.68927 c 0.0356,-0.0928 -0.0229,-0.30246 -0.12994,-0.46589 -0.189995,-0.28997 -0.20316,-0.29235 -0.545698,-0.0988 -0.396643,0.22415 -0.414136,0.55506 -0.02934,0.55506 0.140013,0 0.295074,0.0401 0.344579,0.0892 0.139915,0.1386 0.289339,0.10562 0.360399,-0.0796 z m 56.73812,17.36079 c -0.69089,-0.24667 -1.61092,-0.88651 -1.86792,-1.29907 -0.30853,-0.49527 -1.28267,-1.42471 -2.38822,-2.27861 -1.1507,-0.8888 -2.08887,-1.79393 -2.40316,-2.31858 -0.13707,-0.22887 -0.43392,-0.70115 -0.65954,-1.04949 -1.33274,-2.05757 -1.6942,-5.04891 -0.92662,-7.66859 0.38421,-1.31134 0.6034,-1.74096 1.58029,-3.0974 1.46706,-2.03709 2.89216,-3.61003 4.08487,-4.50864 0.86095,-0.648664 1.97211,-0.288817 2.34997,0.76103 0.0987,0.27416 0.0352,0.40529 -0.54651,1.12956 -1.81131,2.25503 -2.81361,3.84169 -3.30305,5.22875 -0.51967,1.47278 -0.37443,3.8795 0.35028,5.80491 0.92331,2.45299 2.61581,4.76036 5.29534,7.21911 0.33684,0.3091 0.59878,0.65361 0.59878,0.78755 0,0.30765 -0.79395,1.16978 -1.22647,1.33178 -0.40596,0.15206 -0.39186,0.1527 -0.93804,-0.0423 z m -34.7473,-1.39946 c -2.16913,-0.21611 -3.90779,-1.39972 -4.85544,-3.30536 -0.36486,-0.73374 -0.3826,-0.83287 -0.37226,-2.08077 0.006,-0.72068 0.10195,-2.02759 0.21339,-2.90423 0.14077,-1.108 0.16465,-1.63179 0.0784,-1.71813 -0.0683,-0.0683 -0.12414,-0.21552 -0.12414,-0.32715 0,-0.29263 0.65565,-1.71096 0.99906,-2.1612 0.40612,-0.53245 0.52208,-0.87984 0.86166,-2.58141 0.1793,-0.89845 0.42829,-1.74427 0.63002,-2.14022 0.18345,-0.36007 0.39723,-0.88686 0.47507,-1.17064 0.10504,-0.38302 0.34281,-0.71235 0.92274,-1.27819 0.44553,-0.43468 0.88587,-0.76221 1.02476,-0.76221 0.13397,0 0.36817,-0.11707 0.52047,-0.26015 0.43913,-0.41255 0.8467,-0.19779 1.28413,0.67664 0.27162,0.54301 0.42679,0.72295 0.65058,0.75452 0.16164,0.0228 0.40094,0.11643 0.53178,0.20807 0.14163,0.0992 0.53479,0.16663 0.9715,0.16663 h 0.73358 l 0.63929,0.69049 c 0.3516,0.37979 0.87236,1.07627 1.15724,1.54775 0.4606,0.76234 0.50935,0.91106 0.44023,1.3433 -0.16901,1.05694 -0.88856,1.9086 -2.70988,3.20745 -0.63397,0.45213 -1.18244,0.87017 -1.2188,0.92901 -0.0364,0.0588 0.8341,0.58741 1.93438,1.17461 2.56137,1.36697 3.99455,2.25614 5.18292,3.21558 0.53931,0.4354 0.97022,0.70677 0.99661,0.62762 0.0256,-0.0767 0.33758,-0.57926 0.69335,-1.11682 0.35579,-0.53755 0.70913,-1.18497 0.78523,-1.43872 0.12288,-0.41004 0.10827,-0.51348 -0.13118,-0.92971 -0.25508,-0.44322 -0.25904,-0.48438 -0.0737,-0.76717 0.59527,-0.9085 1.99661,-2.02677 2.18061,-1.74013 0.093,0.14489 0.61331,0.32976 0.81796,0.29063 0.0802,-0.0153 0.2874,0.0649 0.46041,0.17823 0.29593,0.19391 0.31037,0.24618 0.24376,0.88337 -0.14279,1.36624 -0.80936,2.60685 -2.61372,4.8647 -0.77189,0.9659 -0.8748,1.14679 -0.71027,1.24846 0.10589,0.0654 0.572,0.43397 1.03595,0.81905 0.91677,0.76092 1.6131,1.13612 2.11614,1.1402 0.17675,0.001 0.45342,0.0628 0.6148,0.13638 0.24219,0.11038 0.35219,0.0924 0.62984,-0.10239 0.18501,-0.1299 0.5282,-0.29827 0.76265,-0.37425 0.5083,-0.16475 0.88381,-0.53903 1.70664,-1.70114 0.74794,-1.05633 1.22384,-1.40403 1.92171,-1.40403 0.69099,0 1.0808,0.19905 1.23045,0.62832 0.20334,0.58333 -0.024,1.16996 -0.6191,1.59733 -0.27958,0.20077 -0.96225,0.74977 -1.51704,1.22 -1.22553,1.03872 -1.88039,1.43799 -2.43004,1.4816 -0.22896,0.0181 -0.49905,0.10168 -0.60019,0.18565 -0.10112,0.084 -0.21613,0.12035 -0.25554,0.081 -0.0395,-0.0395 -0.23424,0.0126 -0.43298,0.11516 -0.39213,0.20278 -0.63164,0.1912 -2.62949,-0.12723 -0.77405,-0.12346 -1.50797,-0.3344 -2.14022,-0.61534 -0.52921,-0.23517 -1.21471,-0.5394 -1.52329,-0.67608 l -0.56108,-0.24853 -0.56847,0.32272 c -3.18792,1.8097 -6.18525,2.51316 -9.36024,2.19683 z m 5.60501,-2.29505 c 0.54055,-0.172 1.29041,-0.53762 1.79705,-0.87617 l 0.86942,-0.58099 -0.51189,-0.43816 c -0.28153,-0.24098 -1.26133,-0.81717 -2.17733,-1.28043 -0.916,-0.46327 -1.79921,-0.93517 -1.96269,-1.04866 -0.46215,-0.32087 -4.82959,-2.01117 -5.21684,-2.01905 -0.0246,-5.1e-4 -0.0188,0.44051 0.0126,0.98001 0.0426,0.72666 0.15897,1.24293 0.44932,1.9916 0.35597,0.91782 0.46694,1.07597 1.20825,1.7218 2.08541,1.81675 3.47249,2.2054 5.53198,1.55005 z m -4.24457,-11.58292 c 0.93872,-0.36014 1.03725,-0.4376 0.88061,-0.69229 -0.25125,-0.40852 -0.89606,-0.74652 -1.42411,-0.74652 -0.55172,0 -1.16932,0.40001 -1.29311,0.83754 -0.0362,0.12792 -0.0963,0.33993 -0.13355,0.47115 -0.14684,0.51739 0.79803,0.57979 1.97012,0.13011 z m 39.273626,-4.35252 c -0.846096,-0.1839 -2.690246,-1.0145 -3.112086,-1.40169 -0.84709,-0.77748 -1.01097,-2.31233 -0.38309,-3.58773 0.3907,-0.793646 0.86533,-1.257615 1.76745,-1.727805 0.44189,-0.230312 0.6127,-0.253966 1.307916,-0.181129 1.54333,0.161697 2.89644,0.800038 3.88867,1.834522 0.42063,0.438538 0.49531,0.608629 0.67187,1.530463 0.21961,1.146479 0.18615,1.579279 -0.14527,1.879209 -0.12177,0.11017 -0.19026,0.25063 -0.15226,0.31213 0.0885,0.14324 -0.41929,0.68872 -0.64115,0.68872 -0.0925,0 -0.25711,0.10584 -0.3657,0.2352 -0.19378,0.23089 -1.38011,0.60624 -1.85728,0.58765 -0.13342,-0.005 -0.57399,-0.0815 -0.97907,-0.16954 z m 0.87737,-2.63197 c 0.0993,-0.151609 0.23194,-0.504081 0.29467,-0.78328 0.10547,-0.469245 0.0906,-0.527871 -0.19708,-0.775261 -0.36795,-0.316494 -0.73508,-0.340745 -1.11629,-0.07374 -0.50613,0.354512 -0.794436,1.474937 -0.46443,1.804941 0.08,0.0801 0.40112,0.13487 0.72325,0.12347 0.46146,-0.0163 0.616,-0.0766 0.75988,-0.29614 z M 35.228835,50.264021 C 34.897227,50.103608 34.55524,50.043524 34.099277,50.065568 l -0.653956,0.03161 -0.07738,-1.307909 c -0.04255,-0.719352 -0.167678,-1.89647 -0.278048,-2.615821 -0.110368,-0.71935 -0.2208,-1.997177 -0.245399,-2.839615 -0.03477,-1.190841 -0.08704,-1.578468 -0.234891,-1.741836 -0.236078,-0.260864 -0.254007,-0.716737 -0.05999,-1.525476 0.119551,-0.498364 0.120267,-0.814453 0.0035,-1.564876 -0.116406,-0.74825 -0.115647,-1.267649 0.0037,-2.542324 0.182109,-1.945167 0.115267,-2.822478 -0.280985,-3.688009 -0.165842,-0.362242 -0.25239,-0.688992 -0.192333,-0.72611 0.06006,-0.03712 0.251027,-0.53247 0.424371,-1.100782 0.363004,-1.190097 0.527321,-1.48146 0.942056,-1.670428 0.434926,-0.198165 5.483692,0.02349 6.328522,0.277845 1.2028,0.362124 1.72342,1.109718 1.87186,2.687924 0.0862,0.916482 -0.13108,1.914687 -0.65718,3.0192 -0.37644,0.790288 -0.79959,1.383191 -2.1713,3.042396 -0.50888,0.615526 -1.405077,1.845725 -1.991562,2.733776 l -1.066338,1.61464 -0.07564,2.665792 c -0.0692,2.439051 0.03127,4.471062 0.267656,5.412877 0.08734,0.347999 -0.06579,0.35549 -0.727133,0.03557 z m 1.666813,-15.545263 c 0.105719,-0.304861 0.295756,-0.768316 0.422314,-1.029899 0.283879,-0.58676 0.319192,-1.858259 0.05763,-2.075334 -0.315547,-0.26188 -0.704946,-0.09489 -0.957752,0.410723 -0.256214,0.512427 -0.316646,1.739057 -0.138819,2.817723 0.115844,0.702681 0.346192,0.656652 0.616624,-0.123217 z m 46.115296,9.383552 c -0.36933,-0.225211 -0.44085,-0.365267 -0.97629,-1.912035 -0.12457,-0.359676 -0.28253,-0.814472 -0.35116,-1.010659 -0.0687,-0.196186 -0.28379,-0.838251 -0.47817,-1.42681 -0.19436,-0.58856 -0.4974,-1.466268 -0.67342,-1.950462 -0.17602,-0.484195 -0.35048,-1.175272 -0.38768,-1.535729 l -0.0677,-0.655376 -0.32986,0.369187 c -0.18143,0.203054 -0.63553,0.894131 -1.00911,1.53573 -0.37361,0.641598 -0.81492,1.34946 -0.98073,1.573026 -0.16581,0.223565 -0.31041,0.491092 -0.32134,0.594504 -0.0228,0.214702 -0.20656,0.678157 -0.55673,1.403246 -0.33508,0.693883 -0.96014,0.988455 -2.06378,0.97259 -1.35074,-0.01942 -1.35687,-0.02372 -1.85639,-1.304032 -1.02499,-2.627095 -1.46359,-4.834987 -1.37218,-6.907328 l 0.0559,-1.267509 -0.57971,-0.570986 c -0.68705,-0.676721 -0.73232,-0.989475 -0.24061,-1.661918 0.36634,-0.500967 1.3694,-1.471645 2.03893,-1.973094 0.66564,-0.498531 1.27354,-0.486863 2.06851,0.0397 0.93317,0.618106 0.93858,0.63875 0.66744,2.547676 -0.28388,1.998655 -0.30584,3.787708 -0.0581,4.738559 0.0994,0.381885 0.21128,0.743562 0.24847,0.803727 0.0737,0.119355 1.14175,-1.354524 1.73857,-2.399306 0.20547,-0.359676 0.62535,-0.948235 0.93309,-1.307911 0.85946,-1.004526 1.90826,-2.708032 1.95111,-3.16907 0.0206,-0.22248 0.12091,-0.531607 0.22266,-0.68695 0.22706,-0.346538 1.46286,-1.112033 1.95373,-1.210207 0.4557,-0.09114 1.10067,0.118919 1.49923,0.488286 0.39606,0.367071 0.3984,0.788417 0.0112,2.081022 -0.34701,1.15935 -0.36593,1.835155 -0.11923,4.259894 0.3253,3.197618 0.80077,5.68705 1.50777,7.894359 0.45101,1.40814 0.40595,1.519352 -0.61567,1.519352 -0.46321,0 -0.73212,0.05762 -0.83232,0.178351 -0.20072,0.241858 -0.5784,0.223529 -1.0267,-0.04983 z m -30.98735,-0.565029 c -0.24524,-0.02939 -0.44588,-0.106463 -0.44588,-0.171242 0,-0.06478 -0.18727,-0.196037 -0.41616,-0.291671 -0.22889,-0.09564 -0.42315,-0.240043 -0.43169,-0.32091 -0.008,-0.08086 -0.0233,-1.618429 -0.0329,-3.416805 -0.0126,-2.29478 -0.0652,-3.463313 -0.17798,-3.918831 l -0.1607,-0.649057 -0.2851,0.351805 c -0.44931,0.554458 -1.27171,2.04203 -1.73924,3.145975 -0.68697,1.622042 -1.28672,3.363771 -1.21905,3.540133 0.0842,0.219415 -0.13685,0.623371 -0.51662,0.944101 -0.26846,0.226708 -0.45522,0.263842 -1.34547,0.267526 -1.39309,0.0058 -1.54288,-0.124748 -1.93581,-1.686712 -0.49027,-1.948907 -0.59196,-3.825148 -0.42069,-7.761633 0.0924,-2.123117 0.20146,-3.520836 0.28387,-3.637339 0.18342,-0.259272 1.39215,-1.230926 1.65682,-1.331844 0.15297,-0.05832 0.33846,0.03785 0.64247,0.3331 0.29485,0.286361 0.53768,0.4151 0.78295,0.4151 h 0.35554 l -0.0772,1.278185 c -0.18489,3.062061 -0.20905,4.042033 -0.11068,4.488269 l 0.10479,0.475362 0.5231,-0.772615 c 0.2877,-0.424939 1.10793,-1.54799 1.82272,-2.495672 0.71479,-0.947681 1.32546,-1.790391 1.35703,-1.872689 0.0316,-0.08229 0.12906,-0.149634 0.21666,-0.149634 0.0876,0 0.56535,-0.210153 1.0617,-0.467008 l 0.90246,-0.467008 0.56047,0.243127 c 0.30826,0.133722 0.7076,0.380637 0.88744,0.548704 l 0.32698,0.305578 v 4.847412 4.847411 l 0.30044,0.442719 c 0.27442,0.404384 0.29681,0.53096 0.2585,1.461815 l -0.042,1.019099 -0.44068,0.219699 c -0.45195,0.225313 -1.4546,0.330454 -2.24626,0.23555 z m 36.7539,-0.431377 c -0.48466,-0.42866 -0.95642,-1.603494 -1.459,-3.633401 -0.39427,-1.592451 -0.46738,-2.079788 -0.90322,-6.021445 -0.0579,-0.523164 -0.18609,-1.165228 -0.28498,-1.42681 -0.0989,-0.261583 -0.18214,-0.584331 -0.18501,-0.717219 -0.0112,-0.551691 0.33649,-1.498271 0.71904,-1.953543 0.22291,-0.265298 0.56585,-0.672423 0.76208,-0.904726 0.42674,-0.505196 1.18993,-0.686969 1.51585,-0.361042 0.22274,0.222737 0.56484,0.253944 0.56484,0.05152 0,-0.07679 0.12625,-0.02104 0.2805,0.123892 0.27736,0.260557 0.27987,0.285179 0.22397,2.190667 -0.056,1.911106 0.11178,3.977715 0.49436,6.088679 l 0.15087,0.832307 0.16456,-0.356703 c 0.0904,-0.196186 0.52258,-0.945262 0.96014,-1.664612 0.43756,-0.719351 0.85615,-1.548685 0.93017,-1.842965 0.21736,-0.864123 0.36364,-1.053696 1.29241,-1.674895 0.78129,-0.522558 0.93088,-0.580825 1.3135,-0.511628 1.20785,0.21843 1.50278,0.735038 1.66835,2.922433 0.0626,0.828374 0.19562,1.685892 0.30006,1.93584 0.10307,0.246793 0.18826,0.749837 0.18923,1.117875 0.001,0.688411 0.18072,1.207022 0.44669,1.294766 0.19478,0.06425 0.69827,-1.051781 1.27461,-2.825273 0.2444,-0.752049 0.62025,-1.715618 0.835256,-2.141266 0.61538,-1.21835 0.78897,-1.968855 0.74766,-3.232237 -0.0407,-1.246728 0.0413,-1.435585 0.90028,-2.070507 0.25596,-0.1892 0.67669,-0.517893 0.93498,-0.730427 0.25828,-0.212536 0.52422,-0.386428 0.59095,-0.386428 0.0667,0 0.29167,0.185959 0.49986,0.413244 0.20818,0.227284 0.5089,0.433144 0.66827,0.457464 0.22358,0.03413 0.31404,0.14692 0.39611,0.493958 0.14725,0.622606 -0.0564,1.437859 -0.69938,2.79962 -0.29262,0.619741 -0.53227,1.24803 -0.53256,1.396193 -6.9e-4,0.349422 -2.78458,6.812502 -3.701706,8.593923 l -0.70664,1.372556 -0.92883,0.209698 c -0.51086,0.115339 -1.06981,0.174317 -1.24213,0.131068 -0.46326,-0.11628 -2.10912,-2.738761 -2.52352,-4.020983 -0.31618,-0.978281 -0.46746,-1.264564 -0.66827,-1.264564 -0.18085,0 -1.48858,2.812443 -1.70538,3.667651 -0.33845,1.33507 -0.4505,1.453527 -1.54371,1.631956 -0.26159,0.04269 -0.59411,0.151878 -0.73895,0.24263 -0.37524,0.235121 -0.51415,0.203595 -1.00131,-0.227274 z m -31.08743,-0.317919 c -0.49132,-0.19867 -0.78829,-1.914491 -0.99858,-5.7699 -0.11474,-2.103237 -0.29911,-3.353125 -0.60822,-4.122965 -0.11052,-0.275434 -0.068,-0.427058 0.31764,-1.129559 0.70919,-1.292006 0.91629,-1.465378 1.75036,-1.465378 0.87054,0 1.43761,0.255575 1.66923,0.752319 0.13341,0.286143 0.23618,1.679153 0.42555,5.768529 0.13734,2.965208 0.2162,5.445404 0.17532,5.511547 -0.27314,0.441952 -2.03718,0.73608 -2.7313,0.455407 z m 7.97239,-0.01138 c -0.0431,-0.06985 -0.15334,-0.09829 -0.24482,-0.06318 -0.26339,0.101071 -0.51739,-0.04853 -0.70794,-0.417002 -0.0969,-0.187314 -0.29553,-0.371465 -0.44148,-0.409224 -0.32718,-0.08464 -1.01362,-1.150036 -1.10675,-1.717757 -0.0376,-0.229187 -0.11712,-0.550466 -0.17681,-0.713954 -0.0597,-0.163489 -0.19016,-0.850711 -0.29005,-1.527159 -0.0998,-0.676447 -0.24191,-1.342579 -0.31561,-1.48029 -0.17744,-0.331548 -0.0499,-2.980356 0.19155,-3.974723 0.49521,-2.040435 1.71031,-3.218755 3.58096,-3.472607 1.35065,-0.183286 2.58976,0.316822 3.07222,1.239959 0.36299,0.69452 0.3508,2.269188 -0.0239,3.085315 -0.5718,1.245516 -1.58405,2.257721 -2.99732,2.997194 -0.60464,0.316367 -0.65682,0.377188 -0.69207,0.806525 -0.0515,0.628498 0.64061,2.751861 0.97301,2.984675 0.55478,0.388593 0.87708,0.192603 2.14705,-1.305664 0.77697,-0.916636 1.82888,-1.379598 1.66673,-0.733558 -0.10251,0.408441 0.14982,0.500385 0.55372,0.201767 0.18998,-0.140451 0.3454,-0.225484 0.3454,-0.188963 0,0.184205 -0.80608,1.637021 -1.27549,2.298845 -0.87247,1.230068 -2.38031,2.160107 -3.50212,2.160107 -0.21862,0 -0.33512,0.062 -0.33512,0.178351 0,0.204403 -0.30369,0.241425 -0.42116,0.05134 z m 0.80117,-9.749626 c 0.24168,-0.355353 0.44234,-0.733181 0.44587,-0.839615 0.01,-0.290231 -0.30816,-0.496785 -0.63728,-0.414184 -0.32659,0.08197 -0.83456,1.010959 -0.9696,1.773201 l -0.08,0.452095 0.40082,-0.1627 c 0.25496,-0.103485 0.56075,-0.397827 0.84028,-0.808797 z M 19.918882,42.6037 c -0.593469,-0.217912 -0.920223,-0.45647 -1.084306,-0.79164 -0.08528,-0.174204 -0.340058,-0.341513 -0.691591,-0.454161 -0.466724,-0.149561 -0.616853,-0.2778 -0.930028,-0.794431 -1.694184,-2.794823 -2.542374,-7.171037 -2.094934,-10.808763 0.360553,-2.931338 0.989135,-4.548532 3.314639,-8.527792 1.749022,-2.992815 2.50773,-4.444234 2.891697,-5.53185 0.1586,-0.449241 0.378746,-0.829766 0.545625,-0.943114 0.153864,-0.104512 0.613369,-0.498742 1.02112,-0.876072 0.486997,-0.450662 0.882101,-0.712457 1.151534,-0.763002 0.467942,-0.08778 1.257972,0.130885 1.257972,0.348204 0,0.07993 0.0656,0.210951 0.145779,0.291128 0.1151,0.1151 0.18881,0.08884 0.350282,-0.124846 0.241921,-0.320138 0.363514,-0.229466 0.573796,0.427878 0.08637,0.26999 0.239976,0.484915 0.371067,0.519197 0.123033,0.03217 0.223688,0.129593 0.223688,0.216486 0,0.0869 0.462661,1.057128 1.028133,2.156074 0.565473,1.098946 1.287837,2.502979 1.605253,3.120076 0.317416,0.617096 0.677833,1.232408 0.800924,1.36736 0.796751,0.873526 0.952441,2.134029 0.632432,5.120305 -0.210492,1.964274 -0.327113,2.553962 -0.893549,4.518235 -1.382323,4.79357 -2.880097,8.264395 -4.469134,10.356428 l -0.42812,0.563637 -1.783514,0.393137 c -1.914523,0.422014 -2.828794,0.478213 -3.538765,0.217526 z m 3.514178,-4.069696 c 0.879104,-1.205628 1.551013,-2.873505 2.025662,-5.028298 0.467622,-2.122893 0.601429,-3.438965 0.597915,-5.880861 -0.0051,-3.496349 -0.261719,-4.551226 -1.495597,-6.14622 -0.363279,-0.469599 -1.013705,-0.928382 -1.316187,-0.928382 -0.440723,0 -2.111365,4.04433 -2.686389,6.503278 -0.611067,2.613079 -0.79179,5.715279 -0.440048,7.553666 0.317314,1.65845 1.387867,3.808415 2.118038,4.253603 0.56868,0.346724 0.739523,0.300068 1.196606,-0.326786 z m 33.438214,-9.931626 c -0.23025,-0.230247 -0.41863,-0.501799 -0.41863,-0.603449 0,-0.101646 0.34319,-0.628679 0.76266,-1.171174 0.41945,-0.542495 1.36425,-1.885276 2.09957,-2.983957 1.05846,-1.581528 1.44044,-2.058261 1.83389,-2.288842 0.27332,-0.160182 0.55728,-0.29124 0.63102,-0.29124 0.274,0 0.9746,0.737067 0.9746,1.025336 0,0.483849 -0.54852,1.674368 -1.75747,3.814385 -0.8034,1.42213 -1.21979,2.047225 -1.36622,2.051041 -0.11585,0.0031 -0.26846,0.132443 -0.33917,0.287624 -0.1,0.219321 -0.25157,0.297382 -0.68114,0.350616 -0.30391,0.03766 -0.72535,0.104441 -0.93652,0.148386 -0.33305,0.06932 -0.43945,0.02441 -0.80259,-0.338726 z"
     id="path1" /></svg>
