<?xml version="1.0" encoding="UTF-8" standalone="no"?>
<!-- Created with Inkscape (http://www.inkscape.org/) -->

<svg
   width="120mm"
   height="90mm"
   viewBox="0 0 120 90"
   version="1.1"
   id="svg1"
   xml:space="preserve"
   xmlns="http://www.w3.org/2000/svg"
   xmlns:svg="http://www.w3.org/2000/svg"><defs
     id="defs1" /><g
     id="layer1"><path
       style="fill:#000000;stroke-width:0.47747"
       d="m 60.681531,89.405831 c -0.289437,-0.08595 -0.62086,-0.270276 -0.736498,-0.409607 -0.284537,-0.342848 -1.903156,-0.346648 -2.186588,-0.0052 -0.510174,0.614723 -2.200362,0.513003 -3.026497,-0.182145 -0.549983,-0.462778 -1.486964,-0.57029 -2.819847,-0.323548 -1.008119,0.186619 -1.888963,-0.02593 -2.40738,-0.580889 -0.574129,-0.614609 -1.392399,-0.830961 -2.735151,-0.723177 -1.22255,0.09814 -1.956728,-0.171731 -2.429287,-0.892948 -0.431239,-0.658155 -1.18912,-0.96216 -2.446469,-0.981339 -1.261569,-0.01924 -1.78923,-0.29638 -2.467549,-1.295983 -0.48656,-0.71702 -1.449012,-1.232797 -2.221285,-1.190384 -0.897779,0.04931 -1.857941,-0.582426 -2.35817,-1.551547 -0.46288,-0.896759 -1.164041,-1.37539 -2.265628,-1.546572 -0.80598,-0.12525 -1.895752,-1.132697 -2.04784,-1.893134 -0.134836,-0.674183 -0.998035,-1.477841 -1.834619,-1.708072 -0.370569,-0.101982 -0.796815,-0.280284 -0.947212,-0.396218 -0.425516,-0.328023 -0.988529,-1.341552 -0.989226,-1.78079 -8.59e-4,-0.545649 -0.909921,-1.647147 -1.474101,-1.786162 -0.971488,-0.239371 -1.933549,-1.652318 -1.753343,-2.575076 0.06251,-0.320081 -0.816143,-1.726865 -1.078568,-1.726865 -0.126937,0 -0.497669,-0.234318 -0.823849,-0.520709 -0.633278,-0.556028 -1.023023,-1.580521 -0.881973,-2.318378 0.111457,-0.583053 -0.497731,-1.76903 -1.087687,-2.117526 -0.767013,-0.453085 -1.214511,-1.498347 -1.091082,-2.548537 0.125732,-1.069771 -0.116465,-1.876198 -0.730666,-2.432852 -0.255549,-0.231607 -0.559844,-0.603006 -0.676213,-0.825334 -0.251236,-0.480001 -0.279913,-1.876509 -0.04707,-2.292567 0.226621,-0.404947 -0.07899,-1.560877 -0.569368,-2.153531 -0.565143,-0.683016 -0.78864,-1.653397 -0.568824,-2.469732 0.09873,-0.366654 0.244073,-0.70655 0.322983,-0.755319 0.259484,-0.160373 -0.02667,-1.657598 -0.430547,-2.25275 -0.530048,-0.781069 -0.52114,-1.766437 0.02526,-2.79407 0.514174,-0.967028 0.530894,-1.620078 0.06607,-2.580289 -0.448178,-0.925814 -0.329065,-1.998129 0.305758,-2.752574 0.590443,-0.7017 0.74778,-1.65715 0.42205,-2.562963 -0.350574,-0.974907 -0.166115,-1.829014 0.571283,-2.645225 0.740014,-0.819104 0.91909,-1.441089 0.795612,-2.763385 -0.113915,-1.219882 0.147944,-1.89162 0.974585,-2.500069 0.759627,-0.559117 1.065094,-1.243255 1.015172,-2.273611 -0.05693,-1.174995 0.333117,-1.965509 1.228793,-2.490405 0.783796,-0.459336 1.352903,-1.408507 1.288501,-2.148996 -0.02235,-0.256941 0.122081,-0.803285 0.320952,-1.2141 0.278074,-0.574425 0.545789,-0.836093 1.159192,-1.133017 0.907475,-0.439267 1.705511,-1.428299 1.706449,-2.114852 0.0013,-0.946756 1.215787,-2.227324 2.113946,-2.228962 0.417084,-9.55e-4 1.422679,-0.993853 1.422679,-1.404994 0,-0.959723 1.378843,-2.301332 2.365205,-2.301332 0.57905,0 1.457845,-0.762351 1.818406,-1.5774601 0.410437,-0.927856 1.152493,-1.453346 2.265632,-1.604398 1.135787,-0.154132 1.804486,-0.559194 2.276194,-1.378808 0.497552,-0.864517 1.527104,-1.404702 2.443082,-1.281844 0.774422,0.103868 2.076545,-0.4352 2.231649,-0.923885 0.253675,-0.799261 1.78015,-1.425424 2.793092,-1.145742 0.794192,0.219289 1.707098,-0.104178 2.550638,-0.9037538 0.781841,-0.7411046 1.617291,-0.9345992 2.564551,-0.5939675 0.870757,0.3131199 1.705209,0.146736 2.632343,-0.5248779 0.567241,-0.41090572 0.867074,-0.50744052 1.561126,-0.50261802 0.472473,0.00334 1.048537,0.1142967 1.280143,0.24669422 0.686842,0.3926329 1.748315,0.3138361 2.47702,-0.18387362 0.53923,-0.368301 0.778175,-0.4253061 1.528664,-0.3647009 0.557162,0.044978 1.073844,0.2081004 1.382815,0.4365315 0.600545,0.44400382 1.645714,0.48129432 2.410136,0.085997 0.873738,-0.45182482 1.895637,-0.34492412 2.795964,0.2924883 0.817179,0.5785455 1.635776,0.6871795 3.079198,0.4086236 0.798602,-0.1541129 1.702834,0.1453896 2.196227,0.7274395 0.5918,0.6981366 1.630875,1.0425596 2.46976,0.8186506 0.899764,-0.240163 2.136195,0.236624 2.631083,1.014585 0.448597,0.705185 1.383287,1.110642 2.602323,1.128852 1.146773,0.01714 1.754019,0.366268 2.267633,1.303775 0.40583,0.740761 1.397253,1.321918 2.255127,1.321918 0.882599,0 1.715201,0.579892 2.159615,1.504135 0.440208,0.9154911 1.335722,1.6856441 1.967085,1.6917081 1.019928,0.0098 2.03934,0.900847 2.237189,1.955482 0.114091,0.608139 1.211556,1.754744 1.679543,1.754744 0.853697,0 1.928218,1.189377 1.928218,2.134319 0,0.608354 0.919058,1.90826 1.349172,1.90826 0.796678,0 1.851203,1.440006 1.851203,2.527911 0,0.661806 0.576039,1.797831 0.975981,1.924767 0.169331,0.05375 0.560474,0.358331 0.86921,0.676866 0.50513,0.521167 0.573499,0.710755 0.682873,1.893711 0.143941,1.556805 0.361951,2.084518 1.022331,2.474611 0.82597,0.487917 1.25649,1.69825 0.97137,2.730869 -0.21398,0.774991 0.0691,1.642854 0.80357,2.463472 0.66945,0.747975 0.81421,1.231556 0.65629,2.192335 -0.23767,1.445945 -0.16631,2.462598 0.20117,2.866089 0.18936,0.207919 0.42956,0.543599 0.53378,0.74595 0.26165,0.508014 0.22708,1.735173 -0.0632,2.242915 -0.35996,0.629682 -0.31855,1.960973 0.0783,2.518342 0.5647,0.793037 0.59666,1.65539 0.0971,2.619096 -0.58529,1.129063 -0.70996,2.071312 -0.36286,2.742524 0.14941,0.288937 0.27126,0.851247 0.27078,1.249582 -9.6e-4,0.683321 -0.11373,0.93956 -0.90478,2.053673 -0.33095,0.466111 -0.40687,1.438272 -0.18878,2.417258 0.19454,0.873229 -0.0522,1.735253 -0.6603,2.306918 -0.74254,0.698051 -1.16165,1.786248 -0.92633,2.405183 0.34805,0.915452 -0.34663,2.558081 -1.19581,2.827604 -0.477052,0.15141 -0.882056,1.171911 -0.922947,2.325583 -0.03982,1.123463 -0.325696,1.605625 -1.415229,2.386933 -0.922539,0.661558 -1.362289,1.36223 -1.363663,2.172798 -0.0019,1.027157 -0.97348,2.293831 -1.759725,2.293831 -0.441005,0 -1.3489,1.159965 -1.478814,1.889395 -0.0667,0.374508 -0.24137,0.864206 -0.388145,1.088216 -0.329487,0.502862 -1.223149,1.063492 -1.696578,1.064337 -0.512392,9.56e-4 -1.54408,1.080003 -1.744632,1.82478 -0.257265,0.955412 -1.201653,1.713104 -2.135216,1.713104 -0.681531,0 -1.683067,0.772947 -2.089555,1.612639 -0.4461,0.921527 -1.262158,1.447369 -2.246171,1.447369 -0.89389,0 -1.784643,0.501357 -2.328057,1.310344 -0.567567,0.844949 -1.368002,1.25598 -2.395736,1.230234 -1.189415,-0.0298 -1.882482,0.227003 -2.382717,0.882846 -0.651446,0.854094 -1.438387,1.158442 -2.669309,1.032367 -1.269072,-0.129987 -1.976362,0.06191 -2.627301,0.712857 -0.365837,0.365837 -0.813064,0.572223 -1.640615,0.757099 -2.10172,0.469526 -2.626599,0.498937 -3.339816,0.187149 -0.871263,-0.380877 -1.856857,-0.312914 -2.503159,0.17262 -0.604752,0.454312 -1.645703,0.63428 -2.390141,0.413217 z m 5.24259,-2.261268 c 11.019552,-1.679366 20.437136,-7.041809 27.225247,-15.502268 2.389086,-2.977673 4.61379,-6.677328 5.923026,-9.849918 1.117956,-2.709073 1.438746,-3.642517 2.028626,-5.90294 1.92463,-7.375197 1.9301,-14.302465 0.0171,-21.646598 C 97.72952,21.23398 88.271284,10.528074 75.737609,5.5143169 64.594993,1.0570122 51.847747,1.5861014 41.079126,6.9528519 26.266989,14.334763 16.964206,29.856368 17.549614,46.211609 c 0.241864,6.757232 1.763742,12.660917 4.736959,18.375651 5.327382,10.239615 14.512079,17.857568 25.530181,21.175199 2.411386,0.726089 5.954771,1.432997 8.169374,1.629805 2.299812,0.204382 7.88502,0.06518 9.938002,-0.247701 z m -9.028437,-1.223058 c -0.04989,-0.373844 0.04265,-3.091597 0.126179,-3.705696 0.07809,-0.574123 0.164824,-0.715869 0.438024,-0.715869 0.328943,0 0.336581,0.06614 0.222181,1.923864 -0.118288,1.920856 -0.117865,1.923949 0.270153,1.979179 0.213745,0.03042 0.413908,0.18796 0.444808,0.350085 0.04688,0.245954 -0.07139,0.294771 -0.714152,0.294771 -0.423684,0 -0.77792,-0.05685 -0.787193,-0.126334 z m 2.917572,-2.089675 c 0.04158,-1.96081 0.08094,-2.220964 0.34177,-2.259043 0.268221,-0.03915 0.294771,0.16043 0.294771,2.216004 0,2.157524 -0.01536,2.259048 -0.34177,2.259048 -0.328463,0 -0.33994,-0.08629 -0.294771,-2.216009 z m 2.597604,1.180654 c -0.05952,-0.569445 -0.108215,-1.410322 -0.108215,-1.868616 0,-0.691605 -0.05727,-0.848244 -0.336881,-0.921364 -0.18645,-0.04875 -0.336881,-0.229753 -0.336881,-0.405328 0,-0.272235 0.131417,-0.317236 0.926423,-0.317236 0.81413,0 0.926424,0.04082 0.926424,0.336879 0,0.194039 -0.112294,0.336883 -0.264829,0.336883 -0.232375,0 -0.250212,0.237383 -0.145544,1.937066 0.114697,1.862557 0.106369,1.937071 -0.216497,1.937071 -0.287261,0 -0.351421,-0.149616 -0.444,-1.035355 z m -7.477496,0.755357 c -0.115803,-0.04675 -0.21055,-0.306039 -0.21055,-0.576244 0,-0.642402 -0.585435,-0.697707 -0.742932,-0.07018 -0.07052,0.280972 -0.222722,0.421101 -0.457384,0.421101 -0.245667,0 -0.322036,-0.07728 -0.25332,-0.256354 0.05411,-0.140997 0.333863,-1.069528 0.621684,-2.0634 0.287821,-0.993872 0.575113,-1.861411 0.638426,-1.927855 0.06331,-0.06645 0.273163,-0.07949 0.466331,-0.02899 0.33169,0.08674 0.353168,0.21754 0.386322,2.352651 0.01931,1.243446 -0.02635,2.254827 -0.101459,2.247512 -0.07511,-0.0073 -0.231315,-0.05153 -0.347118,-0.09826 z m -0.215673,-2.288723 c -0.0054,-0.749469 -0.185425,-0.634714 -0.396458,0.252658 -0.08333,0.350382 -0.04783,0.463213 0.14571,0.463213 0.189534,0 0.254543,-0.185597 0.250748,-0.715871 z m 10.363294,1.452793 c -0.06166,-0.451629 -0.205766,-1.443868 -0.320239,-2.204975 l -0.208132,-1.383831 0.735644,-0.110314 c 0.404605,-0.06068 0.779407,-0.06655 0.832893,-0.01308 0.198839,0.198838 -0.114588,0.617096 -0.462426,0.617096 -0.259244,0 -0.331535,0.07467 -0.257948,0.266437 0.05624,0.146541 0.102242,0.411837 0.102242,0.589542 0,0.210813 0.117082,0.323109 0.336881,0.323109 0.187157,0 0.336882,0.112291 0.336882,0.252658 0,0.138968 -0.113698,0.252662 -0.252661,0.252662 -0.278404,0 -0.306376,0.194641 -0.144379,1.004625 0.09071,0.453573 0.171331,0.529361 0.496883,0.467128 0.242774,-0.04641 0.42486,0.02019 0.485225,0.177514 0.128967,0.336081 0.09915,0.353948 -0.795454,0.476567 l -0.773305,0.105993 z M 50.962397,85.0793 c -0.04103,-0.06948 -0.0065,-0.615754 0.0767,-1.213937 0.215818,-1.551386 0.09098,-1.627819 -0.355743,-0.217808 -0.297758,0.939824 -0.45912,1.221196 -0.700332,1.221196 -0.380684,0 -0.398464,-0.41918 -0.121205,-2.857456 0.166748,-1.466405 0.233719,-1.690443 0.505323,-1.690443 0.356598,0 0.402304,0.557365 0.151939,1.85285 -0.141793,0.73369 -0.100771,1.134091 0.06718,0.655761 0.581601,-1.656361 0.8269,-2.171727 1.033677,-2.171727 0.195783,0 0.225212,0.232136 0.154816,1.221196 l -0.08692,1.221195 0.391378,-1.084453 c 0.215257,-0.596446 0.474289,-1.112084 0.575628,-1.145866 0.440192,-0.146731 0.366395,0.421243 -0.276804,2.130375 -0.377937,1.004266 -0.687158,1.911331 -0.687158,2.015696 0,0.21022 -0.610412,0.263362 -0.728484,0.06342 z m 17.164724,-0.08421 c -0.03321,-0.115806 -0.229236,-1.004516 -0.435624,-1.974915 -0.206386,-0.9704 -0.410028,-1.854999 -0.452538,-1.965777 -0.04345,-0.113222 0.09429,-0.225719 0.314581,-0.256926 0.370924,-0.05255 0.41636,0.05253 0.850074,1.965777 0.553867,2.443279 0.553819,2.442391 0.126051,2.442391 -0.188193,0 -0.369337,-0.09475 -0.402544,-0.21055 z m 2.18507,-2.243912 c -0.409859,-1.496639 -0.535033,-1.768304 -0.784683,-1.70302 -0.311811,0.08153 -0.597792,-0.358446 -0.366424,-0.563753 0.198732,-0.176349 1.607736,-0.493031 1.763983,-0.396468 0.243295,0.150366 0.144343,0.569804 -0.134426,0.569804 -0.299408,0 -0.317379,-0.120051 0.332729,2.222315 0.223528,0.805382 0.364228,1.506518 0.312671,1.558075 -0.05156,0.05156 -0.215797,0.09375 -0.364968,0.09375 -0.201488,0 -0.39662,-0.457879 -0.758882,-1.780699 z m -23.046847,1.341589 c -0.05622,-0.05622 -0.05909,-0.492061 -0.0064,-0.968532 0.108619,-0.981587 -0.115698,-0.930126 -0.445597,0.102226 -0.210842,0.659787 -0.286281,0.716634 -0.647195,0.487697 -0.171618,-0.108859 -0.06637,-0.59392 0.488017,-2.249112 0.616746,-1.841381 0.74819,-2.099501 1.03141,-2.02544 0.235284,0.06153 0.298335,0.182846 0.229173,0.440957 -0.05248,0.195839 -0.13953,0.545571 -0.193451,0.777178 -0.09615,0.412973 -0.09266,0.414596 0.180814,0.08422 0.153369,-0.185288 0.381556,-0.479495 0.507082,-0.6538 0.137232,-0.190553 0.335797,-0.275633 0.498017,-0.213386 0.227156,0.08717 0.175619,0.243362 -0.326139,0.988429 -0.508518,0.755104 -0.595928,1.025275 -0.595928,1.841907 0,0.526353 -0.04601,1.076904 -0.102242,1.223444 -0.102831,0.267975 -0.427509,0.354301 -0.617599,0.164211 z m 25.985946,-0.73998 c -0.185282,-0.185282 -0.336879,-0.442466 -0.336879,-0.571521 0,-0.39778 0.464468,-0.438761 0.71397,-0.06299 0.137125,0.206519 0.319026,0.303699 0.434679,0.232222 0.399285,-0.246771 0.178832,-0.610822 -0.716835,-1.183772 -0.974454,-0.623351 -1.274018,-1.012207 -1.274018,-1.653769 0,-0.546621 0.303284,-0.802741 0.950562,-0.802741 0.375558,0 0.629251,0.118427 0.811707,0.378915 0.243739,0.347989 0.241409,0.396463 -0.02855,0.593877 -0.249291,0.182283 -0.335718,0.159608 -0.568633,-0.149172 -0.179929,-0.238538 -0.31471,-0.299329 -0.390775,-0.176252 -0.193256,0.312699 0.209365,0.847986 0.904614,1.202675 1.171543,0.597677 1.576399,1.73055 0.810223,2.267202 -0.503855,0.352912 -0.905349,0.330027 -1.310047,-0.07467 z m 3.513599,-1.131731 c -0.139588,-0.165007 -0.720406,-1.037215 -1.290705,-1.938235 -0.969593,-1.531861 -1.015841,-1.64949 -0.712371,-1.811901 0.286153,-0.153144 0.397603,-0.04302 0.94234,0.931051 0.339791,0.607605 0.64867,1.073868 0.6864,1.036143 0.03772,-0.03772 -0.09963,-0.572448 -0.305246,-1.18826 -0.279311,-0.836537 -0.325406,-1.168105 -0.182284,-1.311227 0.143117,-0.143117 0.311248,0.01131 0.664872,0.610736 0.260321,0.441263 0.606955,0.963515 0.770297,1.160561 0.25059,0.302306 0.240382,0.213559 -0.06536,-0.568155 -0.507746,-1.298221 -0.557002,-1.620465 -0.264815,-1.732584 0.247626,-0.09502 0.588945,0.697134 1.379945,3.202657 0.492769,1.560857 -0.0921,1.696282 -0.925656,0.214335 -0.312657,-0.555856 -0.620648,-1.010645 -0.684429,-1.010645 -0.06378,0 0.06753,0.505525 0.291806,1.123386 0.344065,0.947896 0.371935,1.15922 0.178382,1.352767 -0.193546,0.193551 -0.26903,0.182517 -0.48318,-0.07064 z m -34.706307,-0.221654 -0.620721,-0.327855 0.93249,-1.980764 c 0.512869,-1.089419 0.955394,-2.005 0.98339,-2.034623 0.02799,-0.02961 0.358954,0.103296 0.735466,0.295383 0.48255,0.246178 0.655038,0.426184 0.584508,0.609981 -0.0708,0.184514 -0.232753,0.231602 -0.553902,0.161065 -0.37755,-0.08292 -0.488902,-0.02273 -0.662386,0.358021 -0.174736,0.383503 -0.167101,0.480888 0.0471,0.600762 0.357774,0.200223 0.142637,0.675333 -0.24945,0.550891 -0.24091,-0.07646 -0.371077,0.04546 -0.579168,0.542414 -0.255853,0.611032 -0.252692,0.651531 0.06754,0.865166 0.184778,0.123273 0.294673,0.331717 0.244213,0.463212 -0.115837,0.301867 -0.173493,0.295435 -0.929084,-0.103653 z m -2.963275,-1.603879 c -0.597789,-0.418707 -0.440187,-1.734594 0.17928,-1.496886 0.203983,0.07828 0.248114,0.23482 0.172617,0.612312 -0.08675,0.433743 -0.05522,0.498058 0.217809,0.444348 0.281961,-0.05547 0.319238,-0.222353 0.319238,-1.429206 0,-1.106646 0.061,-1.434181 0.320878,-1.722892 0.351968,-0.391024 1.096159,-0.472255 1.414062,-0.154351 0.236472,0.236471 0.272177,1.250659 0.04889,1.388663 -0.333482,0.206099 -0.687858,-0.104805 -0.585284,-0.513491 0.124113,-0.494506 -0.186703,-0.540996 -0.440938,-0.06596 -0.12922,0.241451 -0.127324,0.535697 0.0067,1.033264 0.4208,1.562729 -0.547839,2.678428 -1.653208,1.904196 z m 18.490998,0.15662 C 49.811382,79.822221 43.569742,77.376826 37.751986,72.781314 36.283598,71.621416 33.635636,68.988978 32.309834,67.371061 27.089001,60.99993 24.096541,51.972176 24.458537,43.685003 25.213157,26.409418 37.66132,12.518472 54.828375,9.7951949 c 2.519109,-0.399613 7.881532,-0.399613 10.400642,0 4.632061,0.7348031 9.158216,2.3478671 12.991276,4.6299241 4.243646,2.526507 8.610647,6.659748 11.338049,10.731137 1.088923,1.625512 1.250675,1.911168 2.384666,4.211283 5.248017,10.644772 4.768948,23.454275 -1.259919,33.688142 -5.483816,9.308658 -14.999191,15.693647 -25.601172,17.17884 -1.895564,0.265545 -6.136266,0.44524 -7.495612,0.317622 z m 6.771112,-1.493225 c 5.832829,-0.769976 10.822168,-2.767504 15.968384,-6.393085 1.780499,-1.254389 5.81128,-5.26906 7.159391,-7.130781 3.322459,-4.58826 5.35839,-9.316814 6.357189,-14.764925 0.537913,-2.934109 0.538443,-8.538356 9.56e-4,-11.468892 C 91.213873,24.961047 80.935945,14.40456 66.59775,11.317212 c -2.081537,-0.448201 -2.406114,-0.471483 -6.569188,-0.471187 -4.147286,2.96e-4 -4.495545,0.02507 -6.569188,0.467476 -10.615111,2.264663 -19.157632,8.721725 -23.993396,18.135962 -4.970775,9.677079 -4.971047,21.461441 -7.16e-4,31.115793 5.224773,10.148585 14.591653,16.804365 26.015403,18.485646 2.098093,0.308785 6.567644,0.312823 8.876621,0.008 z M 56.828322,78.20058 C 56.550395,78.16119 55.723711,78.047738 54.991246,77.948515 47.74326,76.966661 40.146548,72.806276 35.098283,67.054022 30.937032,62.312479 28.197894,56.596313 27.145309,50.457375 c -0.370505,-2.160876 -0.413808,-8.235397 -0.0741,-10.39385 1.092999,-6.944631 4.344455,-13.455012 9.14464,-18.310292 4.631812,-4.684976 9.775504,-7.594628 16.148789,-9.13496 2.679655,-0.647635 4.504429,-0.850025 7.664051,-0.850025 3.13671,0 4.985189,0.202447 7.579833,0.830139 15.191321,3.675061 25.706331,16.986285 25.683918,32.513938 -0.0073,5.063114 -1.045988,9.57344 -3.287517,14.275548 -3.220338,6.75538 -8.398554,12.048671 -15.046183,15.38055 -3.035472,1.521419 -5.889165,2.45949 -9.539948,3.135993 -1.293933,0.239766 -7.483403,0.453156 -8.590476,0.296164 z m 4.590009,-1.506989 c 0.770403,-0.116274 0.953239,-0.358174 0.336881,-0.445708 -0.339082,-0.04816 -0.378241,-0.146813 -0.371868,-0.936839 0.004,-0.485658 0.07971,-0.949783 0.16844,-1.031387 0.08872,-0.0816 0.587247,-0.189388 1.107826,-0.239518 l 0.946506,-0.09115 0.381781,0.815116 c 0.395634,0.844697 0.365931,1.345726 -0.07977,1.345726 -0.141871,0 -0.257947,0.08527 -0.257947,0.189493 0,0.122953 0.187403,0.152017 0.53367,0.08277 0.293519,-0.0587 1.051503,-0.154863 1.684407,-0.213687 0.632905,-0.05882 1.150737,-0.171861 1.150737,-0.251202 0,-0.07934 -0.139849,-0.144253 -0.310775,-0.144253 -0.449233,0 -0.691747,-0.331483 -2.094932,-2.863491 -1.877873,-3.388569 -1.870384,-3.376905 -2.13653,-3.327763 -0.171142,0.0316 -0.494367,1.028116 -1.052454,3.24476 -0.671432,2.666835 -0.875574,3.256262 -1.226858,3.542367 -0.549016,0.447141 -0.534228,0.631559 0.04181,0.521392 0.254766,-0.04872 0.785354,-0.137206 1.179085,-0.196627 z m 0.210552,-3.028519 c 0,-0.137597 0.502848,-1.98837 0.554179,-2.039698 0.02971,-0.0297 0.294069,0.363937 0.587474,0.874767 0.359667,0.626192 0.466382,0.949239 0.327558,0.991571 -0.362503,0.110549 -1.469211,0.241132 -1.469211,0.17336 z m -4.120286,-0.0095 c 1.255126,-2.330478 1.632805,-2.89786 2.066428,-3.104341 0.29183,-0.138964 0.532241,-0.295516 0.534246,-0.347894 0.0045,-0.118351 -2.340951,-0.451734 -2.445138,-0.347551 -0.04163,0.04163 0.07543,0.181529 0.260126,0.310895 0.184695,0.129366 0.33237,0.401462 0.328167,0.604654 -0.0095,0.461063 -1.769275,3.91316 -1.892847,3.713219 -0.106836,-0.172867 -0.553498,-2.332315 -0.716771,-3.465336 -0.10719,-0.743832 -0.08616,-0.80828 0.324902,-0.995568 0.241731,-0.110143 0.439511,-0.247415 0.439511,-0.305051 0,-0.125646 -3.243089,-0.528324 -3.354853,-0.416563 -0.04282,0.04283 0.08592,0.192573 0.2861,0.332782 0.411468,0.288206 0.812752,1.470373 1.559695,4.594801 0.541216,2.26388 0.605616,2.433964 0.886166,2.340447 0.103641,-0.03452 0.879562,-1.346068 1.724268,-2.914494 z m 14.498942,0.615988 c 1.03917,-0.471902 2.228179,-2.297957 1.784915,-2.74122 -0.129356,-0.129357 -0.256343,0.0059 -0.443607,0.47258 -0.392199,0.977366 -0.505464,1.130577 -1.088073,1.471872 -0.79344,0.464798 -1.620136,0.254138 -2.467472,-0.628756 -0.677273,-0.705695 -1.258351,-2.054242 -1.258351,-2.920343 0,-1.007662 0.799249,-1.901075 1.700697,-1.901075 0.420499,0 1.294077,0.433748 1.793783,0.890649 0.59942,0.548063 0.648508,0.200479 0.126056,-0.892606 -0.495155,-1.03599 -0.730547,-1.230077 -0.865853,-0.713913 -0.05828,0.222348 -0.271671,0.301685 -0.868541,0.322917 -2.668926,0.09494 -4.144432,2.67322 -2.908716,5.082642 0.866245,1.68902 2.76019,2.34514 4.495162,1.557253 z M 49.922253,74.108957 c 1.727153,-0.792294 2.534568,-2.450485 2.026411,-4.161631 -0.752998,-2.535622 -4.493837,-3.290302 -6.208523,-1.252518 -0.977799,1.162051 -1.194168,2.409107 -0.632563,3.645826 0.776383,1.70969 3.090063,2.559452 4.814675,1.768323 z m -2.887019,-0.434804 c -0.884654,-0.619636 -0.913034,-1.966741 -0.07861,-3.731134 0.588455,-1.244291 1.341795,-1.91834 2.144002,-1.91834 1.238358,0 1.845469,1.327013 1.329214,2.905375 -0.778611,2.380463 -2.234043,3.556992 -3.39461,2.744099 z m 29.510774,-1.791709 c 0.06282,-0.101649 0.635779,-0.522214 1.273244,-0.934585 0.637461,-0.412372 1.159025,-0.793474 1.159025,-0.846884 0,-0.05341 -0.21702,-0.05371 -0.482264,-4.77e-4 -0.591055,0.118212 -0.881733,-0.165969 -2.451974,-2.397156 -1.286079,-1.827419 -1.443338,-2.247178 -1.017979,-2.717194 0.523846,-0.578841 -0.04135,-0.356536 -1.348647,0.530454 -1.283611,0.870914 -1.59282,1.248603 -0.874658,1.068353 0.464755,-0.116645 0.988057,0.418817 2.271505,2.324289 1.209283,1.795363 1.421088,2.256517 1.214077,2.643325 -0.09546,0.178359 -0.173556,0.36717 -0.173556,0.419582 0,0.167157 0.312709,0.10224 0.431227,-0.08952 z M 42.693927,68.273083 c 1.781519,-2.044683 2.412258,-2.521017 2.810668,-2.122606 0.218966,0.218968 0.459302,0.24975 0.459302,0.05883 0,-0.183081 -2.022577,-1.945178 -2.120417,-1.84734 -0.04391,0.04393 0.05203,0.309582 0.213184,0.590382 0.288095,0.501978 0.285252,0.521454 -0.169285,1.159788 -0.254265,0.35708 -0.789531,1.013525 -1.18948,1.458761 l -0.72718,0.809521 -0.08924,-2.971992 -0.08924,-2.971985 -0.643411,-0.658914 c -0.353876,-0.362404 -0.69835,-0.658912 -0.765497,-0.658912 -0.06715,0 -0.08059,0.402053 -0.02987,0.893451 0.0904,0.875851 0.07574,0.913174 -0.743916,1.894957 -0.459871,0.550828 -1.180969,1.380499 -1.602441,1.843706 -0.752939,0.827509 -0.775982,0.838586 -1.320545,0.634586 -0.304829,-0.114191 -0.590643,-0.171215 -0.635142,-0.126715 -0.09587,0.09587 1.845955,1.915885 2.055892,1.926929 0.0794,0.0043 0.08762,-0.125054 0.01828,-0.287178 -0.386926,-0.904735 -0.304287,-1.144448 0.874379,-2.536339 0.633991,-0.748677 1.209559,-1.365434 1.279041,-1.370572 0.06948,-0.0051 0.126331,1.430834 0.126331,3.19104 0,2.558851 0.04514,3.20037 0.225174,3.20037 0.123846,0 1.052375,-0.949392 2.063399,-2.109767 z m 21.924482,-0.66217 c 4.201456,-0.942357 7.638665,-2.709569 10.944202,-5.62687 l 1.553181,-1.370759 0.141856,0.547434 c 0.225175,0.868971 0.443865,0.64287 0.625762,-0.646972 0.118513,-0.840375 0.297421,-1.364608 0.603574,-1.768624 1.889477,-2.493423 3.323199,-5.650677 4.059958,-8.940563 0.564814,-2.522091 0.563864,-7.026027 -0.0019,-9.553461 -1.730884,-7.730832 -6.88975,-13.782837 -14.26971,-16.740184 -0.559741,-0.224301 -1.848313,-0.627987 -2.863493,-0.897075 -1.771509,-0.469563 -1.991498,-0.4889 -5.467254,-0.480539 -3.516083,0.0084 -3.677847,0.02402 -5.558543,0.53466 -6.782012,1.841458 -12.068429,6.157197 -15.075124,12.307069 -3.061044,6.261032 -3.051112,13.950355 0.02602,20.147354 3.345514,6.737484 9.347682,11.215381 16.977848,12.666273 1.602375,0.304693 6.632888,0.197014 8.303727,-0.177743 z M 59.436783,64.770814 C 59.057539,64.58206 59.006409,64.427828 58.89459,63.135279 58.724495,61.169102 58.499245,60.3527 57.816973,59.229558 c -0.992607,-1.634006 -2.5315,-5.008127 -3.171668,-6.954084 -0.892901,-2.714201 -1.30341,-5.252434 -1.321234,-8.169372 -0.02315,-3.788096 0.504059,-5.501797 2.059652,-6.694965 1.113782,-0.854294 1.324385,-1.24718 0.963653,-1.797726 -0.227709,-0.347526 -0.277037,-0.899095 -0.277037,-3.097685 0,-2.377456 0.03425,-2.705869 0.308034,-2.953638 0.16942,-0.153324 0.505098,-0.278766 0.745952,-0.278766 0.507473,0 0.967302,-0.39565 0.967302,-0.832296 0,-0.166599 -0.151596,-0.777445 -0.336881,-1.357437 -0.443422,-1.388028 -0.434641,-1.787355 0.04211,-1.915122 0.495777,-0.13286 4.063506,-0.13604 4.407792,-0.0039 0.362801,0.13922 0.3376,0.920189 -0.07184,2.226341 -0.382438,1.220002 -0.270823,1.649814 0.469473,1.807886 0.963412,0.205703 1.19596,0.384205 1.312946,1.007791 0.177643,0.946917 -0.0064,5.107832 -0.236144,5.337534 -0.508453,0.508452 -0.187063,1.044813 1.213245,2.024771 0.59222,0.41445 1.405664,2.186779 1.638787,3.570591 0.26712,1.585619 0.08897,5.786392 -0.332553,7.841426 -0.668353,3.258425 -2.087756,6.867103 -3.973851,10.103088 -0.785939,1.348441 -1.101148,2.554468 -1.101148,4.213111 0,0.521135 -0.09475,1.06661 -0.210552,1.212166 -0.300409,0.377603 -0.987677,0.494717 -1.476226,0.251565 z M 57.989556,34.956126 c 0.28569,-0.382773 0.366404,-0.773707 0.4147,-2.008567 0.03381,-0.864521 -0.02525,-1.817723 -0.135415,-2.185413 -0.228764,-0.763549 -0.846641,-1.158145 -1.26709,-0.8092 -0.209823,0.174137 -0.257649,0.672745 -0.257649,2.686124 0,2.507676 0.101204,2.948132 0.652406,2.83936 0.131073,-0.02588 0.397945,-0.260899 0.593048,-0.522304 z m 5.117372,-2.267704 c 0.04097,-2.423412 0.01409,-2.751051 -0.233446,-2.846044 -0.15386,-0.05905 -0.40209,-0.03147 -0.551622,0.06132 -1.336952,0.829455 -0.928534,5.843546 0.454353,5.578025 0.250709,-0.04813 0.289902,-0.379163 0.330715,-2.793307 z m 18.698141,34.56934 c 2.311842,-0.965711 3.055816,-3.90213 1.460771,-5.76558 -1.477663,-1.726316 -3.838727,-1.659173 -5.293038,0.150522 -0.660245,0.821583 -0.848235,1.335918 -0.843675,2.308256 0.0116,2.473394 2.4845,4.222222 4.675942,3.306802 z m -1.226605,-1.195794 c -0.27793,-0.145652 -0.873894,-0.616355 -1.324367,-1.046012 -1.277609,-1.218569 -1.59814,-2.276599 -0.942287,-3.110381 0.785681,-0.998828 2.259186,-0.653216 3.837095,0.900002 1.27429,1.254346 1.515632,2.405058 0.669708,3.193155 -0.447451,0.41686 -1.508231,0.446807 -2.240149,0.06324 z M 34.746988,64.06414 c -0.06304,-0.251173 -0.01595,-0.532083 0.115812,-0.690847 0.286575,-0.345301 3.266097,-2.455006 3.999793,-2.832125 0.532485,-0.273696 0.580096,-0.273553 0.885346,0.0029 0.643181,0.582068 0.487269,0.08005 -0.386808,-1.245495 -0.951497,-1.442942 -1.238644,-1.682312 -1.063944,-0.88691 0.103435,0.470939 0.02603,0.551722 -1.713134,1.787872 -2.351724,1.671544 -2.777062,1.87901 -3.332969,1.625722 -0.23406,-0.106643 -0.425563,-0.145026 -0.425563,-0.08529 0,0.19615 1.760256,2.747667 1.895576,2.747667 0.07267,0 0.08432,-0.190482 0.02589,-0.423286 z m 52.585208,-3.408738 c 0.04937,-0.162125 0.277988,-0.701742 0.508048,-1.199151 0.478343,-1.034219 0.417208,-1.26369 -0.18576,-0.69723 -0.381637,0.358527 -0.475441,0.375797 -1.071356,0.197257 -0.35921,-0.107621 -1.202474,-0.450134 -1.873931,-0.761148 l -1.220823,-0.565478 2.994915,-0.992678 c 1.647209,-0.545977 3.025864,-1.085834 3.063684,-1.199676 0.07037,-0.211801 -0.568676,-0.534428 -3.49419,-1.764098 -0.8801,-0.369935 -1.690701,-0.746777 -1.80133,-0.837434 -0.110635,-0.09066 -0.226489,-0.443302 -0.257462,-0.783662 l -0.05632,-0.618834 -0.603049,1.263308 c -0.608038,1.273746 -0.682423,1.891115 -0.141446,1.173922 0.186481,-0.247219 0.467868,-0.387638 0.775994,-0.387233 0.480769,4.78e-4 3.084908,1.056659 3.091038,1.253483 0.0019,0.0567 -1.190608,0.50279 -2.649727,0.991303 -1.459119,0.488509 -2.73415,0.972701 -2.833405,1.075983 -0.277582,0.288836 -0.811527,1.610104 -0.696968,1.724664 0.05594,0.05594 0.305418,-0.05853 0.554395,-0.254377 0.654009,-0.514446 1.158222,-0.448345 3.117958,0.408742 2.398426,1.048948 2.569709,1.173268 2.448881,1.777414 -0.105331,0.526645 0.178859,0.694075 0.330848,0.194923 z M 38.017429,57.623469 c -0.0318,-0.06948 -0.237774,-0.60007 -0.457708,-1.179087 -0.433302,-1.140743 -0.63915,-1.310583 -0.722545,-0.59616 -0.04466,0.382588 -0.162118,0.479056 -0.724671,0.595162 -0.369256,0.07621 -1.386615,0.11709 -2.260797,0.09084 l -1.589424,-0.04774 1.418593,-1.197413 c 1.79969,-1.519084 2.1636,-1.720967 2.434473,-1.350527 0.110189,0.150693 0.281938,0.273991 0.381663,0.273991 0.164539,0 -0.934335,-2.877533 -1.200529,-3.143727 -0.06203,-0.06204 -0.112793,0.102402 -0.112793,0.365421 0,0.497996 -0.377067,0.91033 -3.667677,4.010693 -0.76655,0.722235 -1.349512,1.384692 -1.295475,1.472125 0.05626,0.09103 1.52593,0.158979 3.438466,0.158979 3.074291,0 3.371871,0.02635 3.737865,0.331278 0.402188,0.335055 0.726733,0.4481 0.620559,0.216155 z m -4.968082,-12.23116 c 1.925402,-0.804484 1.960851,-3.336586 0.05689,-4.063715 -0.929919,-0.355141 -1.657988,-0.172337 -2.400552,0.602734 -0.41741,0.435682 -0.490995,0.64764 -0.490995,1.41428 0,1.005804 0.406161,1.620287 1.347525,2.03868 0.645714,0.286992 0.817251,0.287914 1.487132,0.008 z m 56.333892,-0.647884 c 0.546001,-0.502969 0.888166,-1.323535 0.764329,-1.832976 -0.05422,-0.223044 -0.279085,-0.648714 -0.499705,-0.945934 -1.028957,-1.386228 -3.429938,-0.534713 -3.423525,1.214163 0.0024,0.713182 0.328886,1.273722 1.009987,1.73517 0.707376,0.479256 1.513016,0.415361 2.148914,-0.170423 z m -5.362276,-9.225963 c 0.840805,-0.226407 0.875193,-0.433099 0.09315,-0.560011 -0.325128,-0.05276 -0.817529,-0.257127 -1.094218,-0.454145 -0.657647,-0.468288 -1.404253,-1.741972 -1.269663,-2.166017 0.09925,-0.312709 2.392686,-1.65216 2.553508,-1.491343 0.258144,0.258148 0.250996,1.331643 -0.01155,1.732321 -0.399255,0.609338 -0.236142,0.671977 0.523464,0.201016 0.356164,-0.220826 0.893914,-0.500785 1.195002,-0.622139 0.688192,-0.277376 0.704148,-0.516656 0.03447,-0.516656 -0.50383,0 -1.33987,-0.624511 -1.33987,-1.000867 0,-0.13913 2.167621,-1.357299 2.415185,-1.357299 0.036,0 0.266901,0.448961 0.51316,0.997692 0.432936,0.964714 0.439115,1.021781 0.186987,1.726517 -0.464707,1.298914 -0.344481,1.393505 0.65538,0.51562 l 0.626507,-0.550083 -1.398514,-2.606136 c -1.36647,-2.546422 -1.788974,-3.115733 -1.568994,-2.114173 0.09694,0.441363 0.03805,0.540515 -0.53405,0.899453 -1.22259,0.767035 -4.549723,2.478636 -4.818161,2.478636 -0.148178,0 -0.379498,-0.157164 -0.51404,-0.349255 -0.518059,-0.739635 -0.422961,0.03194 0.119162,0.96679 0.313412,0.540458 1.003174,1.802892 1.532803,2.805416 0.646923,1.224538 1.037308,1.794236 1.189472,1.735846 0.124577,-0.0478 0.534442,-0.169836 0.910807,-0.271183 z M 39.488826,31.793916 c 0.0627,-0.101449 -0.03386,-0.385691 -0.214567,-0.631649 -3.318047,-4.516067 -3.830426,-5.315523 -3.813775,-5.950553 0.0093,-0.354603 -0.03525,-0.644732 -0.09901,-0.644732 -0.172503,0 -1.510258,2.148628 -1.403945,2.254942 0.05024,0.05024 0.244693,-0.01609 0.432132,-0.147372 0.24118,-0.168928 0.430837,-0.190515 0.648833,-0.07384 0.267311,0.14306 2.840253,3.386439 2.840253,3.58034 0,0.119658 -2.202268,-0.375635 -3.368814,-0.757645 -1.209614,-0.396113 -1.378584,-0.547232 -1.238035,-1.107218 0.140321,-0.559089 -0.157938,-0.46307 -0.518873,0.167042 -0.172467,0.301088 -0.611173,0.990435 -0.974902,1.531881 -0.716433,1.066471 -0.736563,1.304429 -0.0736,0.87004 0.399025,-0.261452 0.562263,-0.251946 2.751776,0.16024 1.280174,0.240997 2.744479,0.54113 3.254012,0.666958 1.181042,0.291653 1.635797,0.312509 1.778524,0.08157 z m 40.17789,-2.057971 c -0.49716,-0.497161 0.14666,-1.315716 2.896064,-3.682056 1.178224,-1.014069 1.365487,-1.076861 2.184591,-0.732567 0.537641,0.225991 0.291667,-0.150637 -0.987679,-1.512323 -1.257412,-1.338343 -1.26529,-1.343366 -1.156073,-0.73688 0.105415,0.585398 0.06234,0.655987 -1.041816,1.707289 -2.660824,2.533441 -3.318935,2.978661 -3.924176,2.654746 -0.633168,-0.33886 -0.617434,-0.01504 0.02889,0.594712 0.338368,0.319228 0.894128,0.920796 1.235023,1.336811 0.340894,0.416019 0.693715,0.710718 0.784048,0.654888 0.103959,-0.06425 0.09703,-0.168715 -0.01886,-0.28462 z m -36.65903,-2.385138 c 1.234104,-1.158308 1.617474,-1.760225 0.793279,-1.245504 -0.515583,0.321987 -0.976365,9.55e-4 -2.98586,-2.078765 -1.754354,-1.815865 -2.033583,-2.316248 -1.557956,-2.791874 0.109627,-0.109627 0.144673,-0.253972 0.07788,-0.320765 -0.06679,-0.06679 -0.702561,0.459679 -1.412819,1.169939 -0.710259,0.71026 -1.23673,1.346026 -1.169939,1.412819 0.06679,0.06679 0.211136,0.03175 0.320762,-0.07789 0.109627,-0.109627 0.305938,-0.199324 0.436247,-0.199324 0.286272,0 2.456127,2.065839 3.592813,3.420583 0.672333,0.801309 0.790147,1.03536 0.651543,1.294339 -0.155228,0.290049 -0.228088,0.67656 -0.127089,0.674197 0.02316,-4.78e-4 0.644673,-0.566536 1.381138,-1.257765 z m 32.526129,-1.932673 c -0.309453,-0.322999 -0.404823,-0.555093 -0.321166,-0.781618 0.137994,-0.373668 2.389952,-3.788827 2.986884,-4.529694 l 0.404312,-0.501801 0.692537,0.692536 c 0.608534,0.608531 0.692535,0.785677 0.692535,1.460394 0,0.422322 0.06912,0.810581 0.153612,0.862793 0.143862,0.08891 1.025476,-1.294401 1.025476,-1.60905 0,-0.07922 -0.739032,-0.632489 -1.6423,-1.229485 -1.662717,-1.098939 -2.377828,-1.595072 -3.746537,-2.599297 l -0.756719,-0.555206 -0.632919,0.678522 c -0.678852,0.727764 -0.828883,1.145804 -0.338144,0.942177 1.029864,-0.42732 1.54918,-0.456689 2.184581,-0.123555 0.406618,0.213186 0.633465,0.449724 0.627568,0.654387 -0.0107,0.37141 -2.432227,4.053938 -3.043168,4.62789 -0.367962,0.345678 -0.46899,0.365708 -0.942707,0.1869 -0.603225,-0.227696 -0.881953,-0.09539 -0.405792,0.192617 0.173494,0.104938 0.969374,0.652762 1.768629,1.217394 1.482453,1.047278 2.084681,1.2401 1.293318,0.414096 z m -30.835759,0.163595 c 0.05586,-0.09039 0.590923,-0.438002 1.189026,-0.772484 0.598102,-0.334477 1.087459,-0.638969 1.087459,-0.676651 0,-0.03768 -0.291093,-0.05711 -0.646874,-0.04316 -0.35578,0.01394 -0.73196,-0.02726 -0.835955,-0.09151 -0.22417,-0.138547 -2.109828,-3.305819 -2.021016,-3.394633 0.03363,-0.03361 1.452118,0.389654 3.15219,0.94063 3.102017,1.005331 3.552028,1.115364 3.552028,0.868503 0,-0.0733 -0.681916,-1.305025 -1.515368,-2.737162 -0.833453,-1.432137 -1.515638,-2.787416 -1.515966,-3.011726 -3.29e-4,-0.224311 0.125268,-0.546918 0.279103,-0.716907 0.153836,-0.169984 0.236992,-0.351776 0.184789,-0.403978 -0.114365,-0.114368 -2.641101,1.305632 -2.648812,1.488603 -0.003,0.07058 0.291142,0.0809 0.653592,0.02292 0.78813,-0.126028 0.901755,-0.0182 2.074115,1.968311 0.715835,1.21295 0.760071,1.344183 0.422818,1.254332 -0.207164,-0.05519 -1.598276,-0.488198 -3.09136,-0.962244 l -2.7147,-0.861905 -0.958879,0.548618 c -0.527384,0.301737 -0.920086,0.587407 -0.872672,0.634824 0.04741,0.04742 0.392132,0.101043 0.766038,0.119177 0.886867,0.04302 1.280663,0.427096 2.404965,2.34565 1.361807,2.323846 1.397907,2.433731 0.983638,2.994056 -0.190699,0.257934 -0.346726,0.509943 -0.346726,0.560015 0,0.154791 0.311291,0.100277 0.418567,-0.0733 z M 71.557217,22.70684 c -0.371504,-0.280226 -0.398902,-0.437982 -0.515055,-2.965721 -0.06747,-1.468362 -0.128606,-3.145867 -0.13586,-3.727793 -0.01614,-1.296229 -0.336964,-1.550167 -0.986562,-0.780901 -0.228231,0.270281 -0.692231,0.794609 -1.031106,1.165179 -0.338875,0.370574 -1.166265,1.335831 -1.838646,2.145018 -1.265813,1.523367 -1.61916,1.81334 -2.209659,1.81334 -0.685304,0 -0.327717,0.277089 0.845017,0.654797 1.239278,0.399136 1.664453,0.366615 1.028705,-0.07868 -0.484849,-0.339606 -0.465264,-0.637456 0.09438,-1.435403 0.507477,-0.723563 0.605076,-0.733437 2.02129,-0.204515 l 0.715871,0.267364 v 0.891508 c 0,0.932779 -0.312161,1.484443 -0.745817,1.31803 -0.126912,-0.04869 -0.277291,-0.01322 -0.334174,0.07879 -0.05781,0.09355 0.296172,0.283507 0.802682,0.430754 0.498358,0.144879 1.235013,0.410668 1.637009,0.590649 0.837754,0.375072 1.23371,0.276423 0.651922,-0.162426 z m -2.980156,-4.018537 c -0.39373,-0.142463 -0.715872,-0.303785 -0.715872,-0.358503 0,-0.05472 0.332508,-0.489025 0.738907,-0.965134 l 0.738907,-0.865653 0.07955,1.128381 c 0.04374,0.620611 0.03337,1.171481 -0.02301,1.224156 -0.05643,0.05268 -0.424724,-0.02077 -0.818456,-0.163247 z m -12.525632,2.071129 c 1.785046,-1.13038 2.506307,-2.830573 1.975455,-4.656642 -0.489633,-1.684274 -1.949783,-2.608226 -3.849624,-2.435954 -1.314414,0.119185 -2.390027,0.777549 -3.071469,1.879983 -1.214248,1.964406 -0.241071,4.807237 1.879553,5.49052 0.679811,0.219045 2.548843,0.04963 3.066085,-0.277907 z m -2.415728,-0.587697 c -1.494251,-1.311973 -1.713816,-5.225148 -0.32859,-5.8563 1.017803,-0.463743 1.90892,-0.0034 2.560244,1.322863 0.396383,0.807081 0.455645,1.132148 0.455645,2.499278 0,1.56186 -0.0034,1.574556 -0.55009,2.063399 -0.730306,0.653011 -1.370134,0.644259 -2.137209,-0.02922 z m 10.191184,-2.300272 c 1.533831,-3.130321 2.040939,-3.916246 2.526909,-3.916246 0.18057,0 0.328309,-0.06343 0.328309,-0.140944 0,-0.173833 -2.52139,-0.509098 -2.620664,-0.348467 -0.03932,0.06363 0.117351,0.239413 0.348161,0.390647 0.230811,0.151234 0.419655,0.3482 0.419655,0.437706 0,0.233125 -1.894545,4.223406 -1.969597,4.148352 -0.129627,-0.129623 -0.735106,-2.420656 -0.887406,-3.357796 -0.185413,-1.140886 -0.111401,-1.427682 0.386745,-1.498644 0.200612,-0.02855 0.36475,-0.127757 0.36475,-0.2204 0,-0.163128 -3.363732,-0.487133 -3.705696,-0.356942 -0.09264,0.03528 0.03214,0.144091 0.277276,0.241824 0.48034,0.191503 0.841684,1.129068 1.991907,5.168343 0.686927,2.412296 0.631405,2.273949 0.912577,2.273949 0.149108,0 0.784403,-1.101619 1.627074,-2.821382 z m 15.521999,60.821771 c -1.014113,-1.712053 -1.16898,-2.246519 -0.650953,-2.246519 0.349684,0 2.507637,3.745884 2.251675,3.908577 -0.405042,0.257451 -0.557465,0.09919 -1.600722,-1.662058 z m 2.882489,0.511423 c -0.06519,-0.169875 -0.02888,-0.323491 0.08541,-0.361597 0.373697,-0.124563 0.198327,-0.564814 -0.804426,-2.019444 -0.756442,-1.097317 -0.958511,-1.509062 -0.821583,-1.674057 0.09988,-0.120341 0.246986,-0.21881 0.326905,-0.21881 0.210798,0 2.340055,3.231998 2.340055,3.551973 0,0.255986 -0.335838,0.631846 -0.801284,0.896765 -0.12632,0.07189 -0.257463,0.0014 -0.325077,-0.17483 z m -45.49612,-0.273438 c -0.123496,-0.149362 -0.0561,-0.500244 0.23188,-1.207316 0.223286,-0.548221 0.377217,-1.025523 0.342068,-1.06067 -0.03515,-0.03514 -0.344727,0.318645 -0.687953,0.786211 -0.343225,0.467568 -0.688915,0.850121 -0.768199,0.850121 -0.52883,0 -0.23566,-0.554533 1.84502,-3.48985 0.300429,-0.423831 0.654353,-0.494296 0.784124,-0.156123 0.04816,0.125493 -0.06613,0.632614 -0.253951,1.126938 -0.187828,0.49432 -0.315156,0.925117 -0.282952,0.957323 0.03221,0.03223 0.305549,-0.326352 0.607431,-0.796798 0.535839,-0.835027 0.926208,-1.020786 0.926208,-0.440733 0,0.285542 -2.259674,3.617793 -2.463875,3.633378 -0.05814,0.0043 -0.184049,-0.08668 -0.279801,-0.202481 z m 46.723738,-3.012485 c -1.218679,-1.542285 -1.30788,-1.706396 -1.061444,-1.952837 0.246441,-0.246436 0.329942,-0.219736 0.99361,0.317698 1.167514,0.945457 1.27417,0.942445 0.51285,-0.01447 -0.570366,-0.716907 -0.676909,-0.949597 -0.520881,-1.137596 0.107879,-0.129991 0.25431,-0.176281 0.3254,-0.102875 0.417905,0.431546 2.679942,3.35601 2.680487,3.46546 0.0019,0.39312 -0.591451,0.236004 -1.41977,-0.375916 -0.515759,-0.381012 -0.937747,-0.64711 -0.937747,-0.591328 0,0.05578 0.319017,0.479762 0.708929,0.942173 0.578478,0.686043 0.663716,0.869348 0.463212,0.996173 -0.135144,0.08549 -0.283617,0.151348 -0.329937,0.146368 -0.04632,-0.0049 -0.682938,-0.766768 -1.414709,-1.69285 z m -49.446669,0.958382 c -0.177183,-0.213491 -0.168989,-0.332028 0.04559,-0.65952 0.393977,-0.601282 0.01611,-0.905454 -0.510388,-0.410839 -0.353805,0.332382 -0.417494,0.342896 -0.652656,0.107732 -0.235162,-0.235163 -0.107434,-0.391258 1.308886,-1.599595 1.920283,-1.638299 1.843822,-1.592448 2.209571,-1.325003 0.278097,0.203351 0.225068,0.343688 -0.742211,1.964239 -1.299412,2.177005 -1.375129,2.264777 -1.658792,1.922986 z m 0.991458,-2.098699 c 0.501678,-0.70454 0.428558,-0.829737 -0.15697,-0.268767 -0.511475,0.490022 -0.634623,0.757982 -0.348352,0.757982 0.08634,0 0.31373,-0.220147 0.505322,-0.489215 z m 51.015103,-1.093372 -1.465646,-1.567615 0.574429,-0.556763 c 0.487669,-0.472666 0.614279,-0.523689 0.838246,-0.337814 0.238917,0.198283 0.23747,0.24805 -0.01528,0.52736 -0.259963,0.287256 -0.259482,0.338369 0.007,0.745102 0.235517,0.359443 0.330328,0.400014 0.535975,0.229338 0.201095,-0.166895 0.304539,-0.152662 0.530148,0.07295 0.178249,0.178249 0.205832,0.280304 0.07577,0.280304 -0.337886,0 -0.232327,0.373658 0.246842,0.873803 0.425206,0.443822 0.469381,0.454837 0.761961,0.190061 0.237111,-0.214584 0.357199,-0.234466 0.507626,-0.08404 0.150423,0.150422 0.08226,0.316849 -0.288157,0.70347 -0.266854,0.278537 -0.565759,0.503063 -0.664228,0.498947 -0.09847,-0.0043 -0.83858,-0.712911 -1.644687,-1.575101 z M 31.31891,74.520922 c -0.157403,-0.18966 -0.138409,-0.3359 0.08863,-0.682414 0.38847,-0.592879 0.07752,-0.971651 -0.424618,-0.517224 -0.324895,0.294026 -0.852458,0.262466 -0.852458,-0.05101 0,-0.08529 0.809889,-0.731025 1.799751,-1.434973 1.683173,-1.196993 1.819273,-1.262229 2.101179,-1.007108 0.333652,0.301951 0.429441,0.100545 -0.900187,1.892729 -0.248761,0.335297 -0.665652,0.931643 -0.926425,1.325207 -0.522661,0.788814 -0.593671,0.826873 -0.885877,0.474786 z m 1.327945,-2.158894 c 0.494874,-0.564846 0.271781,-0.596125 -0.39024,-0.05472 -0.292046,0.23884 -0.435121,0.476582 -0.35998,0.598165 0.06859,0.110978 0.174134,0.138323 0.234547,0.06077 0.06041,-0.07755 0.292466,-0.34945 0.515673,-0.604219 z M 88.396648,71.96698 c -2.056299,-1.848877 -1.926971,-1.69572 -1.681567,-1.991417 0.187264,-0.225632 0.314505,-0.201946 1.0804,0.201129 1.261475,0.663898 1.294644,0.645253 0.362814,-0.203903 -0.6917,-0.630331 -0.797054,-0.797231 -0.589545,-0.933955 0.138967,-0.09156 0.304864,-0.148755 0.368673,-0.127102 0.0638,0.02168 0.805534,0.672641 1.648292,1.446633 1.215696,1.116496 1.492952,1.454655 1.341896,1.636666 -0.157613,0.189914 -0.360829,0.143375 -1.180282,-0.270281 -0.544435,-0.274831 -1.044383,-0.499696 -1.110991,-0.499696 -0.0666,0 0.282371,0.361373 0.775502,0.803056 0.759067,0.679864 0.858687,0.834521 0.649426,1.008192 -0.204305,0.169559 -0.493031,-0.0159 -1.664618,-1.069322 z M 28.295302,71.162138 c -0.153603,-0.185082 0.151153,-0.527328 1.523634,-1.711061 l 1.715641,-1.479703 0.391975,0.489865 c 0.664292,0.830196 0.482856,1.630799 -0.508418,2.24344 -0.679887,0.420192 -1.005512,0.441582 -1.357891,0.08921 -0.238012,-0.238015 -0.315912,-0.222167 -0.828024,0.168441 -0.656338,0.500612 -0.682622,0.506218 -0.936917,0.199812 z m 3.135226,-1.438455 c 0.230541,-0.300271 0.281745,-0.690931 0.08957,-0.683421 -0.259784,0.01017 -1.231891,1.020572 -1.134103,1.178796 0.12098,0.195749 0.738896,-0.09731 1.044525,-0.495375 z m -4.807951,-0.741324 c -0.476852,-0.507583 -0.462114,-0.80889 0.06373,-1.302895 0.34774,-0.326685 0.457686,-0.3591 0.574873,-0.169487 0.09004,0.145685 0.05132,0.377268 -0.102245,0.611643 -0.148187,0.226163 -0.182121,0.417376 -0.08475,0.47755 0.364282,0.225142 0.71376,-0.157378 0.964745,-1.055952 0.423831,-1.517399 1.551369,-2.211711 2.166209,-1.333907 0.332449,0.474638 0.329873,0.713316 -0.01335,1.237138 -0.264136,0.403123 -0.289038,0.408361 -0.600704,0.126305 -0.308785,-0.279449 -0.310208,-0.305175 -0.02826,-0.511336 0.209219,-0.152982 0.244132,-0.269833 0.118243,-0.395722 -0.280491,-0.280491 -0.670713,0.227733 -0.972843,1.267023 -0.403372,1.38755 -1.330059,1.853924 -2.085645,1.04964 z m 65.622588,-0.510277 c -0.2343,-0.217143 -0.478836,-0.561279 -0.543419,-0.764748 -0.06933,-0.218438 -0.388445,-0.478392 -0.779215,-0.634744 -0.42969,-0.171927 -0.696133,-0.4016 -0.759693,-0.654844 -0.216394,-0.862187 0.39173,-1.473381 1.092718,-1.098229 0.181892,0.09735 0.464635,0.48054 0.628321,0.851539 0.231148,0.523908 0.390231,0.67454 0.7124,0.67454 0.405735,0 0.408055,-0.0074 0.106313,-0.340861 -0.235498,-0.260221 -0.261859,-0.387476 -0.111437,-0.537898 0.150427,-0.150427 0.316778,-0.08232 0.703174,0.287872 0.278375,0.2667 0.65783,0.496081 0.843236,0.509741 0.500819,0.03691 0.627829,0.24902 0.29488,0.492477 -0.161977,0.118446 -0.294503,0.32942 -0.294503,0.468837 0,0.429226 -0.675319,1.141119 -1.082495,1.141119 -0.211352,0 -0.575981,-0.177661 -0.81028,-0.394801 z m 1.189252,-0.671909 c 0.0433,-0.223379 -0.07726,-0.279669 -0.589541,-0.275209 l -0.644007,0.0055 0.404493,0.336816 c 0.452508,0.376801 0.747585,0.35288 0.829055,-0.0672 z m -2.164671,-1.718222 c -0.228894,-0.275801 -0.669064,-0.333766 -0.669064,-0.08811 0,0.08739 0.170156,0.278068 0.378118,0.423731 0.423693,0.296766 0.62401,0.06569 0.290946,-0.335623 z M 23.912179,64.682057 c -0.1416,-0.264585 -0.04874,-0.372417 0.625726,-0.726599 2.305824,-1.210859 2.546575,-1.376621 2.511358,-1.729095 -0.06084,-0.608893 0.442589,-0.388226 0.866191,0.379684 0.442451,0.802073 0.321191,1.225593 -0.249626,0.87186 -0.263375,-0.163209 -0.566658,-0.0557 -1.861694,0.659935 -0.850886,0.470198 -1.587252,0.854905 -1.636371,0.854905 -0.04912,0 -0.164131,-0.139808 -0.255584,-0.31069 z m 70.881409,-1.264936 c -1.798276,-0.739745 -2.44476,-1.4734 -2.011571,-2.282822 0.334191,-0.624439 2.047763,-0.40782 1.803767,0.228021 -0.08424,0.219546 -0.235021,0.253608 -0.719944,0.162636 -0.983215,-0.184457 -0.638744,0.230412 0.829794,0.999358 0.916041,0.479657 1.350973,0.627147 1.477182,0.500933 0.12621,-0.12621 0.04244,-0.286182 -0.284438,-0.543323 -0.425984,-0.335079 -0.441459,-0.386311 -0.192024,-0.635746 0.249435,-0.249435 0.312948,-0.229644 0.788188,0.245596 0.603192,0.603193 0.64444,0.920572 0.180006,1.385006 -0.428138,0.428138 -0.706741,0.419257 -1.87096,-0.05966 z m -71.9914,-0.954487 c -0.112808,-0.355423 0.07468,-0.59316 0.801204,-1.015912 0.598305,-0.348142 0.271331,-0.469477 -0.421102,-0.156261 -0.661509,0.299225 -0.73173,0.302734 -0.924682,0.04617 -0.114847,-0.152704 -0.181386,-0.305074 -0.147867,-0.338593 0.03351,-0.03352 0.961265,-0.46855 2.061658,-0.966737 2.161381,-0.978532 2.118813,-0.97984 2.421167,0.0744 0.09728,0.339175 0.06193,0.585616 -0.121554,0.84758 -0.317242,0.452923 -1.309305,0.888595 -1.72383,0.757033 -0.183285,-0.05818 -0.498165,0.05828 -0.787729,0.291338 -1.07653,0.86644 -1.03396,0.84948 -1.157265,0.460977 z m 3.131488,-1.950702 c 0.362361,-0.436618 -0.0047,-0.475703 -0.807028,-0.08592 -0.555576,0.269923 -0.719928,0.422058 -0.561632,0.519887 0.268277,0.165806 1.086102,-0.09351 1.36866,-0.433967 z m 69.815806,-0.491747 c -1.012819,-0.603162 -1.856718,-1.114409 -1.875325,-1.13609 -0.01862,-0.02168 0.0265,-0.19869 0.100265,-0.393335 l 0.134101,-0.353906 2.136348,0.468293 c 1.174996,0.257562 2.176355,0.5083 2.225247,0.557193 0.04889,0.04889 0.04049,0.215104 -0.01872,0.369356 -0.08018,0.20895 -0.234142,0.25516 -0.603823,0.181224 -0.673758,-0.134752 -0.836417,0.199348 -0.290621,0.596928 0.383102,0.279076 0.476754,0.810605 0.142333,0.807884 -0.05957,-4.78e-4 -0.936981,-0.494383 -1.9498,-1.097547 z m 0.894802,-0.543871 c 0.0254,-0.146932 -0.988099,-0.437415 -1.107964,-0.317556 -0.109445,0.109452 0.848187,0.618086 0.980843,0.520963 0.0579,-0.0424 0.115108,-0.133925 0.127121,-0.203407 z M 21.290009,58.703945 c -0.364581,-0.556419 -0.214635,-1.016185 0.469232,-1.438745 0.762616,-0.471225 2.52176,-0.930192 3.053619,-0.796701 0.54743,0.137396 0.851126,0.814439 0.586838,1.308266 -0.25519,0.476826 -1.920079,1.20131 -2.958746,1.287507 -0.784598,0.06511 -0.894788,0.03061 -1.150943,-0.360327 z m 2.214174,-0.64456 c 1.216296,-0.450364 1.599556,-0.750678 1.168911,-0.915935 -0.356046,-0.136629 -2.824452,0.766353 -2.923767,1.069561 -0.105794,0.322984 0.64525,0.257237 1.754856,-0.153626 z m 72.907706,-0.94857 c -0.926424,-0.140482 -1.710277,-0.275863 -1.7419,-0.300845 -0.0316,-0.02497 -0.01084,-0.192391 0.04617,-0.372015 0.101773,-0.320664 0.130297,-0.321141 1.573058,-0.0263 1.468348,0.300042 1.957635,0.305647 1.198787,0.01375 -1.983968,-0.763178 -2.612828,-1.209502 -2.235632,-1.586694 0.05708,-0.05708 1.011171,0.351075 2.120204,0.907016 1.524518,0.764215 1.99229,1.073681 1.917504,1.268571 -0.0544,0.141775 -0.09892,0.28947 -0.09892,0.328217 0,0.119979 -1.022325,0.03476 -2.779271,-0.231658 z M 21.899403,55.078861 c -0.440673,-0.47174 -0.535427,-0.503749 -1.052383,-0.355486 -0.791598,0.227027 -0.853545,0.211228 -0.792598,-0.202122 0.04665,-0.316391 0.329206,-0.435758 2.119726,-0.895504 l 2.0659,-0.53046 0.188812,0.630203 c 0.103848,0.34661 0.144695,0.745173 0.09077,0.885693 -0.141795,0.369513 -0.778857,0.73811 -1.505042,0.870808 -0.560289,0.102385 -0.68512,0.05726 -1.115188,-0.403132 z m 1.672953,-0.535363 c 0.366165,-0.195968 0.43644,-0.499891 0.115257,-0.498454 -0.445521,0.0019 -1.473857,0.359424 -1.473857,0.512296 0,0.214694 0.949655,0.205021 1.3586,-0.01385 z m 74.064468,-0.29721 c -1.747172,-0.700243 -1.975875,-0.838352 -1.979179,-1.195217 l -0.0039,-0.40349 2.313289,0.119983 c 1.272309,0.06599 2.330476,0.137172 2.351486,0.158186 0.021,0.021 -0.003,0.196941 -0.054,0.390961 -0.0702,0.268434 -0.21531,0.347207 -0.607026,0.329526 -0.651432,-0.02941 -0.80224,0.34258 -0.227481,0.561098 0.269842,0.102595 0.434794,0.2947 0.434794,0.506362 0,0.187579 -0.05685,0.337285 -0.12633,0.332682 -0.06948,-0.0047 -1.015276,-0.364644 -2.101769,-0.800091 z m 0.90163,-0.665397 c 0.03476,-0.06948 -0.277931,-0.142286 -0.694819,-0.161791 l -0.757983,-0.03547 0.589542,0.232479 c 0.576425,0.227309 0.735226,0.22083 0.86326,-0.03523 z m -78.93723,-1.026384 c -0.04538,-0.04541 -0.08251,-0.211691 -0.08251,-0.369571 0,-0.224277 0.230208,-0.318911 1.052754,-0.43275 l 1.052754,-0.145705 -1.14836,-0.05245 c -1.374486,-0.06278 -1.431185,-0.328185 -0.152449,-0.713612 0.474178,-0.142926 0.922944,-0.323763 0.997256,-0.401863 0.07431,-0.0781 -0.01649,-0.099 -0.201769,-0.04646 -0.185285,0.05255 -0.704353,0.147486 -1.153485,0.210966 -0.735711,0.103983 -0.810663,0.08457 -0.756625,-0.196031 0.06212,-0.322558 0.961615,-0.536088 3.468187,-0.82329 1.048602,-0.120151 1.052754,-0.118929 1.052754,0.310522 0,0.443412 -0.05272,0.470088 -1.728109,0.874562 -0.255642,0.06172 -0.512577,0.189513 -0.570967,0.283989 -0.07096,0.114822 0.313194,0.132479 1.158687,0.05325 l 1.26485,-0.118527 0.08539,0.446687 c 0.04841,0.25324 0.0033,0.475135 -0.104341,0.512368 -0.429834,0.148784 -4.157868,0.684047 -4.23401,0.607905 z m 76.520178,-1.299428 c -0.05169,-0.05169 -0.05356,-0.248504 -0.0043,-0.437377 0.07359,-0.281407 0.18142,-0.32508 0.597277,-0.24191 0.544606,0.10892 0.960688,0.382372 0.960688,0.631367 0,0.08545 -0.145103,0.07609 -0.326661,-0.0211 -0.217225,-0.116254 -0.361626,-0.11824 -0.431041,-0.0059 -0.111699,0.180736 -0.640511,0.230503 -0.79609,0.07493 z m 3.406642,-1.903052 c 0,-0.239517 0.139148,-0.389653 0.428438,-0.462258 0.235638,-0.05915 0.400248,-0.193236 0.365798,-0.297979 -0.12258,-0.372698 -0.733593,-0.281286 -1.474306,0.220563 -0.992531,0.672463 -1.885232,0.701584 -2.295851,0.0749 -0.258516,-0.394548 -0.262762,-0.486823 -0.04068,-0.884317 0.322956,-0.578039 1.163752,-0.724222 1.163752,-0.202328 0,0.240416 -0.108534,0.34807 -0.350917,0.34807 -0.205422,0 -0.322167,0.0873 -0.281578,0.21055 0.131065,0.397986 0.736827,0.308905 1.381101,-0.203101 0.485638,-0.385934 0.818673,-0.512774 1.346378,-0.512774 0.834881,0 1.106281,0.22592 1.102811,0.918002 -0.003,0.69575 -0.17026,0.910458 -0.80589,1.037585 -0.469932,0.09399 -0.539055,0.06232 -0.539055,-0.246914 z m -80.514662,-1.17025 c 0,-0.453223 0.222974,-0.503448 2.522439,-0.568207 1.678582,-0.04727 1.940093,-0.01833 1.98759,0.219879 0.05888,0.29533 -0.291353,0.361035 -3.120392,0.585402 -1.326849,0.105229 -1.389637,0.09452 -1.389637,-0.237074 z"
       id="path1" /></g></svg>
